<?xml version="1.0" standalone="no"?>
<!DOCTYPE svg PUBLIC "-//W3C//DTD SVG 1.1//EN" "http://www.w3.org/Graphics/SVG/1.1/DTD/svg11.dtd" >
<svg xmlns="http://www.w3.org/2000/svg" xmlns:xlink="http://www.w3.org/1999/xlink" version="1.1">
<metadata>
Created by FontForge 20200427 at Thu Apr 27 19:09:55 2017
 By www
Copyright (c) 2017 by Oleh Lishchuk. All rights reserved.
</metadata>
<defs>
<font id="OpinionPro-Bold" horiz-adv-x="482" >
  <font-face 
    font-family="Opinion Pro"
    font-weight="700"
    font-stretch="normal"
    units-per-em="1000"
    panose-1="2 1 0 0 3 0 0 0 0 4"
    ascent="750"
    descent="-250"
    x-height="530"
    cap-height="700"
    bbox="-52 -210 1228 935"
    underline-thickness="50"
    underline-position="-150"
    unicode-range="U+0020-FB02"
  />
<missing-glyph horiz-adv-x="364" 
d="M33 0v666h265v-666h-265zM66 33h199v600h-199v-600z" />
    <glyph glyph-name="fi" unicode="fi" horiz-adv-x="577" 
d="M14 530h88v22q0 70 52.5 109t138.5 39h47v-98h-47q-64 0 -64 -42v-30h111v-98h-111v-432h-127v432h-88v98zM401 0v530h127v-530h-127zM401 601v118h127v-118h-127z" />
    <glyph glyph-name="fl" unicode="fl" horiz-adv-x="611" 
d="M14 530h88v22q0 70 52.5 109t138.5 39h47v-98h-47q-64 0 -64 -42v-30h111v-98h-111v-432h-127v432h-88v98zM603 98v-98h-22q-83 0 -131.5 38.5t-48.5 101.5v560h127v-560q0 -42 53 -42h22z" />
    <glyph glyph-name=".notdef" horiz-adv-x="364" 
d="M33 0v666h265v-666h-265zM66 33h199v600h-199v-600z" />
    <glyph glyph-name=".null" horiz-adv-x="0" 
 />
    <glyph glyph-name="nonmarkingreturn" horiz-adv-x="333" 
 />
    <glyph glyph-name="space" unicode=" " horiz-adv-x="215" 
 />
    <glyph glyph-name="exclam" unicode="!" horiz-adv-x="268" 
d="M65 0v128h138v-128h-138zM81 209l-16 491h138l-16 -491h-106z" />
    <glyph glyph-name="quotedbl" unicode="&#x22;" horiz-adv-x="346" 
d="M39 485v215h107v-215h-107zM203 485v215h106v-215h-106z" />
    <glyph glyph-name="numbersign" unicode="#" horiz-adv-x="710" 
d="M362 0l26 141h-145l-26 -141h-106l26 141h-112l15 87h113l45 243h-110l14 88h113l26 141h107l-26 -141h144l26 141h107l-26 -141h111l-15 -88h-113l-45 -243h110l-15 -87h-112l-26 -141h-106zM305 471l-45 -243h144l45 243h-144z" />
    <glyph glyph-name="dollar" unicode="$" horiz-adv-x="531" 
d="M353 496v37q0 31 -27 50.5t-69 19.5q-39 0 -63.5 -18t-24.5 -56q0 -50 44 -74l195 -113q43 -25 66 -70t23 -94q0 -81 -54.5 -129.5t-143.5 -56.5v-87h-75v87q-90 9 -144.5 58t-54.5 122v38h137v-38q0 -33 28 -54t75 -21q95 0 95 76q0 54 -41 75l-196 113q-44 27 -67.5 70
t-23.5 91q0 83 52.5 130.5t139.5 55.5v87h75v-87q87 -10 139.5 -57.5t52.5 -117.5v-37h-138z" />
    <glyph glyph-name="percent" unicode="%" horiz-adv-x="892" 
d="M380 525q0 -102 -44.5 -143.5t-124.5 -41.5t-124.5 41.5t-44.5 143.5t44.5 143.5t124.5 41.5t124.5 -41.5t44.5 -143.5zM274 525q0 68 -16 89.5t-47 21.5q-32 0 -47 -21t-15 -90t15.5 -90.5t46.5 -21.5t47 22t16 90zM157 0l484 747l94 -47l-485 -747zM850 175
q0 -102 -44.5 -143.5t-124.5 -41.5t-124.5 41.5t-44.5 143.5t44.5 143.5t124.5 41.5t124.5 -41.5t44.5 -143.5zM744 175q0 62 -16 82t-47 20t-46.5 -19.5t-15.5 -82.5t15.5 -82.5t46.5 -19.5t47 20t16 82z" />
    <glyph glyph-name="ampersand" unicode="&#x26;" horiz-adv-x="648" 
d="M390 501v41q0 30 -24.5 47.5t-63.5 17.5q-38 0 -61.5 -17.5t-23.5 -52.5q0 -40 43 -85l200 -207q26 40 64 103l102 -58q-47 -84 -80 -133l87 -89l-97 -78l-70 71q-77 -71 -188 -71q-110 0 -176.5 51.5t-66.5 131.5v36q0 85 109 183q-60 69 -60 144q0 79 61.5 126.5
t158.5 47.5q98 0 161 -47t63 -121v-41h-138zM281 93q55 0 104 52l-161 164q-56 -53 -56 -100v-36q0 -35 32 -57.5t81 -22.5z" />
    <glyph glyph-name="quotesingle" unicode="'" horiz-adv-x="184" 
d="M39 485v215h107v-215h-107z" />
    <glyph glyph-name="parenleft" unicode="(" horiz-adv-x="323" 
d="M299 -126l-62 -34q-7 6 -19.5 17t-44 52t-55.5 89t-44 129.5t-20 172.5t18.5 171.5t45.5 131t54 88t46 53.5l18 16l63 -34q-5 -6 -13 -17.5t-28 -52t-35.5 -86t-28.5 -119t-13 -151.5t12 -150.5t29.5 -120.5t35 -84.5t29.5 -53.5z" />
    <glyph glyph-name="parenright" unicode=")" horiz-adv-x="323" 
d="M87 -160l-62 34q5 6 13 17.5t28 52t35.5 86t28 119t12.5 151.5t-12 151t-29 120.5t-34.5 84.5t-29.5 54l-12 16l62 34q7 -6 19.5 -17t44 -52t55.5 -89t44 -129.5t20 -172.5t-19 -171.5t-45.5 -131t-53.5 -88t-46 -53.5z" />
    <glyph glyph-name="asterisk" unicode="*" horiz-adv-x="477" 
d="M190 700h97v-115l111 33l29 -92l-110 -35l67 -93l-79 -57l-67 94l-68 -93l-79 58l69 92l-110 36l31 93l109 -36v115z" />
    <glyph glyph-name="plus" unicode="+" horiz-adv-x="602" 
d="M252 545h98v-146h167v-98h-167v-146h-98v146h-167v98h167v146z" />
    <glyph glyph-name="comma" unicode="," horiz-adv-x="268" 
d="M29 -91l36 219h138l-99 -238z" />
    <glyph glyph-name="hyphen" unicode="-" horiz-adv-x="312" 
d="M50 252v98h212v-98h-212z" />
    <glyph glyph-name="period" unicode="." horiz-adv-x="268" 
d="M65 0v128h138v-128h-138z" />
    <glyph glyph-name="slash" unicode="/" horiz-adv-x="480" 
d="M0 -116l380 866l100 -34l-380 -866z" />
    <glyph glyph-name="zero" unicode="0" horiz-adv-x="571" 
d="M529 350q0 -102 -17.5 -174t-51.5 -111.5t-76.5 -57t-98.5 -17.5t-98 17.5t-75.5 57t-51 111.5t-17.5 174t17.5 174t51 111.5t75.5 57t98 17.5t98.5 -17.5t76.5 -57t51.5 -111.5t17.5 -174zM396 350q0 83 -8 136.5t-24.5 78.5t-34 33.5t-44.5 8.5t-44.5 -8.5t-34 -33.5
t-24 -78.5t-7.5 -136.5q0 -84 7.5 -137t24 -78.5t34 -33.5t44.5 -8t44.5 8.5t34 33.5t24.5 78.5t8 136.5z" />
    <glyph glyph-name="one" unicode="1" horiz-adv-x="434" 
d="M20 610l223 90h86v-700h-128v575l-134 -54z" />
    <glyph glyph-name="two" unicode="2" horiz-adv-x="556" 
d="M35 0v68q277 349 296 376q36 52 37 77q0 40 -26 63t-68 23q-45 0 -73 -25.5t-28 -66.5v-29h-132v29q0 87 64.5 141t166.5 54q100 0 164 -53t64 -135q0 -40 -31.5 -87t-166.5 -214q-60 -74 -96 -119h302v-102h-473z" />
    <glyph glyph-name="three" unicode="3" horiz-adv-x="563" 
d="M280 710q101 0 164 -53t63 -144q0 -107 -96 -154q115 -49 115 -169q0 -92 -66.5 -146t-172.5 -54q-107 0 -173.5 53.5t-66.5 136.5v15h133v-24q0 -34 29.5 -56t76.5 -22q48 0 78 27t30 82q0 52 -27.5 78t-72.5 26h-65v106h45q100 0 100 96q0 49 -25.5 74t-69.5 25
q-43 0 -71 -22t-28 -56v-24h-133v15q0 83 65.5 136.5t167.5 53.5z" />
    <glyph glyph-name="four" unicode="4" horiz-adv-x="571" 
d="M539 147h-68v-147h-127v147h-315v78l335 473l1 2h106v-456h68v-97zM170 244h174v257z" />
    <glyph glyph-name="five" unicode="5" horiz-adv-x="556" 
d="M463 593h-262l-22 -160q52 18 116 18q102 0 163 -58.5t61 -162.5q0 -105 -64.5 -172.5t-181.5 -67.5q-104 0 -170.5 53.5t-66.5 135.5v15h133v-23q0 -33 31.5 -55.5t74.5 -22.5q51 0 81 32t30 100q0 136 -125 136q-30 0 -56 -8.5t-37 -16.5l-11 -8l-100 17l39 355h367
v-107z" />
    <glyph glyph-name="six" unicode="6" horiz-adv-x="570" 
d="M314 460q40 0 75.5 -11.5t68 -37.5t51 -74.5t18.5 -114.5q0 -232 -232 -232q-59 0 -103 16.5t-79 55.5t-53 110.5t-18 175.5q0 198 63.5 280t180.5 82q170 0 217 -168h-129q-21 65 -84 65q-58 0 -88 -45t-35 -152q55 50 147 50zM289 357q-54 0 -81 -29.5t-27 -102.5
q0 -72 26.5 -102t80.5 -30q57 0 82 31t25 102t-25 101t-81 30z" />
    <glyph glyph-name="seven" unicode="7" horiz-adv-x="491" 
d="M25 700h440v-78l-235 -622h-137l230 598h-298v102z" />
    <glyph glyph-name="eight" unicode="8" horiz-adv-x="566" 
d="M526 191q0 -93 -68.5 -147t-174.5 -54q-108 0 -176 54t-68 147q0 119 115 168q-96 46 -96 153q0 91 62.5 144.5t162.5 53.5q99 0 161.5 -53.5t62.5 -144.5q0 -107 -96 -153q115 -49 115 -168zM394 199q0 54 -32 80.5t-79 26.5q-48 0 -80 -26t-32 -81q0 -52 31 -79t81 -27
q49 0 80 27t31 79zM283 607q-93 0 -93 -99q0 -96 93 -96q92 0 92 96q0 49 -24 74t-68 25z" />
    <glyph glyph-name="nine" unicode="9" horiz-adv-x="569" 
d="M257 250q-41 0 -77.5 11.5t-68.5 36.5t-50.5 72t-18.5 112q0 228 231 228q60 0 104 -16.5t78.5 -56t52.5 -111t18 -175.5q0 -103 -17.5 -175t-52 -112t-78 -57t-102.5 -17q-96 0 -158 41.5t-65 127.5h130q3 -34 29.5 -50t62.5 -16q61 0 91 47.5t35 159.5
q-50 -50 -144 -50zM280 353q54 0 80.5 28t26.5 98q0 69 -26.5 98.5t-80.5 29.5q-56 0 -81 -30t-25 -98t25 -97t81 -29z" />
    <glyph glyph-name="colon" unicode=":" horiz-adv-x="268" 
d="M65 0v128h138v-128h-138zM65 401v129h138v-129h-138z" />
    <glyph glyph-name="semicolon" unicode=";" horiz-adv-x="268" 
d="M65 401v129h138v-129h-138zM29 -91l36 219h138l-99 -238z" />
    <glyph glyph-name="less" unicode="&#x3c;" horiz-adv-x="602" 
d="M87 301v98l428 161v-98l-298 -112l298 -112v-98z" />
    <glyph glyph-name="equal" unicode="=" horiz-adv-x="602" 
d="M97 401v98h409v-98h-409zM97 201v98h409v-98h-409z" />
    <glyph glyph-name="greater" unicode="&#x3e;" horiz-adv-x="602" 
d="M515 399v-98l-428 -161v98l297 112l-297 112v98z" />
    <glyph glyph-name="question" unicode="?" horiz-adv-x="560" 
d="M212 0v128h140v-128h-140zM279 710q103 0 169.5 -52.5t66.5 -136.5q0 -42 -17 -79.5t-41 -62t-48 -42.5t-41 -26l-17 -8l-10 -93h-127v138q7 3 18 8.5t39 24t49.5 38t39 49.5t17.5 59q0 37 -25 56.5t-69 19.5q-46 0 -73 -20t-27 -51v-32h-137v32q0 78 65.5 128t167.5 50z
" />
    <glyph glyph-name="at" unicode="@" horiz-adv-x="741" 
d="M687 -52v-108q-145 -20 -256 -20q-195 0 -291 78t-96 198v168q0 120 98.5 198t250.5 78q128 0 211 -55.5t83 -140.5v-344h-138v32q-56 -42 -124 -42t-109 36.5t-41 104.5v43q0 71 56 114t146 47l72 3v26q0 29 -45 49t-107 20q-96 0 -156 -47.5t-60 -121.5v-168
q0 -169 249 -169q45 0 109.5 5.5t106.5 10.5zM474 88q30 0 50 10t25 26v116l-70 -3q-35 -2 -56 -14.5t-21 -33.5v-58q0 -20 20 -31.5t52 -11.5z" />
    <glyph glyph-name="A" unicode="A" horiz-adv-x="594" 
d="M149 0h-142l219 700h141l220 -700h-142l-33 118h-231zM296 533l-85 -308h171z" />
    <glyph glyph-name="B" unicode="B" horiz-adv-x="564" 
d="M55 0v700h219q107 0 172.5 -48t65.5 -123v-32q0 -89 -88 -137q51 -23 79 -62.5t28 -88.5v-33q0 -77 -65 -126.5t-172 -49.5h-239zM290 302h-97v-195h97q48 0 76 19.5t28 50.5v42q0 37 -28 60t-76 23zM270 593h-77v-184h77q49 0 76.5 22t27.5 58v36q0 30 -27.5 49
t-76.5 19z" />
    <glyph glyph-name="C" unicode="C" horiz-adv-x="560" 
d="M386 221h138v-40q0 -84 -67 -137.5t-171 -53.5t-171 53.5t-67 137.5v338q0 84 67 137.5t171 53.5t171 -53.5t67 -137.5v-40h-138v48q0 34 -28.5 55t-71.5 21q-45 0 -72.5 -21t-27.5 -55v-354q0 -35 27.5 -55.5t72.5 -20.5q43 0 71.5 21t28.5 56v47z" />
    <glyph glyph-name="D" unicode="D" horiz-adv-x="571" 
d="M55 0v700h231q104 0 170.5 -53.5t66.5 -137.5v-318q0 -84 -66.5 -137.5t-170.5 -53.5h-231zM284 593h-91v-486h91q45 0 73.5 21t28.5 56v333q0 34 -28.5 55t-73.5 21z" />
    <glyph glyph-name="E" unicode="E" horiz-adv-x="495" 
d="M453 107v-107h-398v700h398v-107h-260v-185h230v-107h-230v-194h260z" />
    <glyph glyph-name="F" unicode="F" horiz-adv-x="458" 
d="M392 408v-107h-199v-301h-138v700h376v-107h-238v-185h199z" />
    <glyph glyph-name="G" unicode="G" horiz-adv-x="571" 
d="M290 390h234v-209q0 -84 -67 -137.5t-171 -53.5t-171 53.5t-67 137.5v338q0 84 67 137.5t171 53.5t171 -53.5t67 -137.5v-40h-138v48q0 34 -28.5 55t-71.5 21q-45 0 -72.5 -21t-27.5 -55v-354q0 -35 27.5 -55.5t72.5 -20.5q43 0 71.5 21t28.5 56v108h-96v108z" />
    <glyph glyph-name="H" unicode="H" horiz-adv-x="597" 
d="M193 0h-138v700h138v-292h212v292h137v-700h-137v301h-212v-301z" />
    <glyph glyph-name="I" unicode="I" horiz-adv-x="248" 
d="M55 0v700h138v-700h-138z" />
    <glyph glyph-name="J" unicode="J" horiz-adv-x="363" 
d="M22 97h25q58 0 91 29t33 76v498h138v-499q0 -98 -70 -154.5t-192 -56.5h-25v107z" />
    <glyph glyph-name="K" unicode="K" horiz-adv-x="563" 
d="M404 0l-211 339v-339h-138v700h138v-313l193 313h150l-209 -338l227 -362h-150z" />
    <glyph glyph-name="L" unicode="L" horiz-adv-x="467" 
d="M55 0v700h138v-593h242v-107h-380z" />
    <glyph glyph-name="M" unicode="M" horiz-adv-x="693" 
d="M180 0h-125v700h112l179 -381l180 381h111v-700h-125v404l-133 -284h-66l-133 285v-405z" />
    <glyph glyph-name="N" unicode="N" horiz-adv-x="586" 
d="M188 0h-133v700h117l226 -420v420h133v-700h-117l-226 420v-420z" />
    <glyph glyph-name="O" unicode="O" horiz-adv-x="572" 
d="M524 181q0 -84 -67 -137.5t-171 -53.5t-171 53.5t-67 137.5v338q0 84 67 137.5t171 53.5t171 -53.5t67 -137.5v-338zM386 174v353q0 34 -28.5 55t-71.5 21q-45 0 -72.5 -21t-27.5 -55v-354q0 -35 27.5 -55.5t72.5 -20.5q43 0 71.5 21t28.5 56z" />
    <glyph glyph-name="P" unicode="P" horiz-adv-x="546" 
d="M279 271h-86v-271h-138v700h224q103 0 170 -53.5t67 -137.5v-46q0 -85 -67 -138.5t-170 -53.5zM277 593h-84v-215h84q45 0 73 21t28 56v62q0 34 -28 55t-73 21z" />
    <glyph glyph-name="Q" unicode="Q" horiz-adv-x="572" 
d="M480 -108l-99 112q-45 -14 -95 -14q-104 0 -171 53.5t-67 137.5v338q0 84 67 137.5t171 53.5t171 -53.5t67 -137.5v-338q0 -69 -47 -119l94 -105zM386 174v353q0 34 -28.5 55t-71.5 21q-45 0 -72.5 -21t-27.5 -55v-354q0 -36 27.5 -56t72.5 -20q43 0 71.5 21t28.5 56z
" />
    <glyph glyph-name="R" unicode="R" horiz-adv-x="564" 
d="M193 271v-271h-138v700h227q104 0 171 -53.5t67 -137.5v-46q0 -56 -30.5 -99.5t-83.5 -67.5l144 -296h-139l-122 271h-96zM280 593h-87v-215h87q45 0 73.5 21t28.5 56v62q0 34 -28.5 55t-73.5 21z" />
    <glyph glyph-name="S" unicode="S" horiz-adv-x="531" 
d="M353 496v37q0 31 -27 50.5t-69 19.5q-39 0 -63.5 -18t-24.5 -56q0 -50 44 -74l195 -113q43 -25 66 -70t23 -94q0 -89 -65 -138.5t-168 -49.5q-106 0 -172.5 50.5t-66.5 131.5v38h137v-38q0 -33 28 -54t75 -21q95 0 95 76q0 54 -41 75l-196 113q-44 27 -67.5 70t-23.5 91
q0 91 62 139.5t163 48.5q104 0 169 -49t65 -128v-37h-138z" />
    <glyph glyph-name="T" unicode="T" horiz-adv-x="499" 
d="M485 700v-107h-167v-593h-138v593h-166v107h471z" />
    <glyph glyph-name="U" unicode="U" horiz-adv-x="583" 
d="M392 700h137v-519q0 -84 -66.5 -137.5t-170.5 -53.5q-105 0 -171.5 53.5t-66.5 137.5v519h137v-527q0 -35 28 -55.5t73 -20.5q43 0 71.5 21t28.5 56v526z" />
    <glyph glyph-name="V" unicode="V" horiz-adv-x="587" 
d="M436 700h142l-214 -700h-142l-213 700h142l142 -513z" />
    <glyph glyph-name="W" unicode="W" horiz-adv-x="791" 
d="M644 700h139l-169 -700h-128l-91 469l-90 -469h-128l-169 700h139l93 -472l91 472h129l90 -472z" />
    <glyph glyph-name="X" unicode="X" horiz-adv-x="552" 
d="M386 700h150l-181 -343l189 -357h-150l-119 234l-116 -234h-151l189 358l-180 342h150l110 -219z" />
    <glyph glyph-name="Y" unicode="Y" horiz-adv-x="569" 
d="M214 0v261l-207 439h142l135 -301l136 301h142l-210 -439v-261h-138z" />
    <glyph glyph-name="Z" unicode="Z" horiz-adv-x="473" 
d="M30 593v107h426v-79l-272 -514h272v-107h-439v79l278 514h-265z" />
    <glyph glyph-name="bracketleft" unicode="[" horiz-adv-x="335" 
d="M48 -150v900h266v-98h-138v-704h138v-98h-266z" />
    <glyph glyph-name="backslash" unicode="\" horiz-adv-x="480" 
d="M100 750l380 -866l-100 -34l-380 866z" />
    <glyph glyph-name="bracketright" unicode="]" horiz-adv-x="335" 
d="M286 750v-900h-266v98h139v704h-139v98h266z" />
    <glyph glyph-name="asciicircum" unicode="^" horiz-adv-x="602" 
d="M252 700h99l141 -299h-98l-93 195l-93 -195h-98z" />
    <glyph glyph-name="underscore" unicode="_" horiz-adv-x="338" 
d="M0 -148v98h338v-98h-338z" />
    <glyph glyph-name="grave" unicode="`" horiz-adv-x="357" 
d="M120 725l173 -122l-26 -34l-202 86z" />
    <glyph glyph-name="a" unicode="a" 
d="M164 360h-127v19q0 72 56.5 116.5t144.5 44.5t144.5 -45t56.5 -116v-379h-128v33q-55 -43 -126 -43q-67 0 -108 37t-41 104v33q0 71 55.5 114t145.5 47l74 3v59q0 25 -20.5 40t-52.5 15q-33 0 -53.5 -15t-20.5 -40v-27zM311 132v98l-71 -3q-36 -2 -56.5 -17t-20.5 -40
v-39q0 -20 20 -31.5t55 -11.5q32 0 52.5 12t20.5 32z" />
    <glyph glyph-name="b" unicode="b" horiz-adv-x="493" 
d="M48 0v700h128v-203q56 43 126 43q67 0 108 -37.5t41 -104.5v-266q0 -67 -41 -104.5t-108 -37.5q-73 0 -126 43v-33h-128zM250 88q33 0 53.5 11.5t20.5 32.5v266q0 21 -20.5 32.5t-53.5 11.5q-31 0 -51.5 -10.5t-22.5 -29.5v-270q0 -21 20.5 -32.5t53.5 -11.5z" />
    <glyph glyph-name="c" unicode="c" horiz-adv-x="481" 
d="M319 350v37q0 25 -21 40t-54 15t-54 -15t-21 -40v-244q0 -25 21 -40t54 -15t54 15t21 40v37h127v-29q0 -72 -56.5 -116.5t-145.5 -44.5q-88 0 -145 44.5t-57 116.5v228q0 72 57 116.5t145 44.5q89 0 145.5 -44.5t56.5 -116.5v-29h-127z" />
    <glyph glyph-name="d" unicode="d" horiz-adv-x="493" 
d="M445 0h-127v33q-57 -43 -124 -43q-68 0 -110 41t-42 110v248q0 69 42 110t110 41t124 -44v204h127v-700zM244 88q31 0 52.5 13t21.5 31v266q0 18 -21.5 31t-52.5 13q-32 0 -53.5 -16t-21.5 -37v-248q0 -21 21.5 -37t53.5 -16z" />
    <glyph glyph-name="e" unicode="e" 
d="M42 151v228q0 72 57 116.5t145 44.5q89 0 145.5 -44.5t56.5 -116.5v-158h-277v-78q0 -25 21 -40t54 -15t54 15t21 40v22h127v-14q0 -72 -56.5 -116.5t-145.5 -44.5q-88 0 -145 44.5t-57 116.5zM244 442q-33 0 -54 -15t-21 -40v-68h150v68q0 25 -21 40t-54 15z" />
    <glyph glyph-name="f" unicode="f" horiz-adv-x="353" 
d="M14 530h88v22q0 70 52.5 109t138.5 39h47v-98h-47q-64 0 -64 -42v-30h111v-98h-111v-432h-127v432h-88v98z" />
    <glyph glyph-name="g" unicode="g" horiz-adv-x="493" 
d="M242 -112q34 0 55 16.5t21 42.5v86q-53 -43 -123 -43q-69 0 -111 41t-42 110v248q0 69 42 110t111 41q67 0 123 -43v33h127v-575q0 -72 -57 -118.5t-145 -46.5q-83 0 -142 41t-59 105v9h127v-9q0 -21 21.5 -34.5t51.5 -13.5zM246 88q29 0 50 11.5t22 30.5v268
q0 20 -21 32t-51 12q-35 0 -56 -16t-21 -37v-248q0 -21 21 -37t56 -16z" />
    <glyph glyph-name="h" unicode="h" horiz-adv-x="500" 
d="M48 0v700h128v-203q56 43 126 43q67 0 108 -37.5t41 -104.5v-398h-127v398q0 21 -20.5 32.5t-53.5 11.5q-31 0 -51.5 -10.5t-22.5 -29.5v-402h-128z" />
    <glyph glyph-name="i" unicode="i" horiz-adv-x="224" 
d="M48 0v530h128v-530h-128zM48 601v118h128v-118h-128z" />
    <glyph glyph-name="j" unicode="j" horiz-adv-x="224" 
d="M-16 -102q64 0 64 53v579h128v-570q0 -72 -53.5 -116t-138.5 -44h-22v98h22zM48 601v118h128v-118h-128z" />
    <glyph glyph-name="k" unicode="k" horiz-adv-x="464" 
d="M48 0v700h128v-391l128 221h138l-152 -257l172 -273h-139l-147 239v-239h-128z" />
    <glyph glyph-name="l" unicode="l" horiz-adv-x="258" 
d="M250 98v-98h-21q-83 0 -132 38.5t-49 101.5v560h128v-560q0 -42 53 -42h21z" />
    <glyph glyph-name="m" unicode="m" horiz-adv-x="769" 
d="M321 0v398q0 21 -20 32.5t-52 11.5q-33 0 -53 -11.5t-20 -32.5v-398h-128v530h128v-32q54 42 124 42q89 0 127 -61q61 61 145 61q67 0 107.5 -37.5t40.5 -104.5v-398h-127v398q0 21 -20 32.5t-52 11.5q-30 0 -50.5 -11t-22.5 -29v-402h-127z" />
    <glyph glyph-name="n" unicode="n" horiz-adv-x="500" 
d="M176 398v-398h-128v530h128v-33q56 43 126 43q67 0 108 -37.5t41 -104.5v-398h-127v398q0 21 -20.5 32.5t-53.5 11.5t-53.5 -11.5t-20.5 -32.5z" />
    <glyph glyph-name="o" unicode="o" horiz-adv-x="488" 
d="M446 151q0 -72 -56.5 -116.5t-145.5 -44.5q-88 0 -145 44.5t-57 116.5v228q0 72 57 116.5t145 44.5q89 0 145.5 -44.5t56.5 -116.5v-228zM319 143v244q0 25 -21 40t-54 15t-54 -15t-21 -40v-244q0 -25 21 -40t54 -15t54 15t21 40z" />
    <glyph glyph-name="p" unicode="p" horiz-adv-x="493" 
d="M48 -200v730h128v-33q56 43 123 43q69 0 110.5 -41t41.5 -110v-248q0 -69 -41.5 -110t-110.5 -41t-123 42v-232h-128zM248 88q34 0 55 16t21 37v248q0 21 -21 37t-55 16q-30 0 -51 -12t-21 -32v-266q0 -20 21 -32t51 -12z" />
    <glyph glyph-name="q" unicode="q" horiz-adv-x="493" 
d="M445 530v-730h-127v233q-57 -43 -124 -43q-68 0 -110 41t-42 110v248q0 69 42 110t110 41t124 -44v34h127zM245 88q31 0 52 12t21 32v270q-2 18 -23 29t-50 11q-34 0 -55 -16t-21 -37v-248q0 -21 21 -37t55 -16z" />
    <glyph glyph-name="r" unicode="r" horiz-adv-x="346" 
d="M176 360v-360h-128v530h128v-53q69 63 150 63v-107q-65 0 -107.5 -20.5t-42.5 -52.5z" />
    <glyph glyph-name="s" unicode="s" horiz-adv-x="470" 
d="M234 540q86 0 140 -43t54 -113v-24h-127v31q0 23 -19.5 37t-50.5 14q-30 0 -49.5 -13t-19.5 -36q0 -35 38 -51l134 -51q47 -20 74.5 -59t27.5 -87q0 -69 -56.5 -112t-143.5 -43q-89 0 -145 43.5t-56 112.5v24h127v-31q0 -24 21.5 -37.5t55.5 -13.5q33 0 54 13t21 36
q0 35 -42 51l-134 52q-46 19 -71.5 57t-25.5 86q0 70 54 113.5t139 43.5z" />
    <glyph glyph-name="t" unicode="t" horiz-adv-x="386" 
d="M358 98v-98h-48q-84 0 -137.5 41.5t-53.5 108.5v282h-100v98h100v110h127v-110h112v-98h-112v-282q0 -24 18 -38t46 -14h48z" />
    <glyph glyph-name="u" unicode="u" horiz-adv-x="500" 
d="M324 132v398h127v-530h-127v33q-55 -43 -126 -43q-67 0 -108.5 37.5t-41.5 104.5v398h128v-398q0 -21 20 -32.5t54 -11.5q33 0 53.5 11.5t20.5 32.5z" />
    <glyph glyph-name="v" unicode="v" horiz-adv-x="460" 
d="M169 0l-166 530h128l99 -363l100 363h127l-166 -530h-122z" />
    <glyph glyph-name="w" unicode="w" horiz-adv-x="717" 
d="M451 0l-93 314l-92 -314h-102l-161 530h128l88 -323l91 323h97l89 -323l90 323h128l-161 -530h-102z" />
    <glyph glyph-name="x" unicode="x" horiz-adv-x="438" 
d="M305 0l-86 172l-86 -172h-130l146 273l-136 257h130l76 -157l76 157h131l-138 -257l147 -273h-130z" />
    <glyph glyph-name="y" unicode="y" horiz-adv-x="461" 
d="M458 530l-231 -730h-116l59 192l-167 538h123l103 -344l106 344h123z" />
    <glyph glyph-name="z" unicode="z" horiz-adv-x="430" 
d="M36 432v98h360v-75l-209 -357h208v-98h-361v75l209 357h-207z" />
    <glyph glyph-name="braceleft" unicode="{" horiz-adv-x="337" 
d="M230 201v-203q0 -50 86 -50v-98q-99 0 -156 41t-57 107v203q0 50 -83 50v98q83 0 83 50v202q0 67 57 108t156 41v-98q-86 0 -86 -51v-202q0 -65 -65 -99q65 -34 65 -99z" />
    <glyph glyph-name="bar" unicode="|" horiz-adv-x="204" 
d="M48 -150v900h107v-900h-107z" />
    <glyph glyph-name="braceright" unicode="}" horiz-adv-x="337" 
d="M107 399v202q0 51 -87 51v98q100 0 157 -41t57 -108v-202q0 -50 82 -50v-98q-82 0 -82 -50v-203q0 -66 -57 -107t-157 -41v98q87 0 87 50v203q0 65 64 99q-64 34 -64 99z" />
    <glyph glyph-name="asciitilde" unicode="~" horiz-adv-x="602" 
d="M210 427q38 0 97 -26.5t78 -26.5q20 0 39.5 14t29.5 28l9 14l54 -61q-2 -4 -5 -10.5t-14.5 -23t-25 -29t-36 -23t-47.5 -10.5q-38 0 -95.5 26.5t-76.5 26.5q-20 0 -40 -14t-29 -28l-10 -14l-53 61q1 4 4 10.5t14 23t24.5 29t35.5 23t47 10.5z" />
    <glyph glyph-name="exclamdown" unicode="&#xa1;" horiz-adv-x="268" 
d="M65 -170l16 491h106l16 -491h-138zM65 401v129h138v-129h-138z" />
    <glyph glyph-name="cent" unicode="&#xa2;" horiz-adv-x="481" 
d="M319 435v37q0 25 -21 40t-54 15t-54 -15t-21 -40v-244q0 -25 21 -40t54 -15t54 15t21 40v37h127v-29q0 -64 -45.5 -107t-119.5 -52v-87h-76v87q-73 10 -118 53t-45 106v228q0 63 44.5 105.5t118.5 52.5v88h76v-88q74 -9 119.5 -52t45.5 -106v-29h-127z" />
    <glyph glyph-name="sterling" unicode="&#xa3;" horiz-adv-x="474" 
d="M34 313v68h42q-26 68 -26 135q0 101 52.5 147.5t141.5 46.5q93 0 149.5 -45t56.5 -115v-20h-128v20q0 62 -72 62q-36 0 -54 -19.5t-18 -64.5q0 -69 29 -147h148v-68h-123q36 -104 28 -215h190v-98h-425v98h109q9 110 -31 215h-69z" />
    <glyph glyph-name="currency" unicode="&#xa4;" horiz-adv-x="560" 
d="M73 350q0 58 30 107l-82 84l68 69l82 -84q49 30 108 30q56 0 107 -30l84 84l68 -69l-84 -84q31 -48 31 -107q0 -60 -31 -108l85 -83l-68 -69l-86 84q-47 -29 -106 -29q-57 0 -107 29l-83 -84l-68 69l82 82q-30 51 -30 109zM171 350q0 -45 31.5 -76.5t76.5 -31.5
t76.5 31.5t31.5 76.5t-31.5 77t-76.5 32t-76.5 -32t-31.5 -77z" />
    <glyph glyph-name="yen" unicode="&#xa5;" horiz-adv-x="569" 
d="M7 700h142l135 -319l136 319h142l-207 -433h121v-69h-124v-51h124v-68h-124v-79h-138v79h-124v68h124v51h-124v69h121z" />
    <glyph glyph-name="brokenbar" unicode="&#xa6;" horiz-adv-x="204" 
d="M155 350h-107v400h107v-400zM48 250h107v-400h-107v400z" />
    <glyph glyph-name="section" unicode="&#xa7;" horiz-adv-x="470" 
d="M162 169v-24q0 -26 21.5 -41.5t56.5 -15.5q32 0 53 12t21 32q0 16 -11 29t-29 19l-135 48q-46 18 -72.5 55t-26.5 81q0 61 47 100q-47 39 -47 101q0 65 54.5 105t137.5 40q88 0 142 -45t54 -116v-19h-127v25q0 27 -19.5 42t-52.5 15q-29 0 -48 -12t-19 -34q0 -32 38 -46
l133 -48q47 -19 75 -56t28 -82q0 -61 -49 -99q49 -41 49 -102q0 -63 -56 -103t-142 -40q-91 0 -147 44.5t-56 116.5v18h127zM272 386l-63 22q-47 -5 -47 -43q0 -36 41 -52l59 -21q52 7 52 41q0 16 -12 32t-30 21z" />
    <glyph glyph-name="dieresis" unicode="&#xa8;" horiz-adv-x="408" 
d="M59 579v108h107v-108h-107zM242 579v108h107v-108h-107z" />
    <glyph glyph-name="copyright" unicode="&#xa9;" horiz-adv-x="814" 
d="M768 350q0 -102 -26 -174t-76.5 -111.5t-113 -57t-145.5 -17.5t-145.5 17.5t-112.5 57t-76 111.5t-26 174t26 174t76 111.5t112.5 57t145.5 17.5t145.5 -17.5t113 -57t76.5 -111.5t26 -174zM674 350q0 62 -8.5 109t-26.5 78t-40 51t-54.5 30t-63.5 13.5t-74 3.5
q-53 0 -89 -5t-72.5 -22t-57.5 -47.5t-34.5 -83.5t-13.5 -127q0 -75 13.5 -128t34.5 -83t57.5 -47t72.5 -22t89 -5q43 0 74 3.5t63.5 13.5t54.5 30t40 51t26.5 78t8.5 109zM447 286h79v-19q0 -43 -33.5 -70t-85.5 -27t-85.5 27t-33.5 70v166q0 43 33.5 70.5t85.5 27.5
t85.5 -27.5t33.5 -70.5v-19h-79v30q0 12 -11.5 19t-28.5 7q-41 0 -41 -26v-188q0 -25 41 -25q40 0 40 25v30z" />
    <glyph glyph-name="ordfeminine" unicode="&#xaa;" horiz-adv-x="296" 
d="M106 598h-81v11q0 43 34 70t87 27t87 -27t34 -70v-227h-82v17q-31 -23 -72 -23q-39 0 -63.5 22.5t-24.5 62.5v19q0 43 34 69.5t88 29.5l38 1v40q0 25 -39 25q-40 0 -40 -25v-22zM185 462v56l-37 -1q-42 -2 -42 -27v-29q0 -24 41 -24q38 0 38 25z" />
    <glyph glyph-name="guillemotleft" unicode="&#xab;" horiz-adv-x="534" 
d="M224 119l-185 181l185 181l63 -58l-127 -123l127 -122zM421 119l-185 181l185 181l63 -58l-127 -123l127 -122z" />
    <glyph glyph-name="logicalnot" unicode="&#xac;" horiz-adv-x="602" 
d="M85 351v98h432v-234h-98v136h-334z" />
    <glyph glyph-name="uni00AD" unicode="&#xad;" horiz-adv-x="312" 
d="M50 252v98h212v-98h-212z" />
    <glyph glyph-name="registered" unicode="&#xae;" horiz-adv-x="814" 
d="M768 350q0 -102 -26 -174t-76.5 -111.5t-113 -57t-145.5 -17.5t-145.5 17.5t-112.5 57t-76 111.5t-26 174t26 174t76 111.5t112.5 57t145.5 17.5t145.5 -17.5t113 -57t76.5 -111.5t26 -174zM674 350q0 62 -8.5 109t-26.5 78t-40 51t-54.5 30t-63.5 13.5t-74 3.5
q-53 0 -89 -5t-72.5 -22t-57.5 -47.5t-34.5 -83.5t-13.5 -127q0 -75 13.5 -128t34.5 -83t57.5 -47t72.5 -22t89 -5q43 0 74 3.5t63.5 13.5t54.5 30t40 51t26.5 78t8.5 109zM373 307v-132h-79v350h116q51 0 85.5 -27.5t34.5 -69.5v-24q0 -54 -52 -82l67 -147h-79l-53 132h-40
zM409 464h-36v-96h36q18 0 30 7t12 19v45q0 12 -12 18.5t-30 6.5z" />
    <glyph glyph-name="macron" unicode="&#xaf;" horiz-adv-x="379" 
d="M65 652h250v-68h-250v68z" />
    <glyph glyph-name="degree" unicode="&#xb0;" horiz-adv-x="288" 
d="M31 597q0 47 33.5 80t79.5 33t79.5 -33t33.5 -80t-33.5 -80t-79.5 -33t-79.5 33t-33.5 80zM92 597q0 -22 15 -37t37 -15t37 15t15 37t-15 37t-37 15t-37 -15t-15 -37z" />
    <glyph glyph-name="plusminus" unicode="&#xb1;" horiz-adv-x="602" 
d="M252 615h98v-146h167v-98h-167v-146h-98v146h-167v98h167v146zM85 81v98h432v-98h-432z" />
    <glyph glyph-name="twosuperior" unicode="&#xb2;" horiz-adv-x="284" 
d="M19 350v39q146 191 153 205q5 9 5 16q0 36 -37 36q-19 0 -30 -11t-11 -29v-16h-77v16q0 45 32.5 72.5t84.5 27.5q50 0 83 -27t33 -68q0 -20 -15 -42.5t-87 -114.5q-21 -28 -34 -44h139v-60h-239z" />
    <glyph glyph-name="threesuperior" unicode="&#xb3;" horiz-adv-x="287" 
d="M142 706q51 0 83.5 -27.5t32.5 -75.5q0 -49 -44 -74q52 -27 52 -84q0 -47 -33.5 -73.5t-86.5 -26.5q-54 0 -87.5 27t-33.5 69v7h77v-12q0 -14 12 -23t31 -9q43 0 43 50q0 22 -11 33.5t-28 11.5h-30v60h21q40 0 40 41q0 46 -39 46q-16 0 -27.5 -9t-11.5 -22v-12h-77v6
q0 42 33 69.5t84 27.5z" />
    <glyph glyph-name="acute" unicode="&#xb4;" horiz-adv-x="357" 
d="M65 603l172 122l56 -70l-202 -86z" />
    <glyph glyph-name="paragraph" unicode="&#xb6;" horiz-adv-x="595" 
d="M371 700v-700h-106v271q-104 0 -171 53.5t-67 136.5v49q0 83 67 136.5t171 53.5h106zM545 700v-700h-107v700h107z" />
    <glyph glyph-name="periodcentered" unicode="&#xb7;" horiz-adv-x="268" 
d="M65 236v129h138v-129h-138z" />
    <glyph glyph-name="cedilla" unicode="&#xb8;" horiz-adv-x="309" 
d="M127 4h60l-6 -40q28 0 48 -19t20 -49q0 -31 -24 -50t-66 -19q-30 0 -54.5 10t-34.5 20l-10 10l16 30q31 -22 62 -22q36 0 36 24q0 29 -58 29z" />
    <glyph glyph-name="onesuperior" unicode="&#xb9;" horiz-adv-x="233" 
d="M13 655l115 45h50v-350h-75v278l-63 -25z" />
    <glyph glyph-name="ordmasculine" unicode="&#xba;" horiz-adv-x="298" 
d="M270 473q0 -43 -34 -70t-87 -27t-87 27t-34 70v136q0 43 34 70t87 27t87 -27t34 -70v-136zM189 462v158q0 25 -40 25t-40 -25v-158q0 -25 40 -25t40 25z" />
    <glyph glyph-name="guillemotright" unicode="&#xbb;" horiz-adv-x="534" 
d="M298 300l-184 -181l-64 59l127 122l-127 123l64 58zM495 300l-185 -181l-63 59l127 122l-127 123l63 58z" />
    <glyph glyph-name="onequarter" unicode="&#xbc;" horiz-adv-x="653" 
d="M58 -4l484 747l73 -39l-485 -747zM634 71h-32v-71h-74v71h-150v45l162 234h62v-222h32v-57zM13 655l115 45h50v-350h-75v278l-63 -25zM460 128h68v104z" />
    <glyph glyph-name="onehalf" unicode="&#xbd;" horiz-adv-x="704" 
d="M58 -4l484 747l73 -39l-485 -747zM439 0v39q146 191 153 205q5 9 5 16q0 36 -37 36q-19 0 -30 -11t-11 -29v-16h-78v16q0 45 33 72.5t85 27.5q50 0 82.5 -27t32.5 -68q0 -20 -16 -44t-84 -112q-22 -28 -35 -45h139v-60h-239zM13 655l115 45h50v-350h-75v278l-63 -25z" />
    <glyph glyph-name="threequarters" unicode="&#xbe;" horiz-adv-x="686" 
d="M91 -4l484 747l73 -39l-485 -747zM667 71h-32v-71h-74v71h-150v45l162 234h62v-222h32v-57zM142 706q51 0 83.5 -27.5t32.5 -75.5q0 -49 -44 -74q52 -27 52 -84q0 -47 -33.5 -73.5t-86.5 -26.5q-54 0 -87.5 27t-33.5 69v7h77v-12q0 -14 12 -23t31 -9q43 0 43 50
q0 22 -11 33.5t-28 11.5h-30v60h21q40 0 40 41q0 46 -39 46q-16 0 -27.5 -9t-11.5 -22v-12h-77v6q0 42 33 69.5t84 27.5zM493 128h68v104z" />
    <glyph glyph-name="questiondown" unicode="&#xbf;" horiz-adv-x="560" 
d="M348 530v-129h-139v129h139zM281 -180q-101 0 -168 51.5t-67 136.5q0 42 17 80.5t41 62.5t47.5 42t40.5 26l17 8l10 93h128v-138q-7 -3 -18 -8.5t-39 -24t-50 -38t-39.5 -49t-17.5 -59.5q0 -37 25 -56.5t69 -19.5q47 0 73.5 19.5t26.5 51.5v32h138v-32q0 -78 -66 -128
t-168 -50z" />
    <glyph glyph-name="Agrave" unicode="&#xc0;" horiz-adv-x="594" 
d="M149 0h-142l219 700h141l220 -700h-142l-33 118h-231zM296 533l-85 -308h171zM226 895l173 -122l-27 -34l-202 86z" />
    <glyph glyph-name="Aacute" unicode="&#xc1;" horiz-adv-x="594" 
d="M149 0h-142l219 700h141l220 -700h-142l-33 118h-231zM296 533l-85 -308h171zM194 773l173 122l55 -70l-201 -86z" />
    <glyph glyph-name="Acircumflex" unicode="&#xc2;" horiz-adv-x="594" 
d="M149 0h-142l219 700h141l220 -700h-142l-33 118h-231zM296 533l-85 -308h171zM139 773l157 122l158 -122l-26 -34l-132 59l-131 -59z" />
    <glyph glyph-name="Atilde" unicode="&#xc3;" horiz-adv-x="594" 
d="M149 0h-142l219 700h141l220 -700h-142l-33 118h-231zM296 533l-85 -308h171zM233 878q24 0 63 -16.5t53 -16.5t27.5 9t20.5 18l7 9l57 -41q-1 -3 -3.5 -8t-12 -18.5t-20 -23.5t-27.5 -18t-36 -8q-25 0 -64 16.5t-52 16.5q-14 0 -28 -9t-21 -18l-7 -9l-58 41q1 3 4 8
t12 18.5t20 23.5t28.5 18t36.5 8z" />
    <glyph glyph-name="Adieresis" unicode="&#xc4;" horiz-adv-x="594" 
d="M149 0h-142l219 700h141l220 -700h-142l-33 118h-231zM296 533l-85 -308h171zM152 749v108h107v-108h-107zM335 749v108h107v-108h-107z" />
    <glyph glyph-name="Aring" unicode="&#xc5;" horiz-adv-x="594" 
d="M149 0h-142l219 700h141l220 -700h-142l-33 118h-231zM296 533l-85 -308h171zM211 825q0 34 26 60t61 26t60.5 -25.5t25.5 -60.5t-25.5 -61.5t-60.5 -26.5q-34 0 -60.5 26.5t-26.5 61.5zM267 825q0 -14 8.5 -23t22.5 -9q13 0 22 9t9 23q0 13 -9 22t-22 9t-22 -9t-9 -22z
" />
    <glyph glyph-name="AE" unicode="&#xc6;" horiz-adv-x="716" 
d="M149 0h-142l230 700h437v-107h-207v-185h177v-107h-177v-194h207v-107h-345v118h-145zM216 225h113v375z" />
    <glyph glyph-name="Ccedilla" unicode="&#xc7;" horiz-adv-x="560" 
d="M386 221h138v-40q0 -79 -59.5 -131t-154.5 -59l-4 -27q28 0 48 -19t20 -49q0 -31 -23.5 -50t-65.5 -19q-30 0 -55 10t-35 20l-10 10l17 30q30 -22 62 -22q35 0 35 24q0 29 -58 29l10 64q-91 9 -147 60.5t-56 128.5v338q0 84 67 137.5t171 53.5t171 -53.5t67 -137.5v-40
h-138v48q0 34 -28.5 55t-71.5 21q-45 0 -72.5 -21t-27.5 -55v-354q0 -35 27.5 -55.5t72.5 -20.5q43 0 71.5 21t28.5 56v47z" />
    <glyph glyph-name="Egrave" unicode="&#xc8;" horiz-adv-x="495" 
d="M55 0v700h398v-107h-260v-185h230v-107h-230v-194h260v-107h-398zM186 895l173 -122l-27 -34l-202 86z" />
    <glyph glyph-name="Eacute" unicode="&#xc9;" horiz-adv-x="495" 
d="M55 0v700h398v-107h-260v-185h230v-107h-230v-194h260v-107h-398zM154 773l173 122l55 -70l-201 -86z" />
    <glyph glyph-name="Ecircumflex" unicode="&#xca;" horiz-adv-x="495" 
d="M55 0v700h398v-107h-260v-185h230v-107h-230v-194h260v-107h-398zM98 773l158 122l158 -122l-27 -34l-131 59l-131 -59z" />
    <glyph glyph-name="Edieresis" unicode="&#xcb;" horiz-adv-x="495" 
d="M55 0v700h398v-107h-260v-185h230v-107h-230v-194h260v-107h-398zM111 749v108h107v-108h-107zM294 749v108h107v-108h-107z" />
    <glyph glyph-name="Igrave" unicode="&#xcc;" horiz-adv-x="248" 
d="M55 0v700h138v-700h-138zM54 895l173 -122l-26 -34l-203 86z" />
    <glyph glyph-name="Iacute" unicode="&#xcd;" horiz-adv-x="248" 
d="M55 0v700h138v-700h-138zM22 773l173 122l56 -70l-202 -86z" />
    <glyph glyph-name="Icircumflex" unicode="&#xce;" horiz-adv-x="248" 
d="M55 0v700h138v-700h-138zM-34 773l158 122l158 -122l-27 -34l-131 59l-131 -59z" />
    <glyph glyph-name="Idieresis" unicode="&#xcf;" horiz-adv-x="248" 
d="M55 0v700h138v-700h-138zM-21 749v108h107v-108h-107zM162 749v108h107v-108h-107z" />
    <glyph glyph-name="Eth" unicode="&#xd0;" horiz-adv-x="571" 
d="M55 0v324h-52v69h52v307h231q104 0 170.5 -53.5t66.5 -137.5v-318q0 -84 -66.5 -137.5t-170.5 -53.5h-231zM290 393v-69h-97v-217h91q45 0 73 21t28 56v333q0 34 -28 55t-73 21h-91v-200h97z" />
    <glyph glyph-name="Ntilde" unicode="&#xd1;" horiz-adv-x="586" 
d="M188 0h-133v700h117l226 -420v420h133v-700h-117l-226 420v-420zM228 878q25 0 64 -16.5t53 -16.5t27.5 9t20.5 18l7 9l57 -41q-4 -9 -11 -21.5t-33 -33.5t-56 -21q-25 0 -63.5 16.5t-52.5 16.5t-28 -9t-21 -18l-7 -9l-57 41q1 3 3.5 8t12 18.5t20 23.5t28 18t36.5 8z
" />
    <glyph glyph-name="Ograve" unicode="&#xd2;" horiz-adv-x="572" 
d="M524 181q0 -84 -67 -137.5t-171 -53.5t-171 53.5t-67 137.5v338q0 84 67 137.5t171 53.5t171 -53.5t67 -137.5v-338zM386 174v353q0 34 -28.5 55t-71.5 21q-45 0 -72.5 -21t-27.5 -55v-354q0 -35 27.5 -55.5t72.5 -20.5q43 0 71.5 21t28.5 56zM215 895l173 -122l-26 -34
l-202 86z" />
    <glyph glyph-name="Oacute" unicode="&#xd3;" horiz-adv-x="572" 
d="M524 181q0 -84 -67 -137.5t-171 -53.5t-171 53.5t-67 137.5v338q0 84 67 137.5t171 53.5t171 -53.5t67 -137.5v-338zM386 174v353q0 34 -28.5 55t-71.5 21q-45 0 -72.5 -21t-27.5 -55v-354q0 -35 27.5 -55.5t72.5 -20.5q43 0 71.5 21t28.5 56zM184 773l173 122l55 -70
l-201 -86z" />
    <glyph glyph-name="Ocircumflex" unicode="&#xd4;" horiz-adv-x="572" 
d="M524 181q0 -84 -67 -137.5t-171 -53.5t-171 53.5t-67 137.5v338q0 84 67 137.5t171 53.5t171 -53.5t67 -137.5v-338zM386 174v353q0 34 -28.5 55t-71.5 21q-45 0 -72.5 -21t-27.5 -55v-354q0 -35 27.5 -55.5t72.5 -20.5q43 0 71.5 21t28.5 56zM128 773l158 122l158 -122
l-27 -34l-131 59l-131 -59z" />
    <glyph glyph-name="Otilde" unicode="&#xd5;" horiz-adv-x="572" 
d="M524 181q0 -84 -67 -137.5t-171 -53.5t-171 53.5t-67 137.5v338q0 84 67 137.5t171 53.5t171 -53.5t67 -137.5v-338zM386 174v353q0 34 -28.5 55t-71.5 21q-45 0 -72.5 -21t-27.5 -55v-354q0 -35 27.5 -55.5t72.5 -20.5q43 0 71.5 21t28.5 56zM221 878q25 0 64 -16.5
t53 -16.5t27.5 9t20.5 18l7 9l57 -41q-1 -3 -4 -8t-12 -18.5t-19.5 -23.5t-28 -18t-35.5 -8q-26 0 -64.5 16.5t-51.5 16.5q-14 0 -28 -9t-21 -18l-7 -9l-58 41q4 9 11 21.5t33 33.5t56 21z" />
    <glyph glyph-name="Odieresis" unicode="&#xd6;" horiz-adv-x="572" 
d="M524 181q0 -84 -67 -137.5t-171 -53.5t-171 53.5t-67 137.5v338q0 84 67 137.5t171 53.5t171 -53.5t67 -137.5v-338zM386 174v353q0 34 -28.5 55t-71.5 21q-45 0 -72.5 -21t-27.5 -55v-354q0 -35 27.5 -55.5t72.5 -20.5q43 0 71.5 21t28.5 56zM141 749v108h106v-108h-106
zM324 749v108h107v-108h-107z" />
    <glyph glyph-name="multiply" unicode="&#xd7;" horiz-adv-x="602" 
d="M420 522l68 -68l-116 -104l116 -104l-68 -68l-119 107l-119 -107l-68 68l115 104l-115 104l68 68l119 -108z" />
    <glyph glyph-name="Oslash" unicode="&#xd8;" horiz-adv-x="573" 
d="M30 -10l51 87q-33 46 -33 104v338q0 84 67 137.5t171 53.5q83 0 146 -36l21 36h89l-52 -88q34 -45 34 -103v-338q0 -84 -67 -137.5t-171 -53.5q-86 0 -145 35l-20 -35h-91zM186 527v-272l184 315q-27 33 -84 33q-45 0 -72.5 -21t-27.5 -55zM386 174v269l-184 -315
q26 -31 84 -31q43 0 71.5 21t28.5 56z" />
    <glyph glyph-name="Ugrave" unicode="&#xd9;" horiz-adv-x="583" 
d="M392 700h137v-519q0 -84 -66.5 -137.5t-170.5 -53.5q-105 0 -171.5 53.5t-66.5 137.5v519h137v-527q0 -35 28 -55.5t73 -20.5q43 0 71.5 21t28.5 56v526zM221 895l173 -122l-27 -34l-202 86z" />
    <glyph glyph-name="Uacute" unicode="&#xda;" horiz-adv-x="583" 
d="M392 700h137v-519q0 -84 -66.5 -137.5t-170.5 -53.5q-105 0 -171.5 53.5t-66.5 137.5v519h137v-527q0 -35 28 -55.5t73 -20.5q43 0 71.5 21t28.5 56v526zM189 773l173 122l55 -70l-201 -86z" />
    <glyph glyph-name="Ucircumflex" unicode="&#xdb;" horiz-adv-x="583" 
d="M392 700h137v-519q0 -84 -66.5 -137.5t-170.5 -53.5q-105 0 -171.5 53.5t-66.5 137.5v519h137v-527q0 -35 28 -55.5t73 -20.5q43 0 71.5 21t28.5 56v526zM134 773l158 122l158 -122l-27 -34l-131 59l-131 -59z" />
    <glyph glyph-name="Udieresis" unicode="&#xdc;" horiz-adv-x="583" 
d="M392 700h137v-519q0 -84 -66.5 -137.5t-170.5 -53.5q-105 0 -171.5 53.5t-66.5 137.5v519h137v-527q0 -35 28 -55.5t73 -20.5q43 0 71.5 21t28.5 56v526zM146 749v108h107v-108h-107zM329 749v108h107v-108h-107z" />
    <glyph glyph-name="Yacute" unicode="&#xdd;" horiz-adv-x="569" 
d="M214 0v261l-207 439h142l135 -301l136 301h142l-210 -439v-261h-138zM181 773l173 122l56 -70l-202 -86z" />
    <glyph glyph-name="Thorn" unicode="&#xde;" horiz-adv-x="555" 
d="M284 145h-91v-145h-138v700h138v-126h91q104 0 170.5 -53.5t66.5 -137.5v-46q0 -85 -66.5 -138.5t-170.5 -53.5zM282 467h-89v-214h89q101 0 101 76v62q0 34 -28 55t-73 21z" />
    <glyph glyph-name="germandbls" unicode="&#xdf;" horiz-adv-x="635" 
d="M48 0v540q0 72 55.5 116t146.5 44q90 0 137.5 -39.5t47.5 -101.5q0 -25 -9 -46.5t-22 -36t-26 -28t-22 -29.5t-9 -33q0 -28 36 -43l123 -52q46 -21 71.5 -60.5t25.5 -85.5q0 -69 -54.5 -112t-138.5 -43q-85 0 -137 43t-52 113v24h123v-31q0 -23 19.5 -37t50.5 -14
q30 0 49 13t19 35q0 36 -40 53l-124 51q-93 41 -93 140q0 33 13 59t28.5 40t28.5 33.5t13 39.5q0 51 -65 51q-29 0 -48 -13t-19 -36v-554h-128z" />
    <glyph glyph-name="agrave" unicode="&#xe0;" 
d="M164 360h-127v19q0 72 56.5 116.5t144.5 44.5t144.5 -45t56.5 -116v-379h-128v33q-55 -43 -126 -43q-67 0 -108 37t-41 104v33q0 71 55.5 114t145.5 47l74 3v59q0 25 -20.5 40t-52.5 15q-33 0 -53.5 -15t-20.5 -40v-27zM311 132v98l-71 -3q-36 -2 -56.5 -17t-20.5 -40
v-39q0 -20 20 -31.5t55 -11.5q32 0 52.5 12t20.5 32zM170 725l172 -122l-26 -34l-202 86z" />
    <glyph glyph-name="aacute" unicode="&#xe1;" 
d="M164 360h-127v19q0 72 56.5 116.5t144.5 44.5t144.5 -45t56.5 -116v-379h-128v33q-55 -43 -126 -43q-67 0 -108 37t-41 104v33q0 71 55.5 114t145.5 47l74 3v59q0 25 -20.5 40t-52.5 15q-33 0 -53.5 -15t-20.5 -40v-27zM311 132v98l-71 -3q-36 -2 -56.5 -17t-20.5 -40
v-39q0 -20 20 -31.5t55 -11.5q32 0 52.5 12t20.5 32zM138 603l173 122l55 -70l-201 -86z" />
    <glyph glyph-name="acircumflex" unicode="&#xe2;" 
d="M164 360h-127v19q0 72 56.5 116.5t144.5 44.5t144.5 -45t56.5 -116v-379h-128v33q-55 -43 -126 -43q-67 0 -108 37t-41 104v33q0 71 55.5 114t145.5 47l74 3v59q0 25 -20.5 40t-52.5 15q-33 0 -53.5 -15t-20.5 -40v-27zM83 603l158 122l158 -122l-27 -34l-131 59
l-131 -59zM311 132v98l-71 -3q-36 -2 -56.5 -17t-20.5 -40v-39q0 -20 20 -31.5t55 -11.5q32 0 52.5 12t20.5 32z" />
    <glyph glyph-name="atilde" unicode="&#xe3;" 
d="M164 360h-127v19q0 72 56.5 116.5t144.5 44.5t144.5 -45t56.5 -116v-379h-128v33q-55 -43 -126 -43q-67 0 -108 37t-41 104v33q0 71 55.5 114t145.5 47l74 3v59q0 25 -20.5 40t-52.5 15q-33 0 -53.5 -15t-20.5 -40v-27zM177 708q24 0 63 -16.5t53 -16.5t27.5 9t20.5 18
l7 9l57 -41q-1 -3 -3.5 -8t-12 -18.5t-20 -23.5t-27.5 -18t-36 -8q-25 0 -64 16.5t-52 16.5q-14 0 -28 -9t-21 -18l-7 -9l-58 41q1 3 4 8t12 18.5t20 23.5t28.5 18t36.5 8zM311 132v98l-71 -3q-36 -2 -56.5 -17t-20.5 -40v-39q0 -20 20 -31.5t55 -11.5q32 0 52.5 12t20.5 32
z" />
    <glyph glyph-name="adieresis" unicode="&#xe4;" 
d="M164 360h-127v19q0 72 56.5 116.5t144.5 44.5t144.5 -45t56.5 -116v-379h-128v33q-55 -43 -126 -43q-67 0 -108 37t-41 104v33q0 71 55.5 114t145.5 47l74 3v59q0 25 -20.5 40t-52.5 15q-33 0 -53.5 -15t-20.5 -40v-27zM311 132v98l-71 -3q-36 -2 -56.5 -17t-20.5 -40
v-39q0 -20 20 -31.5t55 -11.5q32 0 52.5 12t20.5 32zM96 579v108h107v-108h-107zM279 579v108h107v-108h-107z" />
    <glyph glyph-name="aring" unicode="&#xe5;" 
d="M164 360h-127v19q0 72 56.5 116.5t144.5 44.5t144.5 -45t56.5 -116v-379h-128v33q-55 -43 -126 -43q-67 0 -108 37t-41 104v33q0 71 55.5 114t145.5 47l74 3v59q0 25 -20.5 40t-52.5 15q-33 0 -53.5 -15t-20.5 -40v-27zM153 655q0 34 26.5 60t60.5 26q35 0 61 -25.5
t26 -60.5t-26 -61.5t-61 -26.5q-34 0 -60.5 27t-26.5 61zM311 132v98l-71 -3q-36 -2 -56.5 -17t-20.5 -40v-39q0 -20 20 -31.5t55 -11.5q32 0 52.5 12t20.5 32zM209 655q0 -14 8.5 -23t22.5 -9t23 9t9 23q0 13 -9.5 22t-22.5 9t-22 -9t-9 -22z" />
    <glyph glyph-name="ae" unicode="&#xe6;" horiz-adv-x="753" 
d="M717 231h-277v-88q0 -25 21 -40t54 -15t54 15t21 40v22h127v-14q0 -72 -56.5 -116.5t-145.5 -44.5q-100 0 -156 50q-52 -50 -150 -50q-81 0 -127 38.5t-46 107.5v24q0 71 56.5 115t145.5 48l74 3v61q0 25 -21 40t-52 15q-33 0 -53.5 -15t-20.5 -40v-27h-127v19
q0 72 56.5 116.5t144.5 44.5q81 0 137 -40q56 40 139 40q89 0 145.5 -44.5t56.5 -116.5v-148zM312 132v96l-72 -3q-35 -2 -55.5 -18t-20.5 -41v-35q0 -20 20 -31.5t53 -11.5t54 11.5t21 32.5zM590 329v58q0 25 -21 40t-54 15t-54 -15t-21 -40v-58h150z" />
    <glyph glyph-name="ccedilla" unicode="&#xe7;" horiz-adv-x="481" 
d="M319 350v37q0 25 -21 40t-54 15t-54 -15t-21 -40v-244q0 -25 21 -40t54 -15t54 15t21 40v37h127v-29q0 -66 -48.5 -109.5t-126.5 -50.5l-4 -27q28 0 48 -19t20 -49q0 -31 -24 -50t-66 -19q-30 0 -54.5 10t-34.5 20l-10 10l16 30q30 -22 62 -22q36 0 36 24q0 29 -59 29
l10 64q-76 8 -122.5 51t-46.5 108v228q0 72 57 116.5t145 44.5q89 0 145.5 -44.5t56.5 -116.5v-29h-127z" />
    <glyph glyph-name="egrave" unicode="&#xe8;" 
d="M42 151v228q0 72 57 116.5t145 44.5q89 0 145.5 -44.5t56.5 -116.5v-158h-277v-78q0 -25 21 -40t54 -15t54 15t21 40v22h127v-14q0 -72 -56.5 -116.5t-145.5 -44.5q-88 0 -145 44.5t-57 116.5zM244 442q-33 0 -54 -15t-21 -40v-68h150v68q0 25 -21 40t-54 15zM170 725
l172 -122l-26 -34l-202 86z" />
    <glyph glyph-name="eacute" unicode="&#xe9;" 
d="M42 151v228q0 72 57 116.5t145 44.5q89 0 145.5 -44.5t56.5 -116.5v-158h-277v-78q0 -25 21 -40t54 -15t54 15t21 40v22h127v-14q0 -72 -56.5 -116.5t-145.5 -44.5q-88 0 -145 44.5t-57 116.5zM244 442q-33 0 -54 -15t-21 -40v-68h150v68q0 25 -21 40t-54 15zM138 603
l173 122l55 -70l-201 -86z" />
    <glyph glyph-name="ecircumflex" unicode="&#xea;" 
d="M42 151v228q0 72 57 116.5t145 44.5q89 0 145.5 -44.5t56.5 -116.5v-158h-277v-78q0 -25 21 -40t54 -15t54 15t21 40v22h127v-14q0 -72 -56.5 -116.5t-145.5 -44.5q-88 0 -145 44.5t-57 116.5zM83 603l158 122l158 -122l-27 -34l-131 59l-131 -59zM244 442q-33 0 -54 -15
t-21 -40v-68h150v68q0 25 -21 40t-54 15z" />
    <glyph glyph-name="edieresis" unicode="&#xeb;" 
d="M42 151v228q0 72 57 116.5t145 44.5q89 0 145.5 -44.5t56.5 -116.5v-158h-277v-78q0 -25 21 -40t54 -15t54 15t21 40v22h127v-14q0 -72 -56.5 -116.5t-145.5 -44.5q-88 0 -145 44.5t-57 116.5zM244 442q-33 0 -54 -15t-21 -40v-68h150v68q0 25 -21 40t-54 15zM96 579v108
h107v-108h-107zM279 579v108h107v-108h-107z" />
    <glyph glyph-name="igrave" unicode="&#xec;" horiz-adv-x="224" 
d="M42 725l173 -122l-27 -34l-202 86zM48 0v530h128v-530h-128z" />
    <glyph glyph-name="iacute" unicode="&#xed;" horiz-adv-x="224" 
d="M10 603l173 122l55 -70l-201 -86zM48 0v530h128v-530h-128z" />
    <glyph glyph-name="icircumflex" unicode="&#xee;" horiz-adv-x="224" 
d="M48 0v530h128v-530h-128zM-46 603l158 122l158 -122l-27 -34l-131 59l-131 -59z" />
    <glyph glyph-name="idieresis" unicode="&#xef;" horiz-adv-x="224" 
d="M-33 579v108h107v-108h-107zM151 579v108h107v-108h-107zM48 0v530h128v-530h-128z" />
    <glyph glyph-name="eth" unicode="&#xf0;" horiz-adv-x="488" 
d="M138 594l28 41q-41 7 -99 7v68q79 0 143 -11l33 48l55 -27l-25 -36q93 -30 133 -103t40 -202v-228q0 -72 -56.5 -116.5t-145.5 -44.5q-88 0 -145 44.5t-57 116.5v228q0 72 57 116.5t145 44.5q28 0 55 -6q-22 58 -74 82l-34 -49zM319 143v244q0 25 -21 40t-54 15t-54 -15
t-21 -40v-244q0 -23 21.5 -39t53.5 -16t53.5 16t21.5 39z" />
    <glyph glyph-name="ntilde" unicode="&#xf1;" horiz-adv-x="499" 
d="M176 398v-398h-128v530h128v-33q56 43 126 43q67 0 108 -37.5t41 -104.5v-398h-127v398q0 21 -20.5 32.5t-53.5 11.5t-53.5 -11.5t-20.5 -32.5zM185 708q25 0 64 -16.5t53 -16.5t27.5 9t20.5 18l6 9l57 -41q-1 -3 -3.5 -8t-12 -18.5t-20 -23.5t-27.5 -18t-36 -8
q-25 0 -63.5 16.5t-52.5 16.5t-28 -9t-21 -18l-7 -9l-57 41q1 3 3.5 8t12 18.5t20 23.5t28 18t36.5 8z" />
    <glyph glyph-name="ograve" unicode="&#xf2;" horiz-adv-x="488" 
d="M446 151q0 -72 -56.5 -116.5t-145.5 -44.5q-88 0 -145 44.5t-57 116.5v228q0 72 57 116.5t145 44.5q89 0 145.5 -44.5t56.5 -116.5v-228zM319 143v244q0 25 -21 40t-54 15t-54 -15t-21 -40v-244q0 -25 21 -40t54 -15t54 15t21 40zM173 725l173 -122l-26 -34l-202 86z" />
    <glyph glyph-name="oacute" unicode="&#xf3;" horiz-adv-x="488" 
d="M446 151q0 -72 -56.5 -116.5t-145.5 -44.5q-88 0 -145 44.5t-57 116.5v228q0 72 57 116.5t145 44.5q89 0 145.5 -44.5t56.5 -116.5v-228zM319 143v244q0 25 -21 40t-54 15t-54 -15t-21 -40v-244q0 -25 21 -40t54 -15t54 15t21 40zM141 603l173 122l56 -70l-202 -86z" />
    <glyph glyph-name="ocircumflex" unicode="&#xf4;" horiz-adv-x="488" 
d="M446 151q0 -72 -56.5 -116.5t-145.5 -44.5q-88 0 -145 44.5t-57 116.5v228q0 72 57 116.5t145 44.5q89 0 145.5 -44.5t56.5 -116.5v-228zM319 143v244q0 25 -21 40t-54 15t-54 -15t-21 -40v-244q0 -25 21 -40t54 -15t54 15t21 40zM86 603l158 122l158 -122l-27 -34
l-131 59l-131 -59z" />
    <glyph glyph-name="otilde" unicode="&#xf5;" horiz-adv-x="488" 
d="M446 151q0 -72 -56.5 -116.5t-145.5 -44.5q-88 0 -145 44.5t-57 116.5v228q0 72 57 116.5t145 44.5q89 0 145.5 -44.5t56.5 -116.5v-228zM319 143v244q0 25 -21 40t-54 15t-54 -15t-21 -40v-244q0 -25 21 -40t54 -15t54 15t21 40zM179 708q24 0 63 -16.5t53 -16.5t27.5 9
t20.5 18l7 9l57 -41q-1 -3 -3.5 -8t-12 -18.5t-20 -23.5t-27.5 -18t-36 -8q-25 0 -64 16.5t-52 16.5q-14 0 -28 -9t-21 -18l-7 -9l-58 41q1 3 4 8t12 18.5t20 23.5t28.5 18t36.5 8z" />
    <glyph glyph-name="odieresis" unicode="&#xf6;" horiz-adv-x="488" 
d="M446 151q0 -72 -56.5 -116.5t-145.5 -44.5q-88 0 -145 44.5t-57 116.5v228q0 72 57 116.5t145 44.5q89 0 145.5 -44.5t56.5 -116.5v-228zM319 143v244q0 25 -21 40t-54 15t-54 -15t-21 -40v-244q0 -25 21 -40t54 -15t54 15t21 40zM98 579v108h107v-108h-107zM282 579v108
h107v-108h-107z" />
    <glyph glyph-name="divide" unicode="&#xf7;" horiz-adv-x="602" 
d="M85 301v98h432v-98h-432zM237 115v129h128v-129h-128zM237 456v129h128v-129h-128z" />
    <glyph glyph-name="oslash" unicode="&#xf8;" horiz-adv-x="488" 
d="M25 -10l46 71q-29 38 -29 90v228q0 72 56.5 116.5t145.5 44.5q71 0 121 -29l19 29h76l-46 -70q32 -40 32 -91v-228q0 -72 -57 -116.5t-145 -44.5q-70 0 -124 30l-19 -30h-76zM319 143v181l-139 -213q20 -23 64 -23q32 0 53.5 15t21.5 40zM169 387v-176l136 209
q-20 22 -61 22q-33 0 -54 -15t-21 -40z" />
    <glyph glyph-name="ugrave" unicode="&#xf9;" horiz-adv-x="500" 
d="M451 530v-530h-127v33q-55 -43 -126 -43q-67 0 -108.5 37.5t-41.5 104.5v398h128v-398q0 -21 20 -32.5t54 -11.5q69 0 74 40v402h127zM179 725l173 -122l-26 -34l-203 86z" />
    <glyph glyph-name="uacute" unicode="&#xfa;" horiz-adv-x="500" 
d="M451 530v-530h-127v33q-55 -43 -126 -43q-67 0 -108.5 37.5t-41.5 104.5v398h128v-398q0 -21 20 -32.5t54 -11.5q69 0 74 40v402h127zM147 603l173 122l56 -70l-202 -86z" />
    <glyph glyph-name="ucircumflex" unicode="&#xfb;" horiz-adv-x="500" 
d="M451 530v-530h-127v33q-55 -43 -126 -43q-67 0 -108.5 37.5t-41.5 104.5v398h128v-398q0 -21 20 -32.5t54 -11.5q69 0 74 40v402h127zM92 603l158 122l158 -122l-27 -34l-131 59l-131 -59z" />
    <glyph glyph-name="udieresis" unicode="&#xfc;" horiz-adv-x="500" 
d="M324 132v398h127v-530h-127v33q-55 -43 -126 -43q-67 0 -108.5 37.5t-41.5 104.5v398h128v-398q0 -21 20 -32.5t54 -11.5q33 0 53.5 11.5t20.5 32.5zM104 579v108h107v-108h-107zM288 579v108h106v-108h-106z" />
    <glyph glyph-name="yacute" unicode="&#xfd;" horiz-adv-x="461" 
d="M458 530l-231 -730h-116l59 192l-167 538h123l103 -344l106 344h123zM128 603l173 122l55 -70l-202 -86z" />
    <glyph glyph-name="thorn" unicode="&#xfe;" horiz-adv-x="493" 
d="M48 -200v900h128v-203q56 43 123 43q69 0 110.5 -41t41.5 -110v-248q0 -69 -41.5 -110t-110.5 -41t-123 42v-232h-128zM250 88q32 0 53 16t21 37v248q0 21 -21 37t-53 16t-53 -13t-21 -31v-266q0 -18 21 -31t53 -13z" />
    <glyph glyph-name="ydieresis" unicode="&#xff;" horiz-adv-x="461" 
d="M458 530l-231 -730h-116l59 192l-167 538h123l103 -344l106 344h123zM269 579v108h107v-108h-107zM85 579v108h107v-108h-107z" />
    <glyph glyph-name="Amacron" unicode="&#x100;" horiz-adv-x="594" 
d="M149 0h-142l219 700h141l220 -700h-142l-33 118h-231zM296 533l-85 -308h171zM172 822h250v-68h-250v68z" />
    <glyph glyph-name="amacron" unicode="&#x101;" 
d="M164 360h-127v19q0 72 56.5 116.5t144.5 44.5t144.5 -45t56.5 -116v-379h-128v33q-55 -43 -126 -43q-67 0 -108 37t-41 104v33q0 71 55.5 114t145.5 47l74 3v59q0 25 -20.5 40t-52.5 15q-33 0 -53.5 -15t-20.5 -40v-27zM238 88q30 0 50.5 10.5t22.5 29.5v102l-71 -3
q-36 -2 -56.5 -17t-20.5 -40v-39q0 -20 20 -31.5t55 -11.5zM115 652h251v-68h-251v68z" />
    <glyph glyph-name="Abreve" unicode="&#x102;" horiz-adv-x="594" 
d="M149 0h-142l219 700h141l220 -700h-142l-33 118h-231zM296 533l-85 -308h171zM360 881h83q0 -57 -40 -89.5t-107 -32.5q-65 0 -105 32.5t-40 89.5h84q0 -56 61 -56q64 0 64 56z" />
    <glyph glyph-name="abreve" unicode="&#x103;" 
d="M164 360h-127v19q0 72 56.5 116.5t144.5 44.5t144.5 -45t56.5 -116v-379h-128v33q-55 -43 -126 -43q-67 0 -108 37t-41 104v33q0 71 55.5 114t145.5 47l74 3v59q0 25 -20.5 40t-52.5 15q-33 0 -53.5 -15t-20.5 -40v-27zM303 711h84q0 -57 -40.5 -89.5t-106.5 -32.5
q-65 0 -105 32.5t-40 89.5h84q0 -56 61 -56q63 0 63 56zM238 88q30 0 50.5 10.5t22.5 29.5v102l-71 -3q-36 -2 -56.5 -17t-20.5 -40v-39q0 -20 20 -31.5t55 -11.5z" />
    <glyph glyph-name="Aogonek" unicode="&#x104;" horiz-adv-x="594" 
d="M149 0h-142l219 700h141l220 -700h-48q-42 -42 -42 -77q0 -29 35 -29q13 0 24.5 5.5t15.5 10.5l5 6l17 -31q-3 -4 -9 -10.5t-28 -17.5t-50 -11q-36 0 -61 16.5t-25 48.5q0 48 53 89h-29l-33 118h-231zM296 533l-85 -308h171z" />
    <glyph glyph-name="aogonek" unicode="&#x105;" 
d="M369 -154q-36 0 -61 16.5t-25 48.5q0 49 52 89h-24v33q-55 -43 -126 -43q-67 0 -108 37t-41 104v33q0 71 55.5 114t145.5 47l74 3v59q0 25 -20.5 40t-52.5 15q-33 0 -53.5 -15t-20.5 -40v-27h-127v19q0 72 56.5 116.5t144.5 44.5t144.5 -45t56.5 -116v-379h-38
q-43 -43 -43 -77q0 -29 36 -29q13 0 24 5.5t16 10.5l5 6l16 -31q-3 -4 -8.5 -10.5t-28 -17.5t-49.5 -11zM238 88q30 0 50.5 10.5t22.5 29.5v102l-71 -3q-36 -2 -56.5 -17t-20.5 -40v-39q0 -20 20 -31.5t55 -11.5z" />
    <glyph glyph-name="Cacute" unicode="&#x106;" horiz-adv-x="560" 
d="M386 221h138v-40q0 -84 -67 -137.5t-171 -53.5t-171 53.5t-67 137.5v338q0 84 67 137.5t171 53.5t171 -53.5t67 -137.5v-40h-138v48q0 34 -28.5 55t-71.5 21q-45 0 -72.5 -21t-27.5 -55v-354q0 -35 27.5 -55.5t72.5 -20.5q43 0 71.5 21t28.5 56v47zM178 773l173 122
l55 -70l-201 -86z" />
    <glyph glyph-name="cacute" unicode="&#x107;" horiz-adv-x="481" 
d="M319 350v37q0 25 -21 40t-54 15t-54 -15t-21 -40v-244q0 -25 21 -40t54 -15t54 15t21 40v37h127v-29q0 -72 -56.5 -116.5t-145.5 -44.5q-88 0 -145 44.5t-57 116.5v228q0 72 57 116.5t145 44.5q89 0 145.5 -44.5t56.5 -116.5v-29h-127zM138 603l172 122l56 -70l-202 -86z
" />
    <glyph glyph-name="Ccircumflex" unicode="&#x108;" horiz-adv-x="560" 
d="M386 221h138v-40q0 -84 -67 -137.5t-171 -53.5t-171 53.5t-67 137.5v338q0 84 67 137.5t171 53.5t171 -53.5t67 -137.5v-40h-138v48q0 34 -28.5 55t-71.5 21q-45 0 -72.5 -21t-27.5 -55v-354q0 -35 27.5 -55.5t72.5 -20.5q43 0 71.5 21t28.5 56v47zM122 773l158 122
l158 -122l-27 -34l-131 59l-131 -59z" />
    <glyph glyph-name="ccircumflex" unicode="&#x109;" horiz-adv-x="481" 
d="M319 350v37q0 25 -21 40t-54 15t-54 -15t-21 -40v-244q0 -25 21 -40t54 -15t54 15t21 40v37h127v-29q0 -72 -56.5 -116.5t-145.5 -44.5q-88 0 -145 44.5t-57 116.5v228q0 72 57 116.5t145 44.5q89 0 145.5 -44.5t56.5 -116.5v-29h-127zM83 603l157 122l158 -122l-26 -34
l-132 59l-131 -59z" />
    <glyph glyph-name="Cdotaccent" unicode="&#x10a;" horiz-adv-x="560" 
d="M386 221h138v-40q0 -84 -67 -137.5t-171 -53.5t-171 53.5t-67 137.5v338q0 84 67 137.5t171 53.5t171 -53.5t67 -137.5v-40h-138v48q0 34 -28.5 55t-71.5 21q-45 0 -72.5 -21t-27.5 -55v-354q0 -35 27.5 -55.5t72.5 -20.5q43 0 71.5 21t28.5 56v47zM222 749v109h116v-109
h-116z" />
    <glyph glyph-name="cdotaccent" unicode="&#x10b;" horiz-adv-x="481" 
d="M319 350v37q0 25 -21 40t-54 15t-54 -15t-21 -40v-244q0 -25 21 -40t54 -15t54 15t21 40v37h127v-29q0 -72 -56.5 -116.5t-145.5 -44.5q-88 0 -145 44.5t-57 116.5v228q0 72 57 116.5t145 44.5q89 0 145.5 -44.5t56.5 -116.5v-29h-127zM182 579v109h116v-109h-116z" />
    <glyph glyph-name="Ccaron" unicode="&#x10c;" horiz-adv-x="560" 
d="M386 221h138v-40q0 -84 -67 -137.5t-171 -53.5t-171 53.5t-67 137.5v338q0 84 67 137.5t171 53.5t171 -53.5t67 -137.5v-40h-138v48q0 34 -28.5 55t-71.5 21q-45 0 -72.5 -21t-27.5 -55v-354q0 -35 27.5 -55.5t72.5 -20.5q43 0 71.5 21t28.5 56v47zM438 872l-158 -123
l-158 123l27 33l131 -59l131 59z" />
    <glyph glyph-name="ccaron" unicode="&#x10d;" horiz-adv-x="481" 
d="M319 350v37q0 25 -21 40t-54 15t-54 -15t-21 -40v-244q0 -25 21 -40t54 -15t54 15t21 40v37h127v-29q0 -72 -56.5 -116.5t-145.5 -44.5q-88 0 -145 44.5t-57 116.5v228q0 72 57 116.5t145 44.5q89 0 145.5 -44.5t56.5 -116.5v-29h-127zM398 702l-158 -123l-157 123l26 33
l131 -59l132 59z" />
    <glyph glyph-name="Dcaron" unicode="&#x10e;" horiz-adv-x="571" 
d="M286 0h-231v700h231q104 0 170.5 -53.5t66.5 -137.5v-318q0 -84 -66.5 -137.5t-170.5 -53.5zM284 593h-91v-486h91q45 0 73.5 21t28.5 56v333q0 34 -28.5 55t-73.5 21zM443 872l-158 -123l-157 123l26 33l131 -59l132 59z" />
    <glyph glyph-name="dcaron" unicode="&#x10f;" horiz-adv-x="616" 
d="M445 0h-127v33q-57 -43 -124 -43q-68 0 -110 41t-42 110v248q0 69 42 110t110 41t124 -44v204h127v-700zM244 88q31 0 52.5 13t21.5 31v269q-2 17 -23 29t-51 12q-32 0 -53.5 -16t-21.5 -37v-248q0 -21 21.5 -37t53.5 -16zM498 524l28 176h111l-79 -191z" />
    <glyph glyph-name="Dcroat" unicode="&#x110;" horiz-adv-x="571" 
d="M55 0v324h-52v69h52v307h231q104 0 170.5 -53.5t66.5 -137.5v-318q0 -84 -66.5 -137.5t-170.5 -53.5h-231zM290 393v-69h-97v-217h91q45 0 73 21t28 56v333q0 34 -28 55t-73 21h-91v-200h97z" />
    <glyph glyph-name="dcroat" unicode="&#x111;" horiz-adv-x="499" 
d="M445 0h-127v33q-57 -43 -124 -43q-68 0 -110 41t-42 110v248q0 69 42 110t110 41t124 -44v91h-124v68h124v45h127v-45h45v-68h-45v-587zM244 88q30 0 51 11.5t23 28.5v270q0 18 -21.5 31t-52.5 13q-32 0 -53.5 -16t-21.5 -37v-248q0 -21 21.5 -37t53.5 -16z" />
    <glyph glyph-name="Emacron" unicode="&#x112;" horiz-adv-x="495" 
d="M55 0v700h398v-107h-260v-185h230v-107h-230v-194h260v-107h-398zM130 822h251v-68h-251v68z" />
    <glyph glyph-name="emacron" unicode="&#x113;" 
d="M42 151v228q0 72 57 116.5t145 44.5q89 0 145.5 -44.5t56.5 -116.5v-158h-277v-78q0 -25 21 -40t54 -15t54 15t21 40v22h127v-14q0 -72 -56.5 -116.5t-145.5 -44.5q-88 0 -145 44.5t-57 116.5zM115 652h251v-68h-251v68zM244 442q-33 0 -54 -15t-21 -40v-68h150v68
q0 25 -21 40t-54 15z" />
    <glyph glyph-name="Ebreve" unicode="&#x114;" horiz-adv-x="495" 
d="M55 0v700h398v-107h-260v-185h230v-107h-230v-194h260v-107h-398zM319 881h83q0 -57 -40 -89.5t-106 -32.5t-106 32.5t-40 89.5h84q0 -56 62 -56q63 0 63 56z" />
    <glyph glyph-name="ebreve" unicode="&#x115;" 
d="M42 151v228q0 72 57 116.5t145 44.5q89 0 145.5 -44.5t56.5 -116.5v-158h-277v-78q0 -25 21 -40t54 -15t54 15t21 40v22h127v-14q0 -72 -56.5 -116.5t-145.5 -44.5q-88 0 -145 44.5t-57 116.5zM303 711h84q0 -57 -40.5 -89.5t-106.5 -32.5q-65 0 -105 32.5t-40 89.5h84
q0 -56 61 -56q63 0 63 56zM244 442q-33 0 -54 -15t-21 -40v-68h150v68q0 25 -21 40t-54 15z" />
    <glyph glyph-name="Edotaccent" unicode="&#x116;" horiz-adv-x="495" 
d="M453 107v-107h-398v700h398v-107h-260v-185h230v-107h-230v-194h260zM198 749v109h117v-109h-117z" />
    <glyph glyph-name="edotaccent" unicode="&#x117;" 
d="M42 151v228q0 72 57 116.5t145 44.5q89 0 145.5 -44.5t56.5 -116.5v-158h-277v-78q0 -25 21 -40t54 -15t54 15t21 40v22h127v-14q0 -72 -56.5 -116.5t-145.5 -44.5q-88 0 -145 44.5t-57 116.5zM244 442q-33 0 -54 -15t-21 -40v-68h150v68q0 25 -21 40t-54 15zM182 579
v109h116v-109h-116z" />
    <glyph glyph-name="Eogonek" unicode="&#x118;" horiz-adv-x="495" 
d="M337 -154q-36 0 -61 16.5t-25 48.5q0 49 52 89h-248v700h398v-107h-260v-185h230v-107h-230v-194h260v-107h-84q-42 -42 -42 -77q0 -29 35 -29q13 0 24.5 5.5t15.5 10.5l5 6l17 -31q-3 -4 -9 -10.5t-28.5 -17.5t-49.5 -11z" />
    <glyph glyph-name="eogonek" unicode="&#x119;" 
d="M42 151v228q0 72 57 116.5t145 44.5q89 0 145.5 -44.5t56.5 -116.5v-158h-277v-78q0 -25 21 -40t54 -15t54 15t21 40v22h127v-14q0 -57 -36 -97.5t-98 -55.5q-40 -40 -40 -75q0 -29 35 -29q13 0 24.5 5.5t16.5 10.5l4 6l17 -31q-3 -4 -9 -10.5t-28 -17.5t-50 -11
q-36 0 -61 16.5t-25 48.5q0 40 41 79q-86 2 -140.5 46.5t-54.5 114.5zM244 442q-33 0 -54 -15t-21 -40v-68h150v68q0 25 -21 40t-54 15z" />
    <glyph glyph-name="Ecaron" unicode="&#x11a;" horiz-adv-x="495" 
d="M55 0v700h398v-107h-260v-185h230v-107h-230v-194h260v-107h-398zM414 872l-158 -123l-158 123l27 33l131 -59l131 59z" />
    <glyph glyph-name="ecaron" unicode="&#x11b;" 
d="M42 151v228q0 72 57 116.5t145 44.5q89 0 145.5 -44.5t56.5 -116.5v-158h-277v-78q0 -25 21 -40t54 -15t54 15t21 40v22h127v-14q0 -72 -56.5 -116.5t-145.5 -44.5q-88 0 -145 44.5t-57 116.5zM399 702l-158 -123l-158 123l27 33l131 -59l131 59zM244 442q-33 0 -54 -15
t-21 -40v-68h150v68q0 25 -21 40t-54 15z" />
    <glyph glyph-name="Gcircumflex" unicode="&#x11c;" horiz-adv-x="571" 
d="M290 390h234v-209q0 -84 -67 -137.5t-171 -53.5t-171 53.5t-67 137.5v338q0 84 67 137.5t171 53.5t171 -53.5t67 -137.5v-40h-138v48q0 34 -28.5 55t-71.5 21q-45 0 -72.5 -21t-27.5 -55v-354q0 -35 27.5 -55.5t72.5 -20.5q43 0 71.5 21t28.5 56v108h-96v108zM127 773
l158 122l158 -122l-27 -34l-131 59l-131 -59z" />
    <glyph glyph-name="gcircumflex" unicode="&#x11d;" horiz-adv-x="493" 
d="M242 -112q34 0 55 16.5t21 42.5v86q-53 -43 -123 -43q-69 0 -111 41t-42 110v248q0 69 42 110t111 41q67 0 123 -43v33h127v-575q0 -72 -57 -118.5t-145 -46.5q-83 0 -142 41t-59 105v9h127v-9q0 -21 21.5 -34.5t51.5 -13.5zM246 88q30 0 51 12t21 32v266q0 20 -21 32
t-51 12q-35 0 -56 -16t-21 -37v-248q0 -21 21 -37t56 -16zM87 603l158 122l158 -122l-27 -34l-131 59l-131 -59z" />
    <glyph glyph-name="Gbreve" unicode="&#x11e;" horiz-adv-x="571" 
d="M290 390h234v-209q0 -84 -67 -137.5t-171 -53.5t-171 53.5t-67 137.5v338q0 84 67 137.5t171 53.5t171 -53.5t67 -137.5v-40h-138v48q0 34 -28.5 55t-71.5 21q-45 0 -72.5 -21t-27.5 -55v-354q0 -35 27.5 -55.5t72.5 -20.5q43 0 71.5 21t28.5 56v108h-96v108zM347 881h84
q0 -57 -40.5 -89.5t-106.5 -32.5q-65 0 -105 32.5t-40 89.5h84q0 -56 61 -56q63 0 63 56z" />
    <glyph glyph-name="gbreve" unicode="&#x11f;" horiz-adv-x="493" 
d="M242 -112q34 0 55 16.5t21 42.5v86q-53 -43 -123 -43q-69 0 -111 41t-42 110v248q0 69 42 110t111 41q67 0 123 -43v33h127v-575q0 -72 -57 -118.5t-145 -46.5q-83 0 -142 41t-59 105v9h127v-9q0 -21 21.5 -34.5t51.5 -13.5zM246 88q30 0 51 12t21 32v268q-1 19 -22 30.5
t-50 11.5q-35 0 -56 -16t-21 -37v-248q0 -21 21 -37t56 -16zM309 711h83q0 -57 -40 -89.5t-106 -32.5q-65 0 -105.5 32.5t-40.5 89.5h84q0 -56 62 -56q63 0 63 56z" />
    <glyph glyph-name="Gdotaccent" unicode="&#x120;" horiz-adv-x="571" 
d="M290 390h234v-209q0 -84 -67 -137.5t-171 -53.5t-171 53.5t-67 137.5v338q0 84 67 137.5t171 53.5t171 -53.5t67 -137.5v-40h-138v48q0 34 -28.5 55t-71.5 21q-45 0 -72.5 -21t-27.5 -55v-354q0 -35 27.5 -55.5t72.5 -20.5q43 0 71.5 21t28.5 56v108h-96v108zM227 749
v109h116v-109h-116z" />
    <glyph glyph-name="gdotaccent" unicode="&#x121;" horiz-adv-x="493" 
d="M242 -112q34 0 55 16.5t21 42.5v86q-53 -43 -123 -43q-69 0 -111 41t-42 110v248q0 69 42 110t111 41q67 0 123 -43v33h127v-575q0 -72 -57 -118.5t-145 -46.5q-83 0 -142 41t-59 105v9h127v-9q0 -21 21.5 -34.5t51.5 -13.5zM246 88q30 0 51 12t21 32v268q-1 19 -22 30.5
t-50 11.5q-35 0 -56 -16t-21 -37v-248q0 -21 21 -37t56 -16zM187 579v109h117v-109h-117z" />
    <glyph glyph-name="Gcommaaccent" unicode="&#x122;" horiz-adv-x="571" 
d="M290 390h234v-209q0 -84 -67 -137.5t-171 -53.5t-171 53.5t-67 137.5v338q0 84 67 137.5t171 53.5t171 -53.5t67 -137.5v-40h-138v48q0 34 -28.5 55t-71.5 21q-45 0 -72.5 -21t-27.5 -55v-354q0 -35 27.5 -55.5t72.5 -20.5q43 0 71.5 21t28.5 56v108h-96v108zM220 -189
l28 143h103l-75 -157z" />
    <glyph glyph-name="gcommaaccent" unicode="&#x123;" horiz-adv-x="493" 
d="M242 -112q34 0 55 16.5t21 42.5v86q-53 -43 -123 -43q-69 0 -111 41t-42 110v248q0 69 42 110t111 41q67 0 123 -43v33h127v-575q0 -72 -57 -118.5t-145 -46.5q-83 0 -142 41t-59 105v9h127v-9q0 -21 21.5 -34.5t51.5 -13.5zM246 88q29 0 50 11.5t22 30.5v270
q-1 19 -22 30.5t-50 11.5q-35 0 -56 -16t-21 -37v-248q0 -21 21 -37t56 -16zM301 773l-29 -175h-110l79 191z" />
    <glyph glyph-name="Hcircumflex" unicode="&#x124;" horiz-adv-x="597" 
d="M193 0h-138v700h138v-292h212v292h137v-700h-137v301h-212v-301zM141 773l158 122l158 -122l-27 -34l-131 59l-131 -59z" />
    <glyph glyph-name="hcircumflex" unicode="&#x125;" horiz-adv-x="500" 
d="M48 0v700h128v-203q56 43 126 43q67 0 108 -37.5t41 -104.5v-398h-127v398q0 21 -20.5 32.5t-53.5 11.5q-31 0 -51.5 -10.5t-22.5 -29.5v-402h-128zM-49 748l158 123l158 -123l-27 -33l-131 58l-131 -58z" />
    <glyph glyph-name="Hbar" unicode="&#x126;" horiz-adv-x="597" 
d="M193 0h-138v561h-52v69h52v70h138v-70h211v70h138v-70h52v-69h-52v-561h-138v301h-211v-301zM193 561v-153h211v153h-211z" />
    <glyph glyph-name="hbar" unicode="&#x127;" horiz-adv-x="500" 
d="M176 398v-398h-127v578h-41v68h41v54h127v-54h141v-68h-141v-81q56 43 126 43q67 0 108 -37.5t41 -104.5v-398h-127v398q0 21 -20.5 32.5t-53.5 11.5t-53.5 -11.5t-20.5 -32.5z" />
    <glyph glyph-name="Itilde" unicode="&#x128;" horiz-adv-x="248" 
d="M55 0v700h138v-700h-138zM60 878q25 0 64 -16.5t53 -16.5t27.5 9t20.5 18l7 9l57 -41q-4 -9 -11 -21.5t-33 -33.5t-56 -21q-25 0 -63.5 16.5t-51.5 16.5q-14 0 -28.5 -9t-21.5 -18l-7 -9l-57 41q1 3 3.5 8t12 18.5t20 23.5t28 18t36.5 8z" />
    <glyph glyph-name="itilde" unicode="&#x129;" horiz-adv-x="224" 
d="M48 0v530h128v-530h-128zM48 708q25 0 64 -16.5t53 -16.5t27.5 9t20.5 18l7 9l57 -41q-4 -9 -11 -21.5t-33 -33.5t-56 -21q-25 0 -63.5 16.5t-52.5 16.5t-28 -9t-21 -18l-7 -9l-57 41q1 3 3.5 8t12 18.5t20 23.5t28 18t36.5 8z" />
    <glyph glyph-name="Imacron" unicode="&#x12a;" horiz-adv-x="248" 
d="M55 0v700h138v-700h-138zM-1 822h251v-68h-251v68z" />
    <glyph glyph-name="imacron" unicode="&#x12b;" horiz-adv-x="224" 
d="M-12 652h250v-68h-250v68zM48 0v530h128v-530h-128z" />
    <glyph glyph-name="Ibreve" unicode="&#x12c;" horiz-adv-x="248" 
d="M55 0v700h138v-700h-138zM187 881h84q0 -57 -40.5 -89.5t-106.5 -32.5q-65 0 -105 32.5t-40 89.5h84q0 -56 61 -56q63 0 63 56z" />
    <glyph glyph-name="ibreve" unicode="&#x12d;" horiz-adv-x="224" 
d="M175 711h84q0 -57 -40.5 -89.5t-106.5 -32.5q-65 0 -105.5 32.5t-40.5 89.5h84q0 -56 62 -56q63 0 63 56zM48 0v530h128v-530h-128z" />
    <glyph glyph-name="Iogonek" unicode="&#x12e;" horiz-adv-x="248" 
d="M55 0v700h138v-700h-48q-43 -43 -43 -77q0 -29 36 -29q13 0 24 5.5t16 10.5l5 6l16 -31q-3 -4 -8.5 -10.5t-28 -17.5t-49.5 -11q-36 0 -61 16.5t-25 48.5q0 49 52 89h-24z" />
    <glyph glyph-name="iogonek" unicode="&#x12f;" horiz-adv-x="224" 
d="M48 0v530h128v-530h-32q-43 -43 -43 -77q0 -29 36 -29q13 0 24 5.5t16 10.5l5 6l17 -31q-3 -4 -9 -10.5t-28.5 -17.5t-49.5 -11q-36 0 -61 16.5t-25 48.5q0 49 52 89h-30zM48 601v118h128v-118h-128z" />
    <glyph glyph-name="Idotaccent" unicode="&#x130;" horiz-adv-x="247" 
d="M55 0v700h138v-700h-138zM57 749v109h134v-109h-134z" />
    <glyph glyph-name="dotlessi" unicode="&#x131;" horiz-adv-x="224" 
d="M48 0v530h128v-530h-128z" />
    <glyph glyph-name="IJ" unicode="&#x132;" horiz-adv-x="611" 
d="M270 97h25q58 0 91 29t33 76v498h138v-499q0 -98 -70 -154.5t-192 -56.5h-25v107zM55 0v700h138v-700h-138z" />
    <glyph glyph-name="ij" unicode="&#x133;" horiz-adv-x="448" 
d="M221 -200v98h22q64 0 64 53v579h127v-570q0 -72 -53.5 -116t-137.5 -44h-22zM48 0v530h128v-530h-128zM48 601v118h128v-118h-128zM307 601v118h127v-118h-127z" />
    <glyph glyph-name="Jcircumflex" unicode="&#x134;" horiz-adv-x="363" 
d="M22 97h25q58 0 91 29t33 76v498h138v-499q0 -98 -70 -154.5t-192 -56.5h-25v107zM79 773l158 122l158 -122l-27 -34l-131 59l-131 -59z" />
    <glyph glyph-name="jcircumflex" unicode="&#x135;" horiz-adv-x="224" 
d="M-16 -102q64 0 64 48v584h128v-576q0 -69 -54 -111.5t-138 -42.5h-22v98h22zM-46 603l158 122l158 -122l-27 -34l-131 59l-131 -59z" />
    <glyph glyph-name="Kcommaaccent" unicode="&#x136;" horiz-adv-x="563" 
d="M404 0l-211 339v-339h-138v700h138v-313l193 313h150l-209 -338l227 -362h-150zM216 -189l27 143h104l-75 -157z" />
    <glyph glyph-name="kcommaaccent" unicode="&#x137;" horiz-adv-x="464" 
d="M48 0v700h128v-391l128 221h138l-152 -257l172 -273h-139l-147 239v-239h-128zM168 -189l27 143h104l-75 -157z" />
    <glyph glyph-name="Lacute" unicode="&#x139;" horiz-adv-x="467" 
d="M55 0v700h138v-593h242v-107h-380zM95 773l173 122l55 -70l-201 -86z" />
    <glyph glyph-name="lacute" unicode="&#x13a;" horiz-adv-x="258" 
d="M250 98v-98h-21q-83 0 -132 38.5t-49 101.5v560h128v-560q0 -42 53 -42h21zM33 773l173 122l55 -70l-201 -86z" />
    <glyph glyph-name="Lcommaaccent" unicode="&#x13b;" horiz-adv-x="467" 
d="M55 0v700h138v-593h242v-107h-380zM168 -189l27 143h104l-76 -157z" />
    <glyph glyph-name="lcommaaccent" unicode="&#x13c;" horiz-adv-x="258" 
d="M250 98v-98h-21q-83 0 -132 38.5t-49 101.5v560h128v-560q0 -42 53 -42h21zM93 -189l27 143h104l-75 -157z" />
    <glyph glyph-name="Lcaron" unicode="&#x13d;" horiz-adv-x="467" 
d="M55 0v700h138v-593h242v-107h-380zM288 524l29 176h111l-80 -191z" />
    <glyph glyph-name="lcaron" unicode="&#x13e;" horiz-adv-x="346" 
d="M250 98v-98h-21q-83 0 -132 38.5t-49 101.5v560h128v-560q0 -42 53 -42h21zM230 524l28 176h111l-80 -191z" />
    <glyph glyph-name="Ldot" unicode="&#x13f;" horiz-adv-x="467" 
d="M55 0v700h138v-593h242v-107h-380zM288 296v128h138v-128h-138z" />
    <glyph glyph-name="ldot" unicode="&#x140;" horiz-adv-x="423" 
d="M250 98v-98h-21q-83 0 -132 38.5t-49 101.5v560h128v-560q0 -42 53 -42h21zM255 303v128h139v-128h-139z" />
    <glyph glyph-name="Lslash" unicode="&#x141;" horiz-adv-x="488" 
d="M4 290l72 37v373h138v-301l87 46l33 -58l-120 -63v-217h242v-107h-380v251l-39 -20z" />
    <glyph glyph-name="lslash" unicode="&#x142;" horiz-adv-x="290" 
d="M266 98v-98h-22q-83 0 -131.5 38.5t-48.5 101.5v134l-35 -19l-33 59l68 36v350h127v-281l55 30l33 -59l-88 -48v-202q0 -42 53 -42h22z" />
    <glyph glyph-name="Nacute" unicode="&#x143;" horiz-adv-x="586" 
d="M188 0h-133v700h117l226 -420v420h133v-700h-117l-226 420v-420zM191 773l173 122l55 -70l-201 -86z" />
    <glyph glyph-name="nacute" unicode="&#x144;" horiz-adv-x="500" 
d="M48 0v530h128v-33q56 43 126 43q67 0 108 -37.5t41 -104.5v-398h-127v398q0 21 -20.5 32.5t-53.5 11.5q-31 0 -51.5 -10.5t-22.5 -29.5v-402h-128zM147 603l173 122l56 -70l-202 -86z" />
    <glyph glyph-name="Ncommaaccent" unicode="&#x145;" horiz-adv-x="586" 
d="M188 0h-133v700h117l226 -420v420h133v-700h-117l-226 420v-420zM227 -189l27 143h104l-75 -157z" />
    <glyph glyph-name="ncommaaccent" unicode="&#x146;" horiz-adv-x="500" 
d="M48 0v530h128v-33q56 43 126 43q67 0 108 -37.5t41 -104.5v-398h-127v398q0 21 -20.5 32.5t-53.5 11.5q-31 0 -51.5 -10.5t-22.5 -29.5v-402h-128zM185 -189l27 143h103l-75 -157z" />
    <glyph glyph-name="Ncaron" unicode="&#x147;" horiz-adv-x="586" 
d="M188 0h-133v700h117l226 -420v420h133v-700h-117l-226 420v-420zM451 872l-158 -123l-158 123l27 33l131 -59l131 59z" />
    <glyph glyph-name="ncaron" unicode="&#x148;" horiz-adv-x="500" 
d="M48 0v530h128v-33q56 43 126 43q67 0 108 -37.5t41 -104.5v-398h-127v398q0 21 -20.5 32.5t-53.5 11.5q-31 0 -51.5 -10.5t-22.5 -29.5v-402h-128zM408 702l-158 -123l-158 123l27 33l131 -59l131 59z" />
    <glyph glyph-name="Eng" unicode="&#x14a;" horiz-adv-x="586" 
d="M188 0h-133v700h117l221 -411v410h138v-698q0 -98 -70 -154.5t-192 -56.5h-25v107h25q58 0 91 29t33 76v37l-205 381v-420z" />
    <glyph glyph-name="eng" unicode="&#x14b;" horiz-adv-x="500" 
d="M237 -200v98h22q65 0 65 53v447q0 21 -20.5 32.5t-53.5 11.5q-31 0 -51.5 -10.5t-22.5 -29.5v-402h-128v530h128v-33q56 43 126 43q67 0 108 -37.5t41 -104.5v-438q0 -72 -53.5 -116t-138.5 -44h-22z" />
    <glyph glyph-name="Omacron" unicode="&#x14c;" horiz-adv-x="572" 
d="M524 181q0 -84 -67 -137.5t-171 -53.5t-171 53.5t-67 137.5v338q0 84 67 137.5t171 53.5t171 -53.5t67 -137.5v-338zM386 174v353q0 34 -28.5 55t-71.5 21q-45 0 -72.5 -21t-27.5 -55v-354q0 -35 27.5 -55.5t72.5 -20.5q43 0 71.5 21t28.5 56zM160 822h251v-68h-251v68z
" />
    <glyph glyph-name="omacron" unicode="&#x14d;" horiz-adv-x="488" 
d="M446 151q0 -72 -56.5 -116.5t-145.5 -44.5q-88 0 -145 44.5t-57 116.5v228q0 72 57 116.5t145 44.5q89 0 145.5 -44.5t56.5 -116.5v-228zM319 143v244q0 25 -21 40t-54 15t-54 -15t-21 -40v-244q0 -25 21 -40t54 -15t54 15t21 40zM118 652h251v-68h-251v68z" />
    <glyph glyph-name="Obreve" unicode="&#x14e;" horiz-adv-x="572" 
d="M524 181q0 -84 -67 -137.5t-171 -53.5t-171 53.5t-67 137.5v338q0 84 67 137.5t171 53.5t171 -53.5t67 -137.5v-338zM386 174v353q0 34 -28.5 55t-71.5 21q-45 0 -72.5 -21t-27.5 -55v-354q0 -35 27.5 -55.5t72.5 -20.5q43 0 71.5 21t28.5 56zM348 881h84
q0 -57 -40.5 -89.5t-106.5 -32.5q-65 0 -105 32.5t-40 89.5h84q0 -56 61 -56q63 0 63 56z" />
    <glyph glyph-name="obreve" unicode="&#x14f;" horiz-adv-x="488" 
d="M446 151q0 -72 -56.5 -116.5t-145.5 -44.5q-88 0 -145 44.5t-57 116.5v228q0 72 57 116.5t145 44.5q89 0 145.5 -44.5t56.5 -116.5v-228zM319 143v244q0 25 -21 40t-54 15t-54 -15t-21 -40v-244q0 -25 21 -40t54 -15t54 15t21 40zM306 711h83q0 -57 -40 -89.5t-106 -32.5
t-106 32.5t-40 89.5h84q0 -56 62 -56q63 0 63 56z" />
    <glyph glyph-name="Ohungarumlaut" unicode="&#x150;" horiz-adv-x="572" 
d="M524 181q0 -84 -67 -137.5t-171 -53.5t-171 53.5t-67 137.5v338q0 84 67 137.5t171 53.5t171 -53.5t67 -137.5v-338zM386 174v353q0 34 -28.5 55t-71.5 21q-45 0 -72.5 -21t-27.5 -55v-354q0 -35 27.5 -55.5t72.5 -20.5q43 0 71.5 21t28.5 56zM118 761l96 149l80 -47
l-137 -124zM250 775l172 123l56 -71l-201 -86z" />
    <glyph glyph-name="ohungarumlaut" unicode="&#x151;" horiz-adv-x="488" 
d="M446 151q0 -72 -56.5 -116.5t-145.5 -44.5q-88 0 -145 44.5t-57 116.5v228q0 72 57 116.5t145 44.5q89 0 145.5 -44.5t56.5 -116.5v-228zM319 143v244q0 25 -21 40t-54 15t-54 -15t-21 -40v-244q0 -25 21 -40t54 -15t54 15t21 40zM76 591l96 149l80 -47l-137 -124z
M209 605l171 123l56 -71l-200 -86z" />
    <glyph glyph-name="OE" unicode="&#x152;" horiz-adv-x="795" 
d="M387 0v6q-48 -16 -101 -16q-104 0 -171 53.5t-67 137.5v338q0 84 67 137.5t171 53.5q53 0 101 -16v6h364v-107h-225v-185h196v-107h-196v-194h225v-107h-364zM386 174v353q0 34 -28.5 55t-71.5 21q-45 0 -72.5 -21t-27.5 -55v-354q0 -35 27.5 -55.5t72.5 -20.5
q43 0 71.5 21t28.5 56z" />
    <glyph glyph-name="oe" unicode="&#x153;" horiz-adv-x="760" 
d="M724 221h-276v-78q0 -25 20.5 -40t53.5 -15t54 15t21 40v22h127v-14q0 -72 -56.5 -116.5t-145.5 -44.5q-85 0 -139 40q-55 -40 -139 -40q-88 0 -145 44.5t-57 116.5v228q0 72 57 116.5t145 44.5q81 0 139 -40q56 40 139 40q89 0 145.5 -44.5t56.5 -116.5v-158zM319 143
v244q0 25 -21 40t-54 15t-54 -15t-21 -40v-244q0 -25 21 -40t54 -15t54 15t21 40zM597 319v68q0 25 -21 40t-54 15q-32 0 -53 -16t-21 -39v-68h149z" />
    <glyph glyph-name="Racute" unicode="&#x154;" horiz-adv-x="564" 
d="M193 271v-271h-138v700h227q104 0 171 -53.5t67 -137.5v-46q0 -56 -30.5 -99.5t-83.5 -67.5l144 -296h-139l-122 271h-96zM280 593h-87v-215h87q45 0 73.5 21t28.5 56v62q0 34 -28.5 55t-73.5 21zM180 773l173 122l55 -70l-201 -86z" />
    <glyph glyph-name="racute" unicode="&#x155;" horiz-adv-x="346" 
d="M176 360v-360h-128v530h128v-53q69 63 150 63v-107q-65 0 -107.5 -20.5t-42.5 -52.5zM71 603l172 122l56 -70l-202 -86z" />
    <glyph glyph-name="Rcommaaccent" unicode="&#x156;" horiz-adv-x="564" 
d="M193 271v-271h-138v700h227q104 0 171 -53.5t67 -137.5v-46q0 -56 -30.5 -99.5t-83.5 -67.5l144 -296h-139l-122 271h-96zM280 593h-87v-215h87q45 0 73.5 21t28.5 56v62q0 34 -28.5 55t-73.5 21zM216 -189l28 143h103l-75 -157z" />
    <glyph glyph-name="rcommaaccent" unicode="&#x157;" horiz-adv-x="346" 
d="M48 0v530h128v-53q69 63 150 63v-107q-63 0 -105.5 -20t-44.5 -50v-363h-128zM46 -189l27 143h103l-75 -157z" />
    <glyph glyph-name="Rcaron" unicode="&#x158;" horiz-adv-x="564" 
d="M193 271v-271h-138v700h227q104 0 171 -53.5t67 -137.5v-46q0 -56 -30.5 -99.5t-83.5 -67.5l144 -296h-139l-122 271h-96zM280 593h-87v-215h87q45 0 73.5 21t28.5 56v62q0 34 -28.5 55t-73.5 21zM440 872l-158 -123l-158 123l27 33l131 -59l131 59z" />
    <glyph glyph-name="rcaron" unicode="&#x159;" horiz-adv-x="346" 
d="M176 360v-360h-128v530h128v-53q69 63 150 63v-107q-65 0 -107.5 -20.5t-42.5 -52.5zM331 702l-158 -123l-158 123l27 33l131 -59l131 59z" />
    <glyph glyph-name="Sacute" unicode="&#x15a;" horiz-adv-x="531" 
d="M353 496v37q0 31 -27 50.5t-69 19.5q-39 0 -63.5 -18t-24.5 -56q0 -50 44 -74l195 -113q43 -25 66 -70t23 -94q0 -89 -65 -138.5t-168 -49.5q-106 0 -172.5 50.5t-66.5 131.5v38h137v-38q0 -33 28 -54t75 -21q95 0 95 76q0 54 -41 75l-196 113q-44 27 -67.5 70t-23.5 91
q0 91 62 139.5t163 48.5q104 0 169 -49t65 -128v-37h-138zM163 773l173 122l55 -70l-201 -86z" />
    <glyph glyph-name="sacute" unicode="&#x15b;" horiz-adv-x="470" 
d="M234 540q86 0 140 -43t54 -113v-24h-127v31q0 23 -19.5 37t-50.5 14q-30 0 -49.5 -13t-19.5 -36q0 -35 38 -51l134 -51q47 -20 74.5 -59t27.5 -87q0 -69 -56.5 -112t-143.5 -43q-89 0 -145 43.5t-56 112.5v24h127v-31q0 -24 21.5 -37.5t55.5 -13.5q33 0 54 13t21 36
q0 35 -42 51l-134 52q-46 19 -71.5 57t-25.5 86q0 70 54 113.5t139 43.5zM133 603l173 122l55 -70l-201 -86z" />
    <glyph glyph-name="Scircumflex" unicode="&#x15c;" horiz-adv-x="531" 
d="M353 496v37q0 31 -27 50.5t-69 19.5q-39 0 -63.5 -18t-24.5 -56q0 -50 44 -74l195 -113q43 -25 66 -70t23 -94q0 -89 -65 -138.5t-168 -49.5q-106 0 -172.5 50.5t-66.5 131.5v38h137v-38q0 -33 28 -54t75 -21q95 0 95 76q0 54 -41 75l-196 113q-44 27 -67.5 70t-23.5 91
q0 91 62 139.5t163 48.5q104 0 169 -49t65 -128v-37h-138zM108 773l158 122l157 -122l-26 -34l-131 59l-132 -59z" />
    <glyph glyph-name="scircumflex" unicode="&#x15d;" horiz-adv-x="470" 
d="M234 540q86 0 140 -43t54 -113v-24h-127v31q0 23 -19.5 37t-50.5 14q-30 0 -49.5 -13t-19.5 -36q0 -35 38 -51l134 -51q47 -20 74.5 -59t27.5 -87q0 -69 -56.5 -112t-143.5 -43q-89 0 -145 43.5t-56 112.5v24h127v-31q0 -24 21.5 -37.5t55.5 -13.5q33 0 54 13t21 36
q0 35 -42 51l-134 52q-46 19 -71.5 57t-25.5 86q0 70 54 113.5t139 43.5zM76 603l158 122l158 -122l-27 -34l-131 59l-131 -59z" />
    <glyph glyph-name="Scedilla" unicode="&#x15e;" horiz-adv-x="531" 
d="M353 496v37q0 31 -27 50.5t-69 19.5q-39 0 -63.5 -18t-24.5 -56q0 -50 44 -74l195 -113q43 -25 66 -70t23 -94q0 -82 -55 -130.5t-146 -56.5l-5 -27q29 0 49 -18.5t20 -49.5t-24 -50t-66 -19q-30 0 -54.5 10t-34.5 20l-10 10l16 30q30 -22 62 -22q35 0 35 24q0 29 -58 29
l10 63q-95 7 -153 56.5t-58 124.5v38h137v-38q0 -33 28 -54t75 -21q95 0 95 76q0 54 -41 75l-196 113q-44 27 -67.5 70t-23.5 91q0 91 62 139.5t163 48.5q104 0 169 -49t65 -128v-37h-138z" />
    <glyph glyph-name="scedilla" unicode="&#x15f;" horiz-adv-x="470" 
d="M234 540q86 0 140 -43t54 -113v-24h-127v31q0 23 -19.5 37t-50.5 14q-30 0 -49.5 -13t-19.5 -36q0 -35 38 -51l134 -51q47 -20 74.5 -59t27.5 -87q0 -63 -47.5 -104.5t-123.5 -48.5l-5 -28q29 0 49 -18.5t20 -49.5t-24 -50t-66 -19q-30 0 -55 10t-35 20l-10 10l17 30
q30 -22 62 -22q35 0 35 24q0 29 -58 29l10 64q-77 7 -123.5 49t-46.5 105v24h127v-31q0 -24 21.5 -37.5t55.5 -13.5q33 0 54 13t21 36q0 35 -42 51l-134 52q-46 19 -71.5 57t-25.5 86q0 70 54 113.5t139 43.5z" />
    <glyph glyph-name="Scaron" unicode="&#x160;" horiz-adv-x="531" 
d="M353 496v37q0 31 -27 50.5t-69 19.5q-39 0 -63.5 -18t-24.5 -56q0 -50 44 -74l195 -113q43 -25 66 -70t23 -94q0 -89 -65 -138.5t-168 -49.5q-106 0 -172.5 50.5t-66.5 131.5v38h137v-38q0 -33 28 -54t75 -21q95 0 95 76q0 54 -41 75l-196 113q-44 27 -67.5 70t-23.5 91
q0 91 62 139.5t163 48.5q104 0 169 -49t65 -128v-37h-138zM423 872l-157 -123l-158 123l26 33l132 -59l131 59z" />
    <glyph glyph-name="scaron" unicode="&#x161;" horiz-adv-x="470" 
d="M234 540q86 0 140 -43t54 -113v-24h-127v31q0 23 -19.5 37t-50.5 14q-30 0 -49.5 -13t-19.5 -36q0 -35 38 -51l134 -51q47 -20 74.5 -59t27.5 -87q0 -69 -56.5 -112t-143.5 -43q-89 0 -145 43.5t-56 112.5v24h127v-31q0 -24 21.5 -37.5t55.5 -13.5q33 0 54 13t21 36
q0 35 -42 51l-134 52q-46 19 -71.5 57t-25.5 86q0 70 54 113.5t139 43.5zM392 702l-158 -123l-158 123l27 33l131 -59l131 59z" />
    <glyph glyph-name="Tcommaaccent" unicode="&#x162;" horiz-adv-x="499" 
d="M485 700v-107h-167v-593h-138v593h-166v107h471zM182 -189l27 143h104l-75 -157z" />
    <glyph glyph-name="tcommaaccent" unicode="&#x163;" horiz-adv-x="386" 
d="M358 98v-98h-48q-84 0 -137.5 41.5t-53.5 108.5v282h-100v98h100v110h127v-110h112v-98h-112v-282q0 -24 18 -38t46 -14h48zM171 -189l27 143h103l-75 -157z" />
    <glyph glyph-name="Tcaron" unicode="&#x164;" horiz-adv-x="499" 
d="M485 700v-107h-167v-593h-138v593h-166v107h471zM407 872l-158 -123l-158 123l27 33l131 -59l131 59z" />
    <glyph glyph-name="tcaron" unicode="&#x165;" horiz-adv-x="432" 
d="M352 98v-98h-47q-85 0 -138.5 41.5t-53.5 108.5v282h-99v98h99v110h128v-110h111v-98h-111v-282q0 -24 18 -38t46 -14h47zM312 584l29 176h111l-80 -191z" />
    <glyph glyph-name="Tbar" unicode="&#x166;" horiz-adv-x="499" 
d="M435 412v-68h-117v-344h-138v344h-116v68h116v181h-166v107h471v-107h-167v-181h117z" />
    <glyph glyph-name="tbar" unicode="&#x167;" horiz-adv-x="385" 
d="M19 530h100v110h127v-110h112v-98h-112v-115h100v-69h-100v-108q0 -20 17.5 -31t46.5 -11h48v-98h-48q-84 0 -137.5 44.5t-53.5 115.5v88h-83v69h83v115h-100v98z" />
    <glyph glyph-name="Utilde" unicode="&#x168;" horiz-adv-x="583" 
d="M392 700h137v-519q0 -84 -66.5 -137.5t-170.5 -53.5q-105 0 -171.5 53.5t-66.5 137.5v519h137v-527q0 -35 28 -55.5t73 -20.5q43 0 71.5 21t28.5 56v526zM226 878q25 0 64 -16.5t53 -16.5t27.5 9t20.5 18l7 9l57 -41q-4 -9 -11 -21.5t-33 -33.5t-56 -21q-25 0 -63.5 16.5
t-52.5 16.5t-28 -9t-21 -18l-7 -9l-57 41q1 3 3.5 8t12 18.5t20 23.5t28 18t36.5 8z" />
    <glyph glyph-name="utilde" unicode="&#x169;" horiz-adv-x="499" 
d="M324 132v398h127v-530h-127v33q-55 -43 -126 -43q-67 0 -108.5 37.5t-41.5 104.5v398h128v-398q0 -21 20 -32.5t54 -11.5q33 0 53.5 11.5t20.5 32.5zM185 708q25 0 64 -16.5t53 -16.5t27.5 9t20.5 18l6 9l57 -41q-1 -3 -3.5 -8t-12 -18.5t-20 -23.5t-27.5 -18t-36 -8
q-25 0 -63.5 16.5t-52.5 16.5t-28 -9t-21 -18l-7 -9l-57 41q1 3 3.5 8t12 18.5t20 23.5t28 18t36.5 8z" />
    <glyph glyph-name="Umacron" unicode="&#x16a;" horiz-adv-x="583" 
d="M392 700h137v-519q0 -84 -66.5 -137.5t-170.5 -53.5q-105 0 -171.5 53.5t-66.5 137.5v519h137v-527q0 -35 28 -55.5t73 -20.5q43 0 71.5 21t28.5 56v526zM166 822h250v-68h-250v68z" />
    <glyph glyph-name="umacron" unicode="&#x16b;" horiz-adv-x="500" 
d="M324 132v398h127v-530h-127v33q-55 -43 -126 -43q-67 0 -108.5 37.5t-41.5 104.5v398h128v-398q0 -21 20 -32.5t54 -11.5q33 0 53.5 11.5t20.5 32.5zM124 652h251v-68h-251v68z" />
    <glyph glyph-name="Ubreve" unicode="&#x16c;" horiz-adv-x="583" 
d="M392 700h137v-519q0 -84 -66.5 -137.5t-170.5 -53.5q-105 0 -171.5 53.5t-66.5 137.5v519h137v-527q0 -35 28 -55.5t73 -20.5q43 0 71.5 21t28.5 56v526zM353 881h84q0 -57 -40.5 -89.5t-106.5 -32.5q-65 0 -105 32.5t-40 89.5h84q0 -56 61 -56q63 0 63 56z" />
    <glyph glyph-name="ubreve" unicode="&#x16d;" horiz-adv-x="500" 
d="M324 132v398h127v-530h-127v33q-55 -43 -126 -43q-67 0 -108.5 37.5t-41.5 104.5v398h128v-398q0 -21 20 -32.5t54 -11.5q33 0 53.5 11.5t20.5 32.5zM312 711h83q0 -57 -40 -89.5t-106 -32.5q-65 0 -105.5 32.5t-40.5 89.5h84q0 -56 62 -56q63 0 63 56z" />
    <glyph glyph-name="Uring" unicode="&#x16e;" horiz-adv-x="583" 
d="M392 700h137v-519q0 -84 -66.5 -137.5t-170.5 -53.5q-105 0 -171.5 53.5t-66.5 137.5v519h137v-527q0 -35 28 -55.5t73 -20.5q43 0 71.5 21t28.5 56v526zM208 825q0 34 26 60t61 26t60.5 -25.5t25.5 -60.5t-25.5 -61.5t-60.5 -26.5q-34 0 -60.5 26.5t-26.5 61.5zM264 825
q0 -14 8.5 -23t22.5 -9q13 0 22 9t9 23q0 13 -9 22t-22 9t-22 -9t-9 -22z" />
    <glyph glyph-name="uring" unicode="&#x16f;" horiz-adv-x="500" 
d="M324 132v398h127v-530h-127v33q-55 -43 -126 -43q-67 0 -108.5 37.5t-41.5 104.5v398h128v-398q0 -21 20 -32.5t54 -11.5q33 0 53.5 11.5t20.5 32.5zM165 655q0 34 26.5 60t60.5 26q35 0 61 -25.5t26 -60.5t-26 -61.5t-61 -26.5q-34 0 -60.5 27t-26.5 61zM221 655
q0 -14 8.5 -23t22.5 -9q13 0 22.5 9t9.5 23q0 13 -9.5 22t-22.5 9t-22 -9t-9 -22z" />
    <glyph glyph-name="Uhungarumlaut" unicode="&#x170;" horiz-adv-x="583" 
d="M392 700h137v-519q0 -84 -66.5 -137.5t-170.5 -53.5q-105 0 -171.5 53.5t-66.5 137.5v519h137v-527q0 -35 28 -55.5t73 -20.5q43 0 71.5 21t28.5 56v526zM124 761l95 149l81 -47l-138 -124zM256 775l172 123l56 -71l-201 -86z" />
    <glyph glyph-name="uhungarumlaut" unicode="&#x171;" horiz-adv-x="500" 
d="M451 530v-530h-127v33q-55 -43 -126 -43q-67 0 -108.5 37.5t-41.5 104.5v398h128v-398q0 -21 20 -32.5t54 -11.5q69 0 74 40v402h127zM214 605l171 123l57 -71l-201 -86zM81 591l96 149l80 -47l-137 -124z" />
    <glyph glyph-name="Uogonek" unicode="&#x172;" horiz-adv-x="583" 
d="M333 -154q-36 0 -61 16.5t-25 48.5q0 39 40 79q-103 2 -168 54.5t-65 136.5v519h137v-527q0 -35 28 -55.5t73 -20.5q43 0 71.5 21t28.5 56v526h137v-519q0 -69 -45.5 -118t-121.5 -65q-40 -47 -40 -75q0 -29 36 -29q13 0 24 5.5t16 10.5l5 6l17 -31q-3 -4 -9 -10.5
t-28.5 -17.5t-49.5 -11z" />
    <glyph glyph-name="uogonek" unicode="&#x173;" horiz-adv-x="500" 
d="M371 -154q-36 0 -61 16.5t-25 48.5q0 49 52 89h-13v33q-55 -43 -126 -43q-67 0 -108.5 37.5t-41.5 104.5v398h128v-398q0 -21 20 -32.5t54 -11.5q69 0 74 40v402h127v-530h-48q-42 -42 -42 -77q0 -29 35 -29q13 0 24.5 5.5t15.5 10.5l5 6l17 -31q-3 -4 -9 -10.5
t-28 -17.5t-50 -11z" />
    <glyph glyph-name="Wcircumflex" unicode="&#x174;" horiz-adv-x="791" 
d="M644 700h139l-169 -700h-128l-91 469l-90 -469h-128l-169 700h139l93 -472l91 472h129l90 -472zM236 773l158 122l158 -122l-27 -34l-131 59l-131 -59z" />
    <glyph glyph-name="wcircumflex" unicode="&#x175;" horiz-adv-x="717" 
d="M451 0l-93 314l-92 -314h-102l-161 530h128l88 -323l91 323h97l89 -323l90 323h128l-161 -530h-102zM200 603l158 122l158 -122l-27 -34l-131 59l-131 -59z" />
    <glyph glyph-name="Ycircumflex" unicode="&#x176;" horiz-adv-x="569" 
d="M214 0v261l-207 439h142l135 -301l136 301h142l-210 -439v-261h-138zM126 773l158 122l158 -122l-27 -34l-131 59l-131 -59z" />
    <glyph glyph-name="ycircumflex" unicode="&#x177;" horiz-adv-x="461" 
d="M458 530l-231 -730h-116l59 192l-167 538h123l103 -344l106 344h123zM72 603l158 122l158 -122l-27 -34l-131 59l-131 -59z" />
    <glyph glyph-name="Ydieresis" unicode="&#x178;" horiz-adv-x="569" 
d="M214 0v261l-207 439h142l135 -301l136 301h142l-210 -439v-261h-138zM139 749v108h107v-108h-107zM323 749v108h106v-108h-106z" />
    <glyph glyph-name="Zacute" unicode="&#x179;" horiz-adv-x="473" 
d="M30 593v107h426v-79l-272 -514h272v-107h-439v79l278 514h-265zM134 773l173 122l55 -70l-201 -86z" />
    <glyph glyph-name="zacute" unicode="&#x17a;" horiz-adv-x="430" 
d="M36 432v98h360v-75l-209 -357h208v-98h-361v75l209 357h-207zM112 603l173 122l56 -70l-202 -86z" />
    <glyph glyph-name="Zdotaccent" unicode="&#x17b;" horiz-adv-x="473" 
d="M30 593v107h426v-79l-272 -514h272v-107h-439v79l278 514h-265zM177 749v109h117v-109h-117z" />
    <glyph glyph-name="zdotaccent" unicode="&#x17c;" horiz-adv-x="430" 
d="M36 432v98h360v-75l-209 -357h208v-98h-361v75l209 357h-207zM157 579v109h116v-109h-116z" />
    <glyph glyph-name="Zcaron" unicode="&#x17d;" horiz-adv-x="473" 
d="M30 593v107h426v-79l-272 -514h272v-107h-439v79l278 514h-265zM394 872l-158 -123l-158 123l27 33l131 -59l131 59z" />
    <glyph glyph-name="zcaron" unicode="&#x17e;" horiz-adv-x="430" 
d="M36 432v98h360v-75l-209 -357h208v-98h-361v75l209 357h-207zM373 702l-158 -123l-157 123l26 33l131 -59l131 59z" />
    <glyph glyph-name="uni018F" unicode="&#x18f;" horiz-adv-x="571" 
d="M48 181v209h338v137q0 34 -27.5 55t-72.5 21q-43 0 -71.5 -21t-28.5 -55v-48h-138v40q0 84 67 137.5t171 53.5t171 -53.5t67 -137.5v-338q0 -84 -67 -137.5t-171 -53.5t-171 53.5t-67 137.5zM186 282v-108q0 -35 28.5 -56t71.5 -21q45 0 72.5 20.5t27.5 55.5v109h-200z
" />
    <glyph glyph-name="florin" unicode="&#x192;" horiz-adv-x="352" 
d="M42 530h88l4 16q16 69 79.5 111.5t147.5 42.5h47l-21 -98h-47q-29 0 -50.5 -12.5t-27.5 -35.5l-6 -24h113l-22 -98h-113l-146 -632h-127l146 632h-86z" />
    <glyph glyph-name="uni01DD" unicode="&#x1dd;" 
d="M36 365v14q0 72 56.5 116.5t145.5 44.5t145.5 -44.5t56.5 -116.5v-228q0 -69 -57 -115t-145 -46t-145 46t-57 115v158h277v78q0 25 -21 40t-54 15t-54 -15t-21 -40v-22h-127zM238 88q33 0 54 15t21 40v68h-150v-68q0 -25 21 -40t54 -15z" />
    <glyph glyph-name="Aringacute" unicode="&#x1fa;" horiz-adv-x="594" 
d="M211 745q0 30 20.5 54t50.5 30l149 106l56 -70l-132 -56q29 -26 29 -64q0 -27 -16 -49l219 -696h-142l-33 118h-231l-32 -118h-142l218 698q-14 22 -14 47zM296 533l-85 -308h171zM267 745q0 -13 8.5 -22t22.5 -9q13 0 22 9t9 22t-9 22t-22 9t-22 -9t-9 -22z" />
    <glyph glyph-name="aringacute" unicode="&#x1fb;" 
d="M153 585q0 30 20 53.5t50 30.5l139 99l56 -70l-120 -51q28 -26 28 -62q0 -30 -19 -54q60 -15 96 -55.5t36 -96.5v-379h-128v33q-55 -43 -126 -43q-67 0 -108 37t-41 104v33q0 71 55.5 114t145.5 47l74 3v59q0 25 -20.5 40t-52.5 15q-33 0 -53.5 -15t-20.5 -40v-27h-127
v19q0 57 36.5 98t98.5 55q-19 24 -19 53zM311 132v98l-71 -3q-36 -2 -56.5 -17t-20.5 -40v-39q0 -20 20 -31.5t55 -11.5q32 0 52.5 12t20.5 32zM208 585q0 -13 9 -22.5t23 -9.5q13 0 22 9.5t9 22.5t-9 22t-22 9t-22.5 -9t-9.5 -22z" />
    <glyph glyph-name="AEacute" unicode="&#x1fc;" horiz-adv-x="716" 
d="M149 0h-142l230 700h437v-107h-207v-185h177v-107h-177v-194h207v-107h-345v118h-145zM216 225h113v375zM255 773l173 122l55 -70l-201 -86z" />
    <glyph glyph-name="aeacute" unicode="&#x1fd;" horiz-adv-x="753" 
d="M717 231h-277v-88q0 -25 21 -40t54 -15t54 15t21 40v22h127v-14q0 -72 -56.5 -116.5t-145.5 -44.5q-100 0 -156 50q-52 -50 -150 -50q-81 0 -127 38.5t-46 107.5v24q0 71 56.5 115t145.5 48l74 3v61q0 25 -21 40t-52 15q-33 0 -53.5 -15t-20.5 -40v-27h-127v19
q0 72 56.5 116.5t144.5 44.5q81 0 137 -40q56 40 139 40q89 0 145.5 -44.5t56.5 -116.5v-148zM237 88q70 0 75 40v100l-72 -3q-35 -2 -55.5 -18t-20.5 -41v-35q0 -20 20 -31.5t53 -11.5zM590 329v58q0 25 -21 40t-54 15t-54 -15t-21 -40v-58h150zM274 603l173 122l55 -70
l-201 -86z" />
    <glyph glyph-name="Oslashacute" unicode="&#x1fe;" horiz-adv-x="573" 
d="M30 -10l51 87q-33 46 -33 104v338q0 84 67 137.5t171 53.5q83 0 146 -36l21 36h89l-52 -88q34 -45 34 -103v-338q0 -84 -67 -137.5t-171 -53.5q-86 0 -145 35l-20 -35h-91zM186 527v-272l184 315q-27 33 -84 33q-45 0 -72.5 -21t-27.5 -55zM386 174v269l-184 -315
q26 -31 84 -31q43 0 71.5 21t28.5 56zM184 773l173 122l55 -70l-201 -86z" />
    <glyph glyph-name="oslashacute" unicode="&#x1ff;" horiz-adv-x="488" 
d="M25 -10l46 71q-29 38 -29 90v228q0 72 56.5 116.5t145.5 44.5q71 0 121 -29l19 29h76l-46 -70q32 -40 32 -91v-228q0 -72 -57 -116.5t-145 -44.5q-70 0 -124 30l-19 -30h-76zM319 143v181l-139 -213q20 -23 64 -23q32 0 53.5 15t21.5 40zM169 387v-176l136 209
q-20 22 -61 22q-33 0 -54 -15t-21 -40zM141 603l173 122l56 -70l-202 -86z" />
    <glyph glyph-name="Scommaaccent" unicode="&#x218;" horiz-adv-x="531" 
d="M353 496v37q0 31 -27 50.5t-69 19.5q-39 0 -63.5 -18t-24.5 -56q0 -50 44 -74l195 -113q43 -25 66 -70t23 -94q0 -89 -65 -138.5t-168 -49.5q-106 0 -172.5 50.5t-66.5 131.5v38h137v-38q0 -33 28 -54t75 -21q95 0 95 76q0 54 -41 75l-196 113q-44 27 -67.5 70t-23.5 91
q0 91 62 139.5t163 48.5q104 0 169 -49t65 -128v-37h-138zM182 -189l27 143h104l-75 -157z" />
    <glyph glyph-name="scommaaccent" unicode="&#x219;" horiz-adv-x="470" 
d="M234 540q86 0 140 -43t54 -113v-24h-127v31q0 23 -19.5 37t-50.5 14q-30 0 -49.5 -13t-19.5 -36q0 -35 38 -51l134 -51q47 -20 74.5 -59t27.5 -87q0 -69 -56.5 -112t-143.5 -43q-89 0 -145 43.5t-56 112.5v24h127v-31q0 -24 21.5 -37.5t55.5 -13.5q33 0 54 13t21 36
q0 35 -42 51l-134 52q-46 19 -71.5 57t-25.5 86q0 70 54 113.5t139 43.5zM170 -189l27 143h103l-75 -157z" />
    <glyph glyph-name="uni021A" unicode="&#x21a;" horiz-adv-x="499" 
d="M485 700v-107h-167v-593h-138v593h-166v107h471zM182 -189l27 143h104l-75 -157z" />
    <glyph glyph-name="uni021B" unicode="&#x21b;" horiz-adv-x="386" 
d="M358 98v-98h-48q-84 0 -137.5 41.5t-53.5 108.5v282h-100v98h100v110h127v-110h112v-98h-112v-282q0 -24 18 -38t46 -14h48zM171 -189l27 143h103l-75 -157z" />
    <glyph glyph-name="dotlessj" unicode="&#x237;" horiz-adv-x="224" 
d="M-38 -200v98h22q64 0 64 48v584h128v-576q0 -69 -54 -111.5t-138 -42.5h-22z" />
    <glyph glyph-name="uni0259" unicode="&#x259;" 
d="M36 365v14q0 72 56.5 116.5t145.5 44.5t145.5 -44.5t56.5 -116.5v-222q0 -72 -57 -119.5t-145 -47.5t-145 47.5t-57 119.5v152h277v78q0 25 -21 40t-54 15t-54 -15t-21 -40v-22h-127zM238 88q33 0 54 17.5t21 43.5v62h-150v-62q0 -26 21 -43.5t54 -17.5z" />
    <glyph glyph-name="circumflex" unicode="&#x2c6;" horiz-adv-x="442" 
d="M65 603l157 122l158 -122l-27 -34l-131 59l-131 -59z" />
    <glyph glyph-name="caron" unicode="&#x2c7;" horiz-adv-x="445" 
d="M380 702l-158 -123l-157 123l26 33l131 -59l131 59z" />
    <glyph glyph-name="breve" unicode="&#x2d8;" horiz-adv-x="421" 
d="M273 711h84q0 -57 -40.5 -89.5t-106.5 -32.5q-65 0 -105 32.5t-40 89.5h84q0 -56 61 -56q63 0 63 56z" />
    <glyph glyph-name="dotaccent" unicode="&#x2d9;" horiz-adv-x="245" 
d="M65 579v109h116v-109h-116z" />
    <glyph glyph-name="ring" unicode="&#x2da;" horiz-adv-x="275" 
d="M51 655q0 34 26 60t61 26t60.5 -25.5t25.5 -60.5t-25.5 -61.5t-60.5 -26.5q-34 0 -60.5 26.5t-26.5 61.5zM107 655q0 -14 8.5 -23t22.5 -9q13 0 22.5 9t9.5 23q0 13 -9.5 22t-22.5 9t-22 -9t-9 -22z" />
    <glyph glyph-name="ogonek" unicode="&#x2db;" horiz-adv-x="292" 
d="M146 -154q-36 0 -61 16.5t-25 48.5q0 23 14 46t28 35l14 11h65q-45 -46 -45 -80q0 -29 35 -29q13 0 24.5 5.5t16.5 10.5l4 6l17 -31q-3 -4 -9 -10.5t-28.5 -17.5t-49.5 -11z" />
    <glyph glyph-name="tilde" unicode="&#x2dc;" horiz-adv-x="467" 
d="M170 708q24 0 63 -16.5t53 -16.5t27.5 9t20.5 18l7 9l57 -41q-1 -3 -3.5 -8t-12 -18.5t-20 -23.5t-27.5 -18t-36 -8q-25 0 -64 16.5t-52 16.5q-14 0 -28 -9t-21 -18l-7 -9l-58 41q1 3 4 8t12 18.5t20 23.5t28.5 18t36.5 8z" />
    <glyph glyph-name="hungarumlaut" unicode="&#x2dd;" horiz-adv-x="478" 
d="M65 591l95 149l81 -47l-138 -124zM197 605l171 123l57 -71l-201 -86z" />
    <glyph glyph-name="uni0400" unicode="&#x400;" horiz-adv-x="495" 
d="M55 0v700h398v-107h-260v-185h230v-107h-230v-194h260v-107h-398zM186 895l173 -122l-27 -34l-202 86z" />
    <glyph glyph-name="afii10023" unicode="&#x401;" horiz-adv-x="495" 
d="M55 0v700h398v-107h-260v-185h230v-107h-230v-194h260v-107h-398zM111 749v108h107v-108h-107zM294 749v108h107v-108h-107z" />
    <glyph glyph-name="afii10051" unicode="&#x402;" horiz-adv-x="686" 
d="M393 -10v107q51 0 86 24t35 61v53q0 76 -118 76q-23 0 -78 -5v-306h-138v593h-166v107h471v-107h-167v-179q55 5 81 5q120 0 186 -53t66 -138v-46q0 -88 -71.5 -140t-186.5 -52z" />
    <glyph glyph-name="afii10052" unicode="&#x403;" horiz-adv-x="429" 
d="M416 700v-107h-223v-593h-138v700h361zM112 773l173 122l56 -70l-202 -86z" />
    <glyph glyph-name="afii10053" unicode="&#x404;" horiz-adv-x="560" 
d="M385 221h138v-40q0 -84 -67 -137.5t-171 -53.5t-171 53.5t-67 137.5v338q0 84 67 137.5t171 53.5t171 -53.5t67 -137.5v-40h-138v48q0 34 -28.5 55t-71.5 21q-45 0 -73 -21t-28 -55v-123h182v-108h-182v-123q0 -35 28 -55.5t73 -20.5q43 0 71.5 21t28.5 56v47z" />
    <glyph glyph-name="afii10054" unicode="&#x405;" horiz-adv-x="531" 
d="M353 496v37q0 31 -27 50.5t-69 19.5q-39 0 -63.5 -18t-24.5 -56q0 -50 44 -74l195 -113q43 -25 66 -70t23 -94q0 -89 -65 -138.5t-168 -49.5q-106 0 -172.5 50.5t-66.5 131.5v38h137v-38q0 -33 28 -54t75 -21q95 0 95 76q0 54 -41 75l-196 113q-44 27 -67.5 70t-23.5 91
q0 91 62 139.5t163 48.5q104 0 169 -49t65 -128v-37h-138z" />
    <glyph glyph-name="afii10055" unicode="&#x406;" horiz-adv-x="248" 
d="M55 0v700h138v-700h-138z" />
    <glyph glyph-name="afii10056" unicode="&#x407;" horiz-adv-x="248" 
d="M-21 749v108h107v-108h-107zM162 749v108h107v-108h-107zM55 0v700h138v-700h-138z" />
    <glyph glyph-name="afii10057" unicode="&#x408;" horiz-adv-x="363" 
d="M22 97h25q58 0 91 29t33 76v498h138v-499q0 -98 -70 -154.5t-192 -56.5h-25v107z" />
    <glyph glyph-name="afii10058" unicode="&#x409;" horiz-adv-x="935" 
d="M12 -10v107h13q35 0 53 12t33 60.5t20 143t5 260.5v127h436v-271h91q104 0 170.5 -53.5t66.5 -138.5v-46q0 -84 -66.5 -137.5t-170.5 -53.5h-229v593h-170v-21q0 -102 -1.5 -172.5t-6.5 -134t-12 -103t-20.5 -73t-30 -50.5t-43 -29.5t-55.5 -16t-71 -3.5h-12zM661 321
h-89v-214h89q44 0 72.5 21t28.5 55v62q0 35 -28.5 55.5t-72.5 20.5z" />
    <glyph glyph-name="afii10059" unicode="&#x40a;" horiz-adv-x="895" 
d="M55 0v700h138v-281h200v281h138v-281h90q105 0 171.5 -53.5t66.5 -138.5v-36q0 -84 -66.5 -137.5t-171.5 -53.5h-228v311h-200v-311h-138zM619 311h-88v-204h88q45 0 73.5 21t28.5 55v52q0 35 -28.5 55.5t-73.5 20.5z" />
    <glyph glyph-name="afii10060" unicode="&#x40b;" horiz-adv-x="696" 
d="M514 0v235q0 77 -121 77q-20 0 -75 -5v-307h-138v593h-166v107h471v-107h-167v-179q55 5 81 5q120 0 186 -53t66 -138v-228h-137z" />
    <glyph glyph-name="afii10061" unicode="&#x40c;" horiz-adv-x="563" 
d="M404 0l-211 339v-339h-138v700h138v-313l193 313h150l-209 -338l227 -362h-150zM179 773l173 122l55 -70l-201 -86z" />
    <glyph glyph-name="uni040D" unicode="&#x40d;" horiz-adv-x="597" 
d="M174 0h-119v700h138v-431l230 431h118v-700h-137v432zM227 895l173 -122l-26 -34l-202 86z" />
    <glyph glyph-name="afii10062" unicode="&#x40e;" horiz-adv-x="558" 
d="M7 700h142l134 -342l130 342h138l-226 -574q-26 -69 -73 -102.5t-133 -33.5h-36v127h41q67 0 83 40l14 36zM332 888h94v-17q0 -50 -40.5 -82.5t-104.5 -32.5t-104.5 32.5t-40.5 82.5v17h94v-32q0 -12 14.5 -20.5t36.5 -8.5t36.5 8.5t14.5 20.5v32z" />
    <glyph glyph-name="afii10145" unicode="&#x40f;" horiz-adv-x="585" 
d="M55 700h138v-593h200v593h138v-700h-169v-139h-138v139h-169v700z" />
    <glyph glyph-name="afii10017" unicode="&#x410;" horiz-adv-x="594" 
d="M149 0h-142l219 700h141l220 -700h-142l-33 118h-231zM296 533l-85 -308h171z" />
    <glyph glyph-name="afii10018" unicode="&#x411;" horiz-adv-x="560" 
d="M300 0h-245v700h407v-107h-269v-164h107q103 0 164.5 -53t61.5 -138v-47q0 -85 -61.5 -138t-164.5 -53zM298 322h-105v-215h105q43 0 66.5 20.5t23.5 55.5v62q0 36 -23.5 56.5t-66.5 20.5z" />
    <glyph glyph-name="afii10019" unicode="&#x412;" horiz-adv-x="564" 
d="M55 0v700h219q107 0 172.5 -48t65.5 -123v-32q0 -89 -88 -137q51 -23 79 -62.5t28 -88.5v-33q0 -77 -65 -126.5t-172 -49.5h-239zM290 302h-97v-195h97q48 0 76 19.5t28 50.5v42q0 37 -28 60t-76 23zM270 593h-77v-184h77q49 0 76.5 22t27.5 58v36q0 30 -27.5 49
t-76.5 19z" />
    <glyph glyph-name="afii10020" unicode="&#x413;" horiz-adv-x="429" 
d="M416 700v-107h-223v-593h-138v700h361z" />
    <glyph glyph-name="afii10021" unicode="&#x414;" horiz-adv-x="694" 
d="M16 -140v247h83q52 93 52 466v127h429v-593h98v-247h-138v140h-386v-140h-138zM278 572q0 -198 -9 -304.5t-34 -160.5h207v486h-164v-21z" />
    <glyph glyph-name="afii10022" unicode="&#x415;" horiz-adv-x="495" 
d="M453 107v-107h-398v700h398v-107h-260v-185h230v-107h-230v-194h260z" />
    <glyph glyph-name="afii10024" unicode="&#x416;" horiz-adv-x="855" 
d="M702 0l-206 344v-344h-138v343l-205 -343h-145l218 362l-197 338h145l184 -317v317h138v-318l185 318h145l-196 -338l217 -362h-145z" />
    <glyph glyph-name="afii10025" unicode="&#x417;" horiz-adv-x="556" 
d="M274 710q100 0 164.5 -49.5t64.5 -127.5v-40q0 -87 -96 -134q54 -22 85 -60t31 -86v-42q0 -80 -70 -130.5t-177 -50.5q-106 0 -173 53t-67 138v40h138v-47q0 -35 28.5 -56t73.5 -21q46 0 77.5 21t31.5 54v51q0 35 -28.5 57t-71.5 22h-76v107h56q43 0 71.5 21t28.5 55v44
q0 33 -26 53.5t-66 20.5q-42 0 -70.5 -21t-28.5 -55v-48h-138v40q0 84 67 137.5t171 53.5z" />
    <glyph glyph-name="afii10026" unicode="&#x418;" horiz-adv-x="597" 
d="M174 0h-119v700h138v-431l230 431h118v-700h-137v432z" />
    <glyph glyph-name="afii10027" unicode="&#x419;" horiz-adv-x="597" 
d="M174 0h-119v700h138v-431l230 431h118v-700h-137v432zM350 888h94v-17q0 -50 -41 -82.5t-104 -32.5q-64 0 -104.5 32.5t-40.5 82.5v17h94v-32q0 -12 14.5 -20.5t36.5 -8.5t36.5 8.5t14.5 20.5v32z" />
    <glyph glyph-name="afii10028" unicode="&#x41a;" horiz-adv-x="563" 
d="M404 0l-211 339v-339h-138v700h138v-313l193 313h150l-209 -338l227 -362h-150z" />
    <glyph glyph-name="afii10029" unicode="&#x41b;" horiz-adv-x="627" 
d="M12 97h13q35 0 53 12t33 60.5t20 143t5 260.5v127h436v-700h-138v593h-170v-21q0 -102 -1.5 -172.5t-6.5 -134t-12 -103t-20.5 -73t-30 -50.5t-43 -29.5t-55.5 -16t-71 -3.5h-12v107z" />
    <glyph glyph-name="afii10030" unicode="&#x41c;" horiz-adv-x="693" 
d="M180 0h-125v700h112l179 -381l180 381h111v-700h-125v404l-133 -284h-66l-133 285v-405z" />
    <glyph glyph-name="afii10031" unicode="&#x41d;" horiz-adv-x="597" 
d="M193 0h-138v700h138v-292h212v292h137v-700h-137v301h-212v-301z" />
    <glyph glyph-name="afii10032" unicode="&#x41e;" horiz-adv-x="572" 
d="M524 181q0 -84 -67 -137.5t-171 -53.5t-171 53.5t-67 137.5v338q0 84 67 137.5t171 53.5t171 -53.5t67 -137.5v-338zM386 174v353q0 34 -28.5 55t-71.5 21q-45 0 -72.5 -21t-27.5 -55v-354q0 -35 27.5 -55.5t72.5 -20.5q43 0 71.5 21t28.5 56z" />
    <glyph glyph-name="afii10033" unicode="&#x41f;" horiz-adv-x="586" 
d="M193 0h-138v700h476v-700h-138v593h-200v-593z" />
    <glyph glyph-name="afii10034" unicode="&#x420;" horiz-adv-x="546" 
d="M279 271h-86v-271h-138v700h224q103 0 170 -53.5t67 -137.5v-46q0 -85 -67 -138.5t-170 -53.5zM277 593h-84v-215h84q45 0 73 21t28 56v62q0 34 -28 55t-73 21z" />
    <glyph glyph-name="afii10035" unicode="&#x421;" horiz-adv-x="560" 
d="M386 221h138v-40q0 -84 -67 -137.5t-171 -53.5t-171 53.5t-67 137.5v338q0 84 67 137.5t171 53.5t171 -53.5t67 -137.5v-40h-138v48q0 34 -28.5 55t-71.5 21q-45 0 -72.5 -21t-27.5 -55v-354q0 -35 27.5 -55.5t72.5 -20.5q43 0 71.5 21t28.5 56v47z" />
    <glyph glyph-name="afii10036" unicode="&#x422;" horiz-adv-x="499" 
d="M485 700v-107h-167v-593h-138v593h-166v107h471z" />
    <glyph glyph-name="afii10037" unicode="&#x423;" horiz-adv-x="558" 
d="M7 700h142l134 -342l130 342h138l-226 -574q-26 -69 -73 -102.5t-133 -33.5h-36v127h41q67 0 83 40l14 36z" />
    <glyph glyph-name="afii10038" unicode="&#x424;" horiz-adv-x="783" 
d="M506 60h-46v-70h-137v70h-46q-104 0 -170 53.5t-66 138.5v196q0 85 66 138.5t170 53.5h46v70h137v-70h46q103 0 169.5 -53.5t66.5 -138.5v-196q0 -85 -66.5 -138.5t-169.5 -53.5zM506 532h-46v-364h46q43 0 71 20.5t28 55.5v212q0 34 -28 55t-71 21zM178 244
q0 -35 28 -55.5t71 -20.5h46v364h-46q-43 0 -71 -21t-28 -55v-212z" />
    <glyph glyph-name="afii10039" unicode="&#x425;" horiz-adv-x="552" 
d="M386 700h150l-181 -343l189 -357h-150l-119 234l-116 -234h-151l189 358l-180 342h150l110 -219z" />
    <glyph glyph-name="afii10040" unicode="&#x426;" horiz-adv-x="643" 
d="M55 700h138v-593h200v593h138v-593h97v-246h-138v139h-435v700z" />
    <glyph glyph-name="afii10041" unicode="&#x427;" horiz-adv-x="571" 
d="M183 700v-235q0 -76 122 -76q37 0 74 5v306h137v-700h-137v286q-38 -5 -81 -5q-119 0 -185.5 53t-66.5 139v227h137z" />
    <glyph glyph-name="afii10042" unicode="&#x428;" horiz-adv-x="880" 
d="M688 700h137v-700h-770v700h138v-593h179v593h137v-593h179v593z" />
    <glyph glyph-name="afii10043" unicode="&#x429;" horiz-adv-x="936" 
d="M55 700h138v-593h179v593h137v-593h179v593h137v-593h98v-246h-138v139h-730v700z" />
    <glyph glyph-name="afii10044" unicode="&#x42a;" horiz-adv-x="669" 
d="M14 593v107h293v-271h90q104 0 171 -53.5t67 -138.5v-46q0 -84 -67 -137.5t-171 -53.5h-228v593h-155zM395 321h-88v-214h88q45 0 73.5 21t28.5 55v62q0 35 -28.5 55.5t-73.5 20.5z" />
    <glyph glyph-name="afii10045" unicode="&#x42b;" horiz-adv-x="771" 
d="M55 0v700h138v-271h91q104 0 170.5 -53.5t66.5 -138.5v-46q0 -84 -66.5 -137.5t-170.5 -53.5h-229zM579 0v700h137v-700h-137zM282 321h-89v-214h89q45 0 73 21t28 55v62q0 35 -28 55.5t-73 20.5z" />
    <glyph glyph-name="afii10046" unicode="&#x42c;" horiz-adv-x="556" 
d="M55 0v700h138v-271h91q104 0 170.5 -53.5t66.5 -138.5v-46q0 -84 -66.5 -137.5t-170.5 -53.5h-229zM282 321h-89v-214h89q45 0 73 21t28 55v62q0 35 -28 55.5t-73 20.5z" />
    <glyph glyph-name="afii10047" unicode="&#x42d;" horiz-adv-x="560" 
d="M38 221h137v-47q0 -35 28.5 -56t72.5 -21t72 20.5t28 55.5v123h-152v108h152v122q0 34 -28 55.5t-72 21.5q-43 0 -72 -21.5t-29 -55.5v-47h-137v40q0 84 66.5 137.5t171.5 53.5q104 0 170.5 -53.5t66.5 -137.5v-338q0 -84 -66.5 -137.5t-170.5 -53.5q-105 0 -171.5 53.5
t-66.5 137.5v40z" />
    <glyph glyph-name="afii10048" unicode="&#x42e;" horiz-adv-x="811" 
d="M193 0h-138v700h138v-292h107v111q0 84 65 137.5t166 53.5t166 -53.5t65 -137.5v-338q0 -84 -65 -137.5t-166 -53.5t-166 53.5t-65 137.5v120h-107v-301zM625 174v353q0 34 -27 55t-67 21q-41 0 -67 -21t-26 -55v-354q0 -35 26 -55.5t67 -20.5t67.5 21t26.5 56z" />
    <glyph glyph-name="afii10049" unicode="&#x42f;" horiz-adv-x="559" 
d="M504 700v-700h-138v271h-81l-122 -271h-141l147 289q-60 23 -94.5 68.5t-34.5 105.5v46q0 84 66.5 137.5t170.5 53.5h227zM177 455q0 -35 28.5 -56t73.5 -21h87v215h-87q-45 0 -73.5 -21t-28.5 -55v-62z" />
    <glyph glyph-name="afii10065" unicode="&#x430;" 
d="M164 360h-127v19q0 72 56.5 116.5t144.5 44.5t144.5 -45t56.5 -116v-379h-128v33q-55 -43 -126 -43q-67 0 -108 37t-41 104v33q0 71 55.5 114t145.5 47l74 3v59q0 25 -20.5 40t-52.5 15q-33 0 -53.5 -15t-20.5 -40v-27zM311 132v98l-71 -3q-36 -2 -56.5 -17t-20.5 -40
v-39q0 -20 20 -31.5t52 -11.5q33 0 54.5 13t21.5 31z" />
    <glyph glyph-name="afii10066" unicode="&#x431;" horiz-adv-x="493" 
d="M249 -10q-89 0 -145.5 44.5t-56.5 116.5v369q0 68 42.5 112.5t123.5 54.5l197 23l15 -102l-181 -26q-70 -9 -70 -62v-38q49 38 127 38q66 0 108 -41.5t42 -109.5v-218q0 -72 -56.5 -116.5t-145.5 -44.5zM249 88q33 0 54 14.5t21 40.5v226q0 22 -21.5 38t-52.5 16
q-74 0 -76 -42v-238q0 -25 21 -40t54 -15z" />
    <glyph glyph-name="afii10067" unicode="&#x432;" horiz-adv-x="478" 
d="M48 0v530h181q92 0 147 -36.5t55 -95.5v-26q0 -62 -61 -98q79 -39 79 -112v-25q0 -62 -55 -99.5t-147 -37.5h-199zM322 172q0 49 -79 49h-67v-123h67q79 0 79 49v25zM303 386q0 46 -76 46h-51v-113h51q76 0 76 46v21z" />
    <glyph glyph-name="afii10068" unicode="&#x433;" horiz-adv-x="382" 
d="M48 0v530h314v-98h-186v-432h-128z" />
    <glyph glyph-name="afii10069" unicode="&#x434;" horiz-adv-x="562" 
d="M12 -130v228h57q23 14 32.5 36t14 83t4.5 195v118h365v-432h66v-228h-128v130h-284v-130h-127zM237 412q0 -224 -28 -314h148v334h-120v-20z" />
    <glyph glyph-name="afii10070" unicode="&#x435;" 
d="M42 151v228q0 72 57 116.5t145 44.5q89 0 145.5 -44.5t56.5 -116.5v-158h-277v-78q0 -25 21 -40t54 -15t54 15t21 40v22h127v-14q0 -72 -56.5 -116.5t-145.5 -44.5q-88 0 -145 44.5t-57 116.5zM244 442q-33 0 -54 -15t-21 -40v-68h150v68q0 25 -21 40t-54 15z" />
    <glyph glyph-name="afii10072" unicode="&#x436;" horiz-adv-x="687" 
d="M3 0l172 273l-155 257h131l134 -235v235h122v-229l131 229h130l-154 -257l172 -273h-131l-148 246v-246h-122v251l-152 -251h-130z" />
    <glyph glyph-name="afii10073" unicode="&#x437;" horiz-adv-x="462" 
d="M226 540q85 0 137.5 -36.5t52.5 -95.5v-38q0 -56 -66 -96q84 -40 84 -110v-37q0 -61 -57 -99t-147 -38q-92 0 -148.5 40.5t-56.5 105.5v29h127v-29q0 -22 21.5 -35t55.5 -13q35 0 56 13t21 35v32q0 24 -20 38.5t-51 14.5h-70v98h51q32 0 52.5 13t20.5 35v30q0 45 -66 45
q-31 0 -51 -12.5t-20 -35.5v-29h-127v29q0 65 56 105.5t145 40.5z" />
    <glyph glyph-name="afii10074" unicode="&#x438;" horiz-adv-x="507" 
d="M331 0v299l-183 -299h-100v530h128v-299l183 299h99v-530h-127z" />
    <glyph glyph-name="afii10075" unicode="&#x439;" horiz-adv-x="507" 
d="M331 0v299l-183 -299h-100v530h128v-299l183 299h99v-530h-127zM307 710h94v-17q0 -50 -40.5 -82.5t-104.5 -32.5t-104.5 32.5t-40.5 82.5v17h94v-31q0 -12 14.5 -21t36.5 -9q21 0 36 9t15 21v31z" />
    <glyph glyph-name="afii10076" unicode="&#x43a;" horiz-adv-x="490" 
d="M48 0v530h128v-224l149 224h142l-175 -257l195 -273h-142l-169 241v-241h-128z" />
    <glyph glyph-name="afii10077" unicode="&#x43b;" horiz-adv-x="511" 
d="M8 93h22q23 0 37 23t22.5 95t8.5 201v118h364v-530h-127v432h-121v-20q0 -110 -6.5 -183.5t-19 -120.5t-36 -71.5t-51 -33t-71.5 -8.5h-22v98z" />
    <glyph glyph-name="afii10078" unicode="&#x43c;" horiz-adv-x="616" 
d="M48 0v530h102l158 -292l158 292h102v-530h-115v290l-114 -211h-61l-115 212v-291h-115z" />
    <glyph glyph-name="afii10079" unicode="&#x43d;" horiz-adv-x="500" 
d="M324 0v221h-148v-221h-128v530h128v-211h148v211h127v-530h-127z" />
    <glyph glyph-name="afii10080" unicode="&#x43e;" horiz-adv-x="488" 
d="M446 151q0 -72 -56.5 -116.5t-145.5 -44.5q-88 0 -145 44.5t-57 116.5v228q0 72 57 116.5t145 44.5q89 0 145.5 -44.5t56.5 -116.5v-228zM319 143v244q0 25 -21 40t-54 15t-54 -15t-21 -40v-244q0 -25 21 -40t54 -15t54 15t21 40z" />
    <glyph glyph-name="afii10081" unicode="&#x43f;" horiz-adv-x="500" 
d="M324 0v432h-148v-432h-128v530h403v-530h-127z" />
    <glyph glyph-name="afii10082" unicode="&#x440;" horiz-adv-x="493" 
d="M48 -200v730h128v-33q56 43 123 43q69 0 110.5 -41t41.5 -110v-248q0 -69 -41.5 -110t-110.5 -41t-123 42v-232h-128zM248 88q34 0 55 16t21 37v248q0 21 -21 37t-55 16q-30 0 -51 -12t-21 -32v-266q0 -20 21 -32t51 -12z" />
    <glyph glyph-name="afii10083" unicode="&#x441;" horiz-adv-x="481" 
d="M319 350v37q0 25 -21 40t-54 15t-54 -15t-21 -40v-244q0 -25 21 -40t54 -15t54 15t21 40v37h127v-29q0 -72 -56.5 -116.5t-145.5 -44.5q-88 0 -145 44.5t-57 116.5v228q0 72 57 116.5t145 44.5q89 0 145.5 -44.5t56.5 -116.5v-29h-127z" />
    <glyph glyph-name="afii10084" unicode="&#x442;" horiz-adv-x="450" 
d="M20 432v98h409v-98h-141v-432h-127v432h-141z" />
    <glyph glyph-name="afii10085" unicode="&#x443;" horiz-adv-x="461" 
d="M458 530l-231 -730h-116l59 190l-167 540h117l108 -356l112 356h118z" />
    <glyph glyph-name="afii10086" unicode="&#x444;" horiz-adv-x="722" 
d="M298 -200v228q-50 -38 -112 -38q-65 0 -104.5 41t-39.5 110v248q0 69 39.5 110t104.5 41q63 0 112 -39v199h128v-198q50 38 112 38q65 0 104 -41t39 -110v-248q0 -69 -39 -110t-104 -41q-62 0 -112 38v-228h-128zM236 88q26 0 44 12t18 32v266q0 20 -18 32t-45 12
q-29 0 -47.5 -15t-18.5 -38v-248q0 -21 18.5 -37t48.5 -16zM488 88q29 0 47 16t18 37v248q0 21 -18 37t-47 16q-27 0 -44.5 -12t-17.5 -32v-266q0 -20 17.5 -32t44.5 -12z" />
    <glyph glyph-name="afii10087" unicode="&#x445;" horiz-adv-x="438" 
d="M305 0l-86 172l-86 -172h-130l146 273l-136 257h130l76 -157l76 157h131l-138 -257l147 -273h-130z" />
    <glyph glyph-name="afii10088" unicode="&#x446;" horiz-adv-x="538" 
d="M48 0v530h128v-432h148v432h127v-432h81v-228h-128v130h-356z" />
    <glyph glyph-name="afii10089" unicode="&#x447;" horiz-adv-x="479" 
d="M430 530v-530h-127v210q-44 -19 -101 -19q-80 0 -124 43.5t-44 117.5v178h128v-178q0 -35 18 -49t55 -14q36 0 68 15v226h127z" />
    <glyph glyph-name="afii10090" unicode="&#x448;" horiz-adv-x="748" 
d="M48 0v530h128v-432h134v432h128v-432h134v432h128v-530h-652z" />
    <glyph glyph-name="afii10091" unicode="&#x449;" horiz-adv-x="787" 
d="M652 -130v130h-604v530h128v-432h134v432h128v-432h134v432h128v-432h80v-228h-128z" />
    <glyph glyph-name="afii10092" unicode="&#x44a;" horiz-adv-x="560" 
d="M17 432v98h252v-176h64q89 0 145.5 -45t56.5 -117v-31q0 -72 -56.5 -116.5t-145.5 -44.5h-191v432h-125zM331 256h-62v-158h62q34 0 55 14.5t21 40.5v48q0 25 -21 40t-55 15z" />
    <glyph glyph-name="afii10093" unicode="&#x44b;" horiz-adv-x="665" 
d="M48 0v530h128v-176h64q88 0 145 -45t57 -117v-31q0 -72 -57 -116.5t-145 -44.5h-192zM489 0v530h128v-530h-128zM238 256h-62v-158h62q34 0 55 15t21 40v48q0 25 -21 40t-55 15z" />
    <glyph glyph-name="afii10094" unicode="&#x44c;" horiz-adv-x="467" 
d="M48 0v530h128v-176h64q88 0 145 -45t57 -117v-31q0 -72 -57 -116.5t-145 -44.5h-192zM238 256h-62v-158h62q34 0 55 15t21 40v48q0 25 -21 40t-55 15z" />
    <glyph glyph-name="afii10095" unicode="&#x44d;" horiz-adv-x="481" 
d="M35 379q0 72 56.5 116.5t145.5 44.5t145.5 -44.5t56.5 -116.5v-228q0 -72 -56.5 -116.5t-145.5 -44.5t-145.5 44.5t-56.5 116.5v12h127v-20q0 -25 21 -40t54 -15t54 15t21 40v73h-121v98h121v73q0 25 -21 40t-54 15t-54 -15t-21 -40v-20h-127v12z" />
    <glyph glyph-name="afii10096" unicode="&#x44e;" horiz-adv-x="692" 
d="M650 151q0 -72 -54.5 -116.5t-139.5 -44.5q-86 0 -140.5 44.5t-54.5 116.5v70h-85v-221h-128v530h128v-211h85v60q0 72 54.5 116.5t140.5 44.5q85 0 139.5 -44.5t54.5 -116.5v-228zM523 143v244q0 25 -19 40t-48 15q-30 0 -49 -15t-19 -40v-244q0 -25 19 -40t49 -15
q29 0 48 15t19 40z" />
    <glyph glyph-name="afii10097" unicode="&#x44f;" horiz-adv-x="473" 
d="M424 530v-530h-127v191h-61l-98 -191h-125l109 213q-92 42 -92 138v19q0 72 56.5 116t145.5 44h192zM157 343q0 -25 21.5 -39.5t55.5 -14.5h63v143h-63q-34 0 -55.5 -14.5t-21.5 -39.5v-35z" />
    <glyph glyph-name="uni0450" unicode="&#x450;" 
d="M42 151v228q0 72 57 116.5t145 44.5q89 0 145.5 -44.5t56.5 -116.5v-158h-277v-78q0 -25 21 -40t54 -15t54 15t21 40v22h127v-14q0 -72 -56.5 -116.5t-145.5 -44.5q-88 0 -145 44.5t-57 116.5zM244 442q-33 0 -54 -15t-21 -40v-68h150v68q0 25 -21 40t-54 15zM170 725
l172 -122l-26 -34l-202 86z" />
    <glyph glyph-name="afii10071" unicode="&#x451;" 
d="M42 151v228q0 72 57 116.5t145 44.5q89 0 145.5 -44.5t56.5 -116.5v-158h-277v-78q0 -25 21 -40t54 -15t54 15t21 40v22h127v-14q0 -72 -56.5 -116.5t-145.5 -44.5q-88 0 -145 44.5t-57 116.5zM244 442q-33 0 -54 -15t-21 -40v-68h150v68q0 25 -21 40t-54 15zM279 579
v108h107v-108h-107zM96 579v108h107v-108h-107z" />
    <glyph glyph-name="afii10099" unicode="&#x452;" horiz-adv-x="500" 
d="M301 540q68 0 109 -37.5t41 -104.5v-434q0 -72 -54 -118t-137 -46h-23v98h23q30 0 47 15t17 43v442q0 21 -20.5 32.5t-53.5 11.5q-31 0 -51.5 -10.5t-22.5 -29.5v-402h-127v578h-41v68h41v54h127v-54h141v-68h-141v-81q56 43 125 43z" />
    <glyph glyph-name="afii10100" unicode="&#x453;" horiz-adv-x="382" 
d="M48 0v530h314v-98h-186v-432h-128zM87 603l173 122l55 -70l-202 -86z" />
    <glyph glyph-name="afii10101" unicode="&#x454;" horiz-adv-x="481" 
d="M243 442q-33 0 -54 -15t-21 -40v-73h143v-98h-143v-73q0 -25 21 -40t54 -15t54 15t21 40v20h127v-12q0 -72 -56.5 -116.5t-145.5 -44.5t-145.5 44.5t-56.5 116.5v228q0 72 56.5 116.5t145.5 44.5t145.5 -44.5t56.5 -116.5v-12h-127v20q0 25 -21 40t-54 15z" />
    <glyph glyph-name="afii10102" unicode="&#x455;" horiz-adv-x="470" 
d="M234 540q86 0 140 -43t54 -113v-24h-127v31q0 23 -19.5 37t-50.5 14q-30 0 -49.5 -13t-19.5 -36q0 -35 38 -51l134 -51q47 -20 74.5 -59t27.5 -87q0 -69 -56.5 -112t-143.5 -43q-89 0 -145 43.5t-56 112.5v24h127v-31q0 -24 21.5 -37.5t55.5 -13.5q33 0 54 13t21 35
q0 36 -42 52l-134 52q-46 19 -72 57t-26 86q0 70 54.5 113.5t139.5 43.5z" />
    <glyph glyph-name="afii10103" unicode="&#x456;" horiz-adv-x="224" 
d="M48 0v530h128v-530h-128zM48 601v118h128v-118h-128z" />
    <glyph glyph-name="afii10104" unicode="&#x457;" horiz-adv-x="225" 
d="M49 0v530h127v-530h-127zM-30 579v109h107v-109h-107zM149 579v109h107v-109h-107z" />
    <glyph glyph-name="afii10105" unicode="&#x458;" horiz-adv-x="224" 
d="M-16 -102q64 0 64 42v590h128v-570q0 -72 -53.5 -116t-138.5 -44h-22v98h22zM48 601v118h128v-118h-128z" />
    <glyph glyph-name="afii10106" unicode="&#x459;" horiz-adv-x="752" 
d="M334 0v432h-121v-20q0 -138 -9 -220t-33 -126t-55.5 -57.5t-86.5 -13.5h-22v98h22q23 0 37 23t22.5 95t8.5 201v118h364v-176h64q89 0 145.5 -45t56.5 -117v-31q0 -72 -56.5 -116.5t-145.5 -44.5h-191zM523 256h-62v-158h62q34 0 55 14.5t21 40.5v48q0 25 -21 40t-55 15z
" />
    <glyph glyph-name="afii10107" unicode="&#x45a;" horiz-adv-x="742" 
d="M324 0v231h-148v-231h-128v530h128v-201h148v201h127v-201h64q88 0 144.5 -43t56.5 -112v-18q0 -69 -56.5 -112.5t-144.5 -43.5h-191zM513 231h-62v-133h62q34 0 55 13t21 36v35q0 23 -21 36t-55 13z" />
    <glyph glyph-name="afii10108" unicode="&#x45b;" horiz-adv-x="500" 
d="M176 398v-398h-127v578h-41v68h41v54h127v-54h141v-68h-141v-81q56 43 125 43q68 0 109 -37.5t41 -104.5v-398h-127v398q0 21 -20.5 32.5t-53.5 11.5t-53.5 -11.5t-20.5 -32.5z" />
    <glyph glyph-name="afii10109" unicode="&#x45c;" horiz-adv-x="490" 
d="M48 0v530h128v-224l149 224h142l-175 -257l195 -273h-142l-169 241v-241h-128zM142 603l173 122l55 -70l-201 -86z" />
    <glyph glyph-name="uni045D" unicode="&#x45d;" horiz-adv-x="507" 
d="M331 0v299l-183 -299h-100v530h128v-299l183 299h99v-530h-127zM182 725l173 -122l-26 -34l-202 86z" />
    <glyph glyph-name="afii10110" unicode="&#x45e;" horiz-adv-x="461" 
d="M458 530l-231 -730h-116l59 190l-167 540h117l109 -355l111 355h118zM281 710h94v-17q0 -50 -40.5 -82.5t-104.5 -32.5t-104.5 32.5t-40.5 82.5v17h94v-31q0 -12 14.5 -21t36.5 -9t36.5 9t14.5 21v31z" />
    <glyph glyph-name="afii10193" unicode="&#x45f;" horiz-adv-x="500" 
d="M48 0v530h128v-432h148v432h127v-530h-138v-130h-127v130h-138z" />
    <glyph glyph-name="afii10050" unicode="&#x490;" horiz-adv-x="411" 
d="M193 0h-138v700h208v120h138v-227h-208v-593z" />
    <glyph glyph-name="afii10098" unicode="&#x491;" horiz-adv-x="370" 
d="M244 634h107v-202h-175v-432h-128v530h196v104z" />
    <glyph glyph-name="uni0492" unicode="&#x492;" horiz-adv-x="431" 
d="M303 403v-69h-108v-334h-137v334h-53v69h53v297h360v-107h-223v-190h108z" />
    <glyph glyph-name="uni0493" unicode="&#x493;" horiz-adv-x="386" 
d="M289 303v-69h-110v-234h-127v234h-47v69h47v227h315v-98h-188v-129h110z" />
    <glyph glyph-name="uni0496" unicode="&#x496;" horiz-adv-x="891" 
d="M702 0l-206 344v-344h-138v343l-205 -343h-145l218 362l-197 338h145l184 -317v317h138v-318l185 318h145l-196 -338l152 -255h95v-246h-138v139h-37z" />
    <glyph glyph-name="uni0497" unicode="&#x497;" horiz-adv-x="712" 
d="M3 0l172 273l-155 257h140l125 -219v219h122v-214l122 214h139l-154 -257l110 -175h79v-228h-127v130h-29l-140 231v-231h-122v236l-143 -236h-139z" />
    <glyph glyph-name="uni049A" unicode="&#x49a;" horiz-adv-x="595" 
d="M410 0l-217 344v-344h-138v700h138v-318l198 318h145l-209 -338l159 -255h96v-246h-138v139h-34z" />
    <glyph glyph-name="uni049B" unicode="&#x49b;" horiz-adv-x="503" 
d="M48 0v530h128v-223l150 223h141l-175 -257l125 -175h78v-228h-127v130h-22l-170 240v-240h-128z" />
    <glyph glyph-name="uni04A2" unicode="&#x4a2;" horiz-adv-x="642" 
d="M193 0h-138v700h138v-292h200v292h138v-593h97v-246h-138v139h-97v301h-200v-301z" />
    <glyph glyph-name="uni04A3" unicode="&#x4a3;" horiz-adv-x="539" 
d="M324 0v221h-148v-221h-128v530h128v-211h148v211h127v-432h81v-228h-128v130h-80z" />
    <glyph glyph-name="uni04AE" unicode="&#x4ae;" horiz-adv-x="569" 
d="M214 0v261l-207 439h142l135 -319l136 319h142l-210 -439v-261h-138z" />
    <glyph glyph-name="uni04AF" unicode="&#x4af;" horiz-adv-x="460" 
d="M169 -200v200l-166 530h122l105 -360l105 360h122l-166 -530v-200h-122z" />
    <glyph glyph-name="uni04B0" unicode="&#x4b0;" horiz-adv-x="569" 
d="M75 191v68h139v2l-207 439h142l135 -313l136 313h142l-210 -439v-2h139v-68h-139v-191h-138v191h-139z" />
    <glyph glyph-name="uni04B1" unicode="&#x4b1;" horiz-adv-x="460" 
d="M46 -68v68h123l-166 530h122l105 -363l105 363h122l-166 -530h124v-68h-124v-132h-122v132h-123z" />
    <glyph glyph-name="uni04B2" unicode="&#x4b2;" horiz-adv-x="593" 
d="M443 -139v139h-49l-119 228l-117 -228h-150l189 358l-180 342h150l110 -213l109 213h150l-181 -343l132 -250h93v-246h-137z" />
    <glyph glyph-name="uni04B3" unicode="&#x4b3;" horiz-adv-x="465" 
d="M305 0l-86 172l-86 -172h-130l146 273l-136 257h130l76 -157l76 157h131l-138 -257l94 -175h75v-228h-127v130h-25z" />
    <glyph glyph-name="uni04B6" unicode="&#x4b6;" horiz-adv-x="626" 
d="M183 700v-246q0 -65 117 -65q42 0 79 5v306h137v-593h97v-246h-139v139h-95v286q-38 -5 -81 -5q-119 0 -185.5 53t-66.5 139v227h137z" />
    <glyph glyph-name="uni04B7" unicode="&#x4b7;" horiz-adv-x="518" 
d="M384 -130v130h-81v211q-49 -20 -102 -20q-79 0 -123 43.5t-44 117.5v178h128v-178q0 -35 18.5 -49t55.5 -14q39 0 67 15v226h127v-432h81v-228h-127z" />
    <glyph glyph-name="uni04BA" unicode="&#x4ba;" horiz-adv-x="571" 
d="M388 0v246q0 65 -116 65q-44 0 -79 -5v-306h-138v700h138v-287q55 5 81 5q119 0 185.5 -52.5t66.5 -138.5v-227h-138z" />
    <glyph glyph-name="uni04BB" unicode="&#x4bb;" horiz-adv-x="500" 
d="M48 0v700h128v-203q56 43 125 43q68 0 109 -37.5t41 -104.5v-398h-127v398q0 21 -20.5 32.5t-53.5 11.5q-31 0 -51.5 -10.5t-22.5 -29.5v-402h-128z" />
    <glyph glyph-name="uni04D8" unicode="&#x4d8;" horiz-adv-x="571" 
d="M48 181v209h338v137q0 34 -27.5 55t-72.5 21q-43 0 -71.5 -21t-28.5 -55v-48h-138v40q0 84 67 137.5t171 53.5t171 -53.5t67 -137.5v-338q0 -84 -67 -137.5t-171 -53.5t-171 53.5t-67 137.5zM186 282v-108q0 -35 28.5 -56t71.5 -21q45 0 72.5 20.5t27.5 55.5v109h-200z
" />
    <glyph glyph-name="afii10846" unicode="&#x4d9;" 
d="M36 365v14q0 72 56.5 116.5t145.5 44.5t145.5 -44.5t56.5 -116.5v-222q0 -72 -57 -119.5t-145 -47.5t-145 47.5t-57 119.5v152h277v78q0 25 -21 40t-54 15t-54 -15t-21 -40v-22h-127zM238 88q33 0 54 17.5t21 43.5v62h-150v-62q0 -26 21 -43.5t54 -17.5z" />
    <glyph glyph-name="uni04E8" unicode="&#x4e8;" horiz-adv-x="572" 
d="M524 181q0 -84 -67 -137.5t-171 -53.5t-171 53.5t-67 137.5v338q0 84 67 137.5t171 53.5t171 -53.5t67 -137.5v-338zM386 174v127h-200v-128q0 -35 27.5 -55.5t72.5 -20.5q43 0 71.5 21t28.5 56zM386 408v119q0 34 -28.5 55t-71.5 21q-45 0 -72.5 -21t-27.5 -55v-119h200
z" />
    <glyph glyph-name="uni04E9" unicode="&#x4e9;" horiz-adv-x="488" 
d="M446 151q0 -72 -56.5 -116.5t-145.5 -44.5q-88 0 -145 44.5t-57 116.5v228q0 72 57 116.5t145 44.5q89 0 145.5 -44.5t56.5 -116.5v-228zM319 314v73q0 25 -21 40t-54 15t-54 -15t-21 -40v-73h150zM319 143v73h-150v-73q0 -25 21 -40t54 -15t54 15t21 40z" />
    <glyph glyph-name="uni04EE" unicode="&#x4ee;" horiz-adv-x="567" 
d="M12 700h142l134 -343l131 343h137l-225 -574q-26 -69 -73.5 -102.5t-133.5 -33.5h-35v127h40q67 0 83 40l14 36zM158 822h251v-68h-251v68z" />
    <glyph glyph-name="uni04EF" unicode="&#x4ef;" horiz-adv-x="461" 
d="M458 530l-231 -730h-116l59 190l-167 540h117l108 -356l112 356h118zM105 652h250v-68h-250v68z" />
    <glyph glyph-name="Wgrave" unicode="&#x1e80;" horiz-adv-x="791" 
d="M644 700h139l-169 -700h-128l-91 469l-90 -469h-128l-169 700h139l93 -472l91 472h129l90 -472zM324 895l173 -122l-27 -34l-202 86z" />
    <glyph glyph-name="wgrave" unicode="&#x1e81;" horiz-adv-x="717" 
d="M451 0l-93 314l-92 -314h-102l-161 530h128l88 -323l91 323h97l89 -323l90 323h128l-161 -530h-102zM287 725l173 -122l-26 -34l-202 86z" />
    <glyph glyph-name="Wacute" unicode="&#x1e82;" horiz-adv-x="791" 
d="M644 700h139l-169 -700h-128l-91 469l-90 -469h-128l-169 700h139l93 -472l91 472h129l90 -472zM292 773l173 122l55 -70l-201 -86z" />
    <glyph glyph-name="wacute" unicode="&#x1e83;" horiz-adv-x="717" 
d="M451 0l-93 314l-92 -314h-102l-161 530h128l88 -323l91 323h97l89 -323l90 323h128l-161 -530h-102zM256 603l173 122l55 -70l-201 -86z" />
    <glyph glyph-name="Wdieresis" unicode="&#x1e84;" horiz-adv-x="791" 
d="M644 700h139l-169 -700h-128l-91 469l-90 -469h-128l-169 700h139l93 -472l91 472h129l90 -472zM250 749v108h107v-108h-107zM433 749v108h107v-108h-107z" />
    <glyph glyph-name="wdieresis" unicode="&#x1e85;" horiz-adv-x="717" 
d="M451 0l-93 314l-92 -314h-102l-161 530h128l88 -323l91 323h97l89 -323l90 323h128l-161 -530h-102zM213 579v108h107v-108h-107zM397 579v108h106v-108h-106z" />
    <glyph glyph-name="Ygrave" unicode="&#x1ef2;" horiz-adv-x="569" 
d="M214 0v261l-207 439h142l135 -301l136 301h142l-210 -439v-261h-138zM213 895l173 -122l-26 -34l-202 86z" />
    <glyph glyph-name="ygrave" unicode="&#x1ef3;" horiz-adv-x="461" 
d="M458 530l-231 -730h-116l59 192l-167 538h123l103 -344l106 344h123zM159 725l173 -122l-26 -34l-202 86z" />
    <glyph glyph-name="figuredash" unicode="&#x2012;" horiz-adv-x="602" 
d="M62 301v98h479v-98h-479z" />
    <glyph glyph-name="endash" unicode="&#x2013;" horiz-adv-x="500" 
d="M50 252v98h399v-98h-399z" />
    <glyph glyph-name="emdash" unicode="&#x2014;" horiz-adv-x="769" 
d="M50 252v98h668v-98h-668z" />
    <glyph glyph-name="quoteleft" unicode="&#x2018;" horiz-adv-x="267" 
d="M221 680l-36 -219h-139l100 239z" />
    <glyph glyph-name="quoteright" unicode="&#x2019;" horiz-adv-x="267" 
d="M46 481l36 219h139l-100 -239z" />
    <glyph glyph-name="quotesinglbase" unicode="&#x201a;" horiz-adv-x="268" 
d="M29 -91l36 219h138l-99 -238z" />
    <glyph glyph-name="quotedblleft" unicode="&#x201c;" horiz-adv-x="443" 
d="M397 680l-36 -219h-139l100 239zM221 680l-36 -219h-139l100 239z" />
    <glyph glyph-name="quotedblright" unicode="&#x201d;" horiz-adv-x="443" 
d="M46 481l36 219h139l-100 -239zM222 481l36 219h139l-100 -239z" />
    <glyph glyph-name="quotedblbase" unicode="&#x201e;" horiz-adv-x="446" 
d="M29 -91l36 219h138l-99 -238zM205 -91l35 219h140l-101 -238z" />
    <glyph glyph-name="dagger" unicode="&#x2020;" horiz-adv-x="493" 
d="M14 461v88h179v201h107v-201h180v-88h-180v-611h-107v611h-179z" />
    <glyph glyph-name="daggerdbl" unicode="&#x2021;" horiz-adv-x="493" 
d="M14 461v88h179v201h107v-201h180v-88h-180v-322h180v-88h-180v-201h-107v201h-179v88h179v322h-179z" />
    <glyph glyph-name="bullet" unicode="&#x2022;" horiz-adv-x="425" 
d="M51 301q0 64 47.5 113t112.5 49q64 0 113.5 -49t49.5 -113q0 -65 -49 -113t-114 -48t-112.5 48t-47.5 113z" />
    <glyph glyph-name="ellipsis" unicode="&#x2026;" horiz-adv-x="803" 
d="M65 0v128h138v-128h-138zM332 0v128h139v-128h-139zM599 0v128h139v-128h-139z" />
    <glyph glyph-name="perthousand" unicode="&#x2030;" horiz-adv-x="1270" 
d="M380 525q0 -102 -44.5 -143.5t-124.5 -41.5t-124.5 41.5t-44.5 143.5t44.5 143.5t124.5 41.5t124.5 -41.5t44.5 -143.5zM274 525q0 68 -16 89.5t-47 21.5q-32 0 -47 -21t-15 -90t15.5 -90.5t46.5 -21.5t47 22t16 90zM157 0l484 747l94 -47l-485 -747zM850 175
q0 -102 -44.5 -143.5t-124.5 -41.5t-124.5 41.5t-44.5 143.5t44.5 143.5t124.5 41.5t124.5 -41.5t44.5 -143.5zM744 175q0 62 -16 82t-47 20t-46.5 -19.5t-15.5 -82.5t15.5 -82.5t46.5 -19.5t47 20t16 82zM1228 175q0 -102 -44.5 -143.5t-124.5 -41.5t-124.5 41.5
t-44.5 143.5t44.5 143.5t124.5 41.5t124.5 -41.5t44.5 -143.5zM1121 175q0 62 -15.5 82t-46.5 20t-46.5 -19.5t-15.5 -82.5t15.5 -82.5t46.5 -19.5t46.5 20t15.5 82z" />
    <glyph glyph-name="guilsinglleft" unicode="&#x2039;" horiz-adv-x="338" 
d="M224 119l-185 181l185 181l63 -58l-127 -123l127 -122z" />
    <glyph glyph-name="guilsinglright" unicode="&#x203a;" horiz-adv-x="338" 
d="M299 300l-185 -181l-64 59l128 122l-128 123l64 58z" />
    <glyph glyph-name="fraction" unicode="&#x2044;" horiz-adv-x="558" 
d="M0 -4l484 747l74 -39l-486 -747z" />
    <glyph glyph-name="Euro" unicode="&#x20ac;" horiz-adv-x="607" 
d="M24 379v68h71v72q0 84 67 137.5t171 53.5t171 -53.5t67 -137.5v-40h-138v48q0 34 -28.5 55t-71.5 21q-45 0 -72.5 -21t-27.5 -55v-80h157v-68h-157v-53h157v-68h-157v-85q0 -35 27.5 -55.5t72.5 -20.5q43 0 71.5 21t28.5 56v47h138v-40q0 -84 -67 -137.5t-171 -53.5
t-171 53.5t-67 137.5v77h-71v68h71v53h-71z" />
    <glyph glyph-name="uni20B4" unicode="&#x20b4;" horiz-adv-x="547" 
d="M28 263v68h476v-68h-287q-41 -42 -41 -93q0 -36 24.5 -54.5t62.5 -18.5q43 0 72.5 23t29.5 56h138q0 -81 -67.5 -133.5t-171.5 -52.5q-101 0 -163.5 49.5t-62.5 132.5q0 53 25 91h-35zM28 374v68h274q54 50 54 88q0 34 -22.5 53.5t-58.5 19.5q-40 0 -67.5 -21.5
t-27.5 -52.5h-138q0 79 65.5 130t166.5 51q98 0 159 -50t61 -129q0 -50 -29 -89h39v-68h-476z" />
    <glyph glyph-name="afii61352" unicode="&#x2116;" horiz-adv-x="962" 
d="M188 0h-133v700h117l226 -420v420h133v-700h-117l-226 420v-420zM920 525q0 -102 -44.5 -143.5t-124.5 -41.5t-124.5 41.5t-44.5 143.5t44.5 143.5t124.5 41.5t124.5 -41.5t44.5 -143.5zM813 525q0 68 -15.5 89.5t-46.5 21.5q-32 0 -47 -21t-15 -90t15.5 -90.5
t46.5 -21.5t46.5 21.5t15.5 90.5z" />
    <glyph glyph-name="trademark" unicode="&#x2122;" horiz-adv-x="590" 
d="M343 350h-72v350h64l82 -178l81 178h64v-350h-72v177l-55 -119h-37l-55 119v-177zM242 700v-61h-76v-289h-79v289h-76v61h231z" />
    <glyph glyph-name="arrowleft" unicode="&#x2190;" horiz-adv-x="706" 
d="M330 107l-300 243l300 233l47 -47l-128 -137h427v-98h-429l130 -146z" />
    <glyph glyph-name="arrowup" unicode="&#x2191;" horiz-adv-x="706" 
d="M116 367l243 300l233 -300l-47 -47l-137 127v-426h-98v428l-146 -129z" />
    <glyph glyph-name="arrowright" unicode="&#x2192;" horiz-adv-x="706" 
d="M676 350l-300 -243l-47 48l129 146h-428v98h426l-127 137l47 47z" />
    <glyph glyph-name="arrowdown" unicode="&#x2193;" horiz-adv-x="706" 
d="M359 21l-243 301l48 46l146 -130v429h98v-427l137 128l47 -46z" />
    <glyph glyph-name="uni2196" unicode="&#x2196;" horiz-adv-x="706" 
d="M169 193l-40 383l377 -47l-1 -67l-187 -6l301 -301l-68 -70l-304 303l-11 -195h-67z" />
    <glyph glyph-name="uni2197" unicode="&#x2197;" horiz-adv-x="706" 
d="M619 576l-40 -383h-67l-12 195l-303 -303l-68 70l301 301l-187 6l-1 67z" />
    <glyph glyph-name="uni2198" unicode="&#x2198;" horiz-adv-x="706" 
d="M619 86l-377 48v66l186 6l-300 301l69 70l303 -302l12 194h67z" />
    <glyph glyph-name="uni2199" unicode="&#x2199;" horiz-adv-x="706" 
d="M128 86l40 383h68l11 -195l304 303l68 -70l-301 -301l187 -6v-66z" />
    <glyph glyph-name="minus" unicode="&#x2212;" horiz-adv-x="602" 
d="M85 301v98h432v-98h-432z" />
    <glyph glyph-name="commaaccent" unicode="&#xf6c3;" horiz-adv-x="261" 
d="M65 -189l27 143h103l-75 -157z" />
    </font>
</defs>
</svg>
