<svg width="39" height="39" viewBox="0 0 39 39" fill="none" xmlns="http://www.w3.org/2000/svg">
<circle cx="19.5" cy="19.5" r="19" stroke="white"/>
<path d="M23.1937 12.1112H25.3811V8.0025H21.4061C21.0745 7.98831 17.0323 7.90881 15.9847 12.0194C15.9695 12.0625 15.6347 13.0401 15.6347 15.3237L12 15.3351V19.6444L15.6393 19.6335V31H21.1982V19.6434H24.8775V15.3227H21.1982V13.9633C21.1982 13.1182 21.5445 12.1112 23.1937 12.1112ZM23.9577 16.2687V18.6966H20.2784V30.0531H16.5591V18.6843L12.9198 18.6952V16.2786L16.5687 16.2677L16.5591 15.7865C16.5113 13.3675 16.8465 12.3502 16.8617 12.3014C17.7659 8.76102 21.2184 8.93894 21.3665 8.94841L24.4613 8.94935V11.1653H23.1937C21.0446 11.1653 20.2788 12.6104 20.2788 13.9628V16.2687H23.9577Z" fill="#EAF3FA"/>
</svg>
