<svg width="39" height="39" viewBox="0 0 39 39" fill="none" xmlns="http://www.w3.org/2000/svg">
<circle cx="19.5" cy="19.5" r="19" stroke="white"/>
<path d="M11.97 7.18384C11.1633 7.18384 10.43 7.47719 9.88 8.02719C9.29335 8.61384 9 9.34714 9 10.1171C9 10.9238 9.33 11.6571 9.88 12.2071C10.43 12.7571 11.2 13.0871 11.9333 13.0505C11.9333 13.0505 11.97 13.0505 12.0067 13.0505C12.74 13.0505 13.4367 12.7571 13.9867 12.2071C14.5367 11.6571 14.8667 10.9238 14.8667 10.1171C14.9033 9.34714 14.5733 8.61379 14.0233 8.06379C13.4733 7.47714 12.74 7.18384 11.97 7.18384ZM13.4733 11.6938C13.07 12.0972 12.52 12.3538 11.9333 12.3172C11.3833 12.3172 10.7967 12.0972 10.3933 11.6938C9.95335 11.2905 9.73335 10.7038 9.73335 10.1172C9.73335 9.53053 9.95335 8.98053 10.3933 8.54053C10.7967 8.13719 11.3467 7.91719 11.97 7.91719C12.52 7.91719 13.07 8.13719 13.4733 8.54053C13.9133 8.98053 14.1333 9.53053 14.1333 10.1172C14.1333 10.7038 13.9133 11.2905 13.4733 11.6938Z" fill="#EAF3FA"/>
<path d="M13.4 13.7832H10.43C9.84339 13.7832 9.3667 14.2599 9.3667 14.8832V27.7166C9.3667 28.3032 9.88005 28.8166 10.4667 28.8166H13.4C13.9867 28.8166 14.5 28.3032 14.5 27.7532V14.8832C14.5 14.2965 13.9867 13.7832 13.4 13.7832ZM13.7667 27.7532C13.7667 27.9366 13.5834 28.0832 13.4 28.0832H10.4667C10.2834 28.0832 10.1 27.8999 10.1 27.7166V14.8832C10.1 14.6999 10.2467 14.5166 10.43 14.5166H13.4C13.5834 14.5166 13.7667 14.6999 13.7667 14.8832V27.7532Z" fill="#EAF3FA"/>
<path d="M25.8666 13.4165H25.0966C23.6666 13.4165 22.31 14.0399 21.43 15.0299V14.5165C21.43 14.1499 21.0633 13.7832 20.6966 13.7832H17.03C16.7 13.7832 16.2966 14.0765 16.2966 14.4798V28.1565C16.2966 28.5598 16.7 28.8165 17.03 28.8165H21.0633C21.3933 28.8165 21.7967 28.5598 21.7967 28.1565V20.2365C21.7967 19.0265 22.6767 18.0731 23.8133 18.0731C24.4 18.0731 24.95 18.2931 25.3533 18.6965C25.72 19.0265 25.8667 19.5398 25.8667 20.1998V28.0832C25.8667 28.4498 26.2333 28.8165 26.6 28.8165H30.2667C30.6333 28.8165 31 28.4499 31 28.0832V18.6232C31 15.6899 28.7633 13.4165 25.8666 13.4165ZM30.2666 28.0465L30.23 28.0832H26.6366L26.6 20.1999C26.6 19.3199 26.38 18.6599 25.9033 18.1832C25.3533 17.6332 24.62 17.3399 23.85 17.3399C22.31 17.3765 21.1 18.6232 21.1 20.2365V28.0832H17.0666V14.5165H20.6966L20.7333 14.5532V16.8632L21.7233 15.8732L21.7599 15.8365C22.4933 14.8099 23.7766 14.1499 25.1333 14.1499H25.9033C28.3599 14.1499 30.2666 16.1299 30.2666 18.6232V28.0465Z" fill="#EAF3FA"/>
</svg>
