<svg xmlns="http://www.w3.org/2000/svg" viewBox="0 0 575 800"><defs><style>.cls-1{fill:#fff;}</style></defs><g id="Layer_2"><g id="Layer_1-2"><path class="cls-1" d="M575,550c0,.69,0,1.39,0,2.08C573.87,689.19,462.38,800,325,800,186.92,800,75,688.07,75,550V300H0V150H75V0A150,150,0,0,1,225,150H554.2C515.62,238.29,427.52,300,325,300H225V550a100,100,0,0,0,87.5,99.23A101.21,101.21,0,0,0,325,650a100,100,0,1,0-12.49-199.23A150.07,150.07,0,0,1,499.6,419.84V425c0-1.71,0-3.41.1-5.1A125.06,125.06,0,0,1,575,310.23V547.92C575,548.61,575,549.31,575,550Z"/></g></g></svg>
