<svg xmlns="http://www.w3.org/2000/svg" viewBox="0 0 1629.34 296.5"><defs><style>.cls-1{fill:#fff;}</style></defs><g id="Layer_2"><g id="Layer_1-2"><path class="cls-1" d="M213.11,203.84c0,.26,0,.52,0,.77a92.65,92.65,0,0,1-185.3-.77V111.19H0V55.59H27.8V0A55.59,55.59,0,0,1,83.39,55.59h122a92.68,92.68,0,0,1-84.95,55.6H83.39v92.65a37.06,37.06,0,1,0,32.43-36.77,55.62,55.62,0,0,1,69.34-11.47v1.91c0-.63,0-1.26,0-1.89A46.34,46.34,0,0,1,213.1,115v88.09C213.11,203.33,213.11,203.59,213.11,203.84Z"/><path class="cls-1" d="M409.6,244.67H368.54V85.2H316V51H462.19V85.2H409.6Z"/><path class="cls-1" d="M492,244.67V51h41.06V244.67Z"/><path class="cls-1" d="M708,244.67H563.91V218.05L656.76,84.94H566.42V51H705.5V77.52L612.78,210.77H708Z"/><path class="cls-1" d="M812.39,135.93h76.82v100.4A216.49,216.49,0,0,1,854,244.87a228.15,228.15,0,0,1-33.71,2.45q-43.85,0-67-25.76t-23.11-74q0-46.89,26.82-73.12t74.37-26.22a143.8,143.8,0,0,1,57.48,11.92L875.3,93a97.37,97.37,0,0,0-44.11-10.6q-26.62,0-42.65,17.88t-16,48.08q0,31.53,12.91,48.15T823,213.15a132.46,132.46,0,0,0,26.09-2.65V170.1H812.39Z"/><path class="cls-1" d="M935.3,244.67V51h41.06V244.67Z"/><path class="cls-1" d="M1196.89,244.67H1144.7L1060.46,98.18h-1.19q2.52,38.82,2.52,55.37v91.12H1025.1V51h51.79l84.1,145h.93q-2-37.74-2-53.37V51h37Z"/><path class="cls-1" d="M1236.76,225.73q0-11.11,6-16.82t17.35-5.69q11,0,17,5.82t6,16.69q0,10.47-6.09,16.49t-17,6q-11.13,0-17.22-5.89T1236.76,225.73Z"/><path class="cls-1" d="M1478.74,244.67h-46.62l-50.73-81.59L1364,175.53v69.14H1323V51H1364v88.61l16.16-22.78L1432.65,51h45.56l-67.55,85.7Z"/><path class="cls-1" d="M1629.34,244.67H1485.23V218.05l92.85-133.11h-90.33V51h139.07V77.52l-92.71,133.25h95.23Z"/></g></g></svg>
