<svg width="21" height="21" viewBox="0 0 21 21" fill="none" xmlns="http://www.w3.org/2000/svg">
<path d="M20.9364 19.4905L14.1193 12.6734C15.1772 11.3058 15.7494 9.63371 15.7494 7.87497C15.7494 5.76972 14.9278 3.79573 13.4421 2.30736C11.9563 0.818996 9.97709 0 7.87448 0C5.77186 0 3.79262 0.821621 2.30688 2.30736C0.818508 3.79311 -0.000488281 5.76972 -0.000488281 7.87497C-0.000488281 9.97758 0.821133 11.9568 2.30688 13.4426C3.79262 14.9309 5.76924 15.7499 7.87448 15.7499C9.63322 15.7499 11.3027 15.1777 12.6703 14.1224L19.4874 20.9369C19.5074 20.9569 19.5312 20.9728 19.5573 20.9836C19.5834 20.9944 19.6114 21 19.6397 21C19.668 21 19.696 20.9944 19.7221 20.9836C19.7482 20.9728 19.7719 20.9569 19.7919 20.9369L20.9364 19.795C20.9564 19.775 20.9723 19.7513 20.9831 19.7252C20.9939 19.6991 20.9995 19.6711 20.9995 19.6428C20.9995 19.6145 20.9939 19.5865 20.9831 19.5604C20.9723 19.5343 20.9564 19.5105 20.9364 19.4905ZM12.0325 12.0329C10.9195 13.1433 9.44422 13.7549 7.87448 13.7549C6.30473 13.7549 4.82949 13.1433 3.7165 12.0329C2.60613 10.92 1.9945 9.44471 1.9945 7.87497C1.9945 6.30522 2.60613 4.82735 3.7165 3.71698C4.82949 2.60661 6.30473 1.99499 7.87448 1.99499C9.44422 1.99499 10.9221 2.60399 12.0325 3.71698C13.1428 4.82998 13.7545 6.30522 13.7545 7.87497C13.7545 9.44471 13.1428 10.9226 12.0325 12.0329Z" fill="#81B7E4"/>
</svg>
