<?xml version="1.0" standalone="no"?>
<!DOCTYPE svg PUBLIC "-//W3C//DTD SVG 20010904//EN"
 "http://www.w3.org/TR/2001/REC-SVG-20010904/DTD/svg10.dtd">
<svg version="1.0" xmlns="http://www.w3.org/2000/svg"
 width="800.000000pt" height="800.000000pt" viewBox="0 0 800.000000 800.000000"
 preserveAspectRatio="xMidYMid meet">
<metadata>
Created by potrace 1.14, written by Peter Selinger 2001-2017
</metadata>
<g transform="translate(0.000000,800.000000) scale(0.100000,-0.100000)"
fill="#000000" stroke="none">
<path d="M1886 7992 c-9 -15 -10 -87 -2 -100 4 -7 2 -12 -4 -12 -8 0 -8 -6 0
-20 6 -11 7 -20 2 -20 -5 0 -6 -21 -2 -48 3 -26 3 -59 0 -72 -4 -14 -3 -37 1
-52 5 -17 4 -28 -2 -28 -6 0 -5 -8 1 -20 6 -11 7 -20 2 -20 -5 0 -6 -22 -2
-48 3 -27 3 -60 -1 -74 -4 -14 -3 -31 1 -38 4 -7 4 -26 0 -41 -5 -16 -5 -31
-1 -34 5 -2 5 -22 1 -43 -4 -21 -3 -48 1 -60 5 -13 4 -22 -2 -22 -6 0 -6 -7 1
-20 6 -11 7 -20 2 -20 -5 0 -6 -21 -2 -48 3 -26 3 -59 0 -72 -4 -14 -3 -37 1
-52 5 -17 4 -28 -2 -28 -6 0 -5 -8 1 -20 6 -11 7 -20 2 -20 -5 0 -6 -22 -2
-48 3 -27 3 -60 -1 -74 -4 -14 -3 -31 1 -38 4 -7 5 -24 1 -38 -4 -14 -4 -47
-1 -73 3 -26 3 -55 -1 -66 -3 -10 -3 -26 0 -36 4 -10 5 -34 3 -53 l-4 -35 -57
1 c-31 1 -199 1 -373 1 l-318 -1 0 -750 0 -750 28 -1 c15 -1 31 0 37 1 11 2
10 2 108 -1 37 -1 70 1 73 4 4 3 17 2 30 -3 13 -5 25 -6 28 -1 3 4 27 5 53 1
27 -3 60 -3 73 0 14 4 37 3 52 -1 16 -4 30 -3 34 2 4 6 11 6 20 -2 8 -6 14 -8
14 -3 0 5 36 7 81 4 44 -3 87 -1 94 3 14 8 16 3 30 -65 2 -10 -1 -18 -6 -18
-6 0 -5 -8 1 -20 8 -14 8 -20 0 -20 -6 0 -9 -4 -6 -8 3 -5 5 -47 5 -93 0 -46
1 -93 1 -104 1 -11 1 -26 1 -32 -1 -16 -1 -35 -1 -68 0 -14 -1 -31 -1 -37 0
-7 1 -46 2 -86 1 -40 -1 -75 -4 -78 -3 -4 -2 -16 3 -28 4 -13 5 -29 0 -36 -5
-7 -5 -23 0 -34 4 -12 4 -30 0 -41 -4 -11 -4 -32 0 -46 4 -14 5 -44 1 -66 -4
-22 -4 -49 0 -61 5 -13 4 -22 -2 -22 -6 0 -6 -7 1 -20 6 -11 7 -20 2 -20 -5 0
-6 -21 -2 -48 3 -26 3 -59 0 -72 -4 -14 -3 -37 1 -52 5 -17 4 -28 -2 -28 -6 0
-5 -8 1 -20 6 -11 7 -20 2 -20 -5 0 -6 -22 -2 -48 3 -27 3 -60 -1 -74 -4 -14
-3 -31 1 -38 4 -7 4 -26 0 -41 -5 -16 -5 -31 -1 -34 5 -2 5 -22 1 -43 -4 -21
-3 -48 1 -60 5 -13 4 -22 -2 -22 -6 0 -6 -7 1 -20 6 -11 7 -20 2 -20 -5 0 -6
-21 -2 -48 3 -26 3 -59 0 -72 -4 -14 -3 -37 1 -52 5 -17 4 -28 -2 -28 -6 0 -5
-8 1 -20 6 -11 7 -20 2 -20 -5 0 -6 -22 -2 -48 3 -27 3 -60 -1 -74 -4 -14 -3
-31 1 -38 4 -7 4 -24 0 -39 -4 -14 -6 -35 -4 -46 6 -35 7 -126 1 -131 -3 -3
-1 -19 3 -35 5 -18 5 -29 -1 -29 -6 0 -5 -8 1 -20 6 -11 7 -20 2 -20 -5 0 -6
-20 -2 -45 4 -24 3 -50 -1 -57 -4 -6 -6 -15 -4 -18 2 -3 6 -66 10 -140 3 -74
8 -146 10 -160 13 -96 18 -127 21 -145 2 -11 11 -54 19 -95 8 -41 24 -106 35
-145 11 -38 22 -74 24 -80 19 -67 36 -118 43 -128 4 -6 8 -17 9 -23 3 -22 77
-182 130 -283 52 -98 184 -301 238 -366 14 -16 40 -48 58 -70 144 -175 450
-435 623 -531 11 -6 42 -23 69 -38 27 -14 54 -30 60 -34 33 -24 324 -146 376
-157 8 -2 15 -4 15 -5 0 -1 7 -3 15 -5 8 -3 46 -13 84 -24 111 -33 265 -62
411 -79 128 -15 504 -7 615 13 14 3 41 7 60 10 19 3 42 8 51 11 10 2 30 6 46
8 15 2 48 9 73 16 25 7 50 13 55 14 6 1 37 11 70 21 33 10 65 19 70 21 76 18
360 145 469 211 78 47 199 125 206 133 3 3 26 21 53 40 26 18 47 37 47 41 0 4
9 11 21 14 18 6 293 273 329 320 8 11 41 54 73 95 31 41 60 80 65 85 35 46
146 230 167 276 8 19 20 41 25 49 35 53 160 382 175 460 2 12 7 30 10 40 3 10
7 27 9 37 2 10 11 52 19 93 9 41 19 99 22 129 4 30 10 63 13 75 3 12 8 616 9
1344 3 1077 1 1322 -9 1322 -25 -1 -199 -102 -236 -137 -7 -7 -17 -13 -21 -13
-9 0 -173 -160 -206 -201 -58 -71 -185 -287 -185 -315 0 -3 -6 -20 -14 -37
-23 -51 -50 -151 -62 -230 -3 -21 -7 -46 -9 -55 -2 -9 -4 -36 -4 -58 l-1 -42
-90 44 c-49 24 -92 44 -94 44 -3 0 -17 5 -33 12 -15 6 -30 12 -33 13 -3 1 -12
4 -20 7 -123 43 -300 74 -412 74 -32 -1 -58 3 -58 7 0 5 -4 6 -9 3 -5 -3 -49
-8 -97 -11 -111 -6 -279 -36 -316 -56 -10 -5 -18 -8 -18 -5 0 5 -82 -22 -135
-45 -16 -7 -32 -13 -35 -14 -10 -2 -125 -60 -130 -65 -3 -3 -18 -12 -35 -20
-36 -18 -159 -106 -205 -146 -38 -33 -150 -142 -150 -146 0 -2 49 -2 109 -2
61 1 131 -2 158 -7 26 -5 61 -12 77 -15 85 -15 211 -68 309 -131 85 -54 84
-53 170 -139 78 -77 111 -117 142 -173 11 -20 22 -38 25 -41 22 -22 90 -199
104 -270 3 -14 8 -36 11 -50 11 -45 14 -254 4 -305 -5 -27 -12 -66 -15 -85
-16 -101 -95 -271 -175 -376 -122 -163 -271 -273 -462 -343 -79 -29 -94 -33
-182 -49 -46 -8 -253 -8 -305 0 -181 27 -325 92 -482 215 -180 142 -311 364
-353 603 -11 60 -14 334 -14 1372 l-1 1298 22 0 c13 0 31 0 41 0 9 0 39 0 66
-1 27 -1 53 1 57 3 5 3 18 2 29 -2 11 -4 34 -4 52 1 18 4 35 3 38 -2 3 -4 16
-5 28 0 12 5 31 5 42 1 11 -4 33 -4 50 0 17 4 54 4 82 0 28 -3 59 -3 69 0 10
4 33 4 51 -1 19 -4 36 -3 39 3 3 5 11 4 20 -3 8 -6 14 -8 14 -3 0 5 21 8 47 7
27 -1 73 -2 103 -2 30 -1 71 -1 90 -2 19 -1 40 -1 45 0 6 0 60 2 120 4 162 7
409 42 505 72 10 3 27 8 37 10 28 6 156 45 178 55 11 4 34 13 50 18 55 19 192
78 216 94 13 8 35 19 49 23 14 4 27 11 30 14 3 4 21 15 40 24 55 27 299 188
336 222 6 5 29 24 50 40 51 39 279 267 324 324 42 52 66 82 80 98 39 46 173
266 227 371 l66 127 -1647 3 -1646 2 0 28 c-1 48 -10 166 -15 192 -3 14 -8 41
-11 60 -3 19 -7 42 -10 50 -3 8 -8 26 -11 40 -16 87 -95 280 -159 388 -184
311 -472 546 -814 663 -49 16 -100 32 -112 35 -156 33 -351 53 -362 36z"/>
</g>
</svg>
